<?xml version="1.0" encoding="utf-8"?>
<!-- Generator: Adobe Illustrator 18.0.0, SVG Export Plug-In . SVG Version: 6.00 Build 0)  -->
<!DOCTYPE svg PUBLIC "-//W3C//DTD SVG 1.1//EN" "http://www.w3.org/Graphics/SVG/1.1/DTD/svg11.dtd">
<svg version="1.1" id="Layer_1" xmlns="http://www.w3.org/2000/svg" xmlns:xlink="http://www.w3.org/1999/xlink" x="0px" y="0px"
	 width="1631px" height="492.8px" viewBox="144 293.1 1631 492.8" enable-background="new 144 293.1 1631 492.8"
	 xml:space="preserve">
<rect x="144" y="293.1" fill="#EB2427" width="493.6" height="492.8"/>
<path fill="#FFFFFF" d="M549.8,488.5l-9.7-0.2c-1,8.6-4.6,15.8-9.2,22.3c-15-20.1-40.3-38.8-42.3-66.3l-9.8-0.2
	c-1.1,9.7-4.7,18.1-9.7,25.9c-11.9-13.4-23.3-27.7-24.6-45.7l-9.9-0.2c-1.3,11-5.8,20.4-11.8,29.1c-11.8-14.5-21.4-31-22.9-51.7
	l-9.8-0.2c-2.3,20.2-12,36.3-23.6,50.6c-5.7-8.4-9.9-17.5-11.2-28.1l-9.8,0.2c-1.4,18.5-13.2,33-25.4,46.6
	c-4.9-7.8-8.6-16.2-9.7-25.8l-9.8,0.2c-1.9,26.6-25.6,45-40.7,64.3c-4.1-6.1-7.3-12.9-8.2-20.9l-9.8,0.2
	c-2.8,38.9-60.9,49.3-23.7,91.9l7.7-5.6c-26.4-30.1,9.4-43,21.2-68.2c1.9,3.9,4.4,7.5,6.9,10.9c-9.3,15.2-11.2,31.6,8,53.6l7.6-5.6
	c-36.5-41.7,21.5-64.9,36.1-100.6c3.3,7.5,7.9,14.1,13,20.5l0,0l0,0c2.9,3.6,6,7.2,9.2,10.6c-15.6,21.5-20.5,44.4,7.8,78.3l7.8-5.5
	c-26.2-31.2-19.3-54.7-3.8-72.4c15.8-18.1,46.8-47.1,54.6-72.5c7.9,22.8,24.4,40.1,39.6,56.1c25.6,26.8,47.5,49.8,12.1,90.2l7.7,5.6
	c30.6-34.9,24.2-58,7-80.1c8.8-9.6,17.2-19.5,22.4-31.4c14.5,35.7,72.6,58.9,36.1,100.7l7.6,5.6c18.3-20.9,17.5-36.8,9.3-51.4
	c3-3.9,5.9-7.9,8.2-12.4c11.8,25.3,47.6,33.4,21.2,63.5l7.6,5.6C610.8,533.1,552.7,527.5,549.8,488.5z M334.1,488.4
	c-3-3.4-5.9-6.7-8.6-10.3c9.8-10.8,20.3-21.8,25.4-34.3c2.5,5.6,5.7,10.8,9.3,15.7C356.5,463.7,338.7,482.9,334.1,488.4z
	 M429.4,460.8c3.9-5.2,7.3-10.6,9.9-16.6c4.9,12.2,15,22.9,24.6,33.4c-2.8,3.7-5.8,7.2-9,10.7C450.8,483.5,433.4,465.3,429.4,460.8z
	"/>
<g>
	<path fill="#F1F2F2" d="M487.2,666h-46.6c-1.9,0-3.4-1.5-3.4-3.4s1.5-3.4,3.4-3.4h46.6c4.6,0,8.3-3.7,8.3-8.3s-3.7-8.3-8.3-8.3h-35
		c-8.3,0-15-6.7-15-15s6.7-15,15-15h38.6c1.9,0,3.4,1.5,3.4,3.4s-1.5,3.4-3.4,3.4l0,0h-38.6c-4.6,0-8.3,3.7-8.3,8.3s3.7,8.3,8.3,8.3
		h35c8.3,0,15,6.7,15,15S495.5,666,487.2,666z"/>
	<path fill="#F1F2F2" d="M349.9,665.9c-1.9,0-3.4-1.5-3.4-3.4v-39.4L322.8,642c-1.2,1-3,1-4.2,0L295,623.1v39.4
		c0,1.9-1.5,3.4-3.4,3.4s-3.4-1.5-3.4-3.4v-46.4c0-1.3,0.7-2.5,1.9-3c1.2-0.6,2.5-0.4,3.5,0.4l27.1,21.6l27-21.6
		c1-0.8,2.4-1,3.5-0.4c1.2,0.6,1.9,1.7,1.9,3v46.4C353.2,664.4,351.7,665.9,349.9,665.9z"/>
	<path fill="#F1F2F2" d="M417,635.7c1.1-2.7,1.8-4.9,1.8-8c0-8.3-6.7-15-15-15h-35c-1.9,0-3.4,1.5-3.4,3.4v46.4
		c0,1.9,1.5,3.4,3.4,3.4h46.8l0,0c8.3,0,15-6.7,15-15C430.5,643,424.7,637.7,417,635.7z M403.8,619.5c4.6,0,8.3,3.7,8.3,8.3
		s-3.7,8.3-8.3,8.3h-31.7v-16.5L403.8,619.5z M415.5,659.3h-43.4v-16.5h31.7h11.7c4.6,0,8.3,3.7,8.3,8.3
		C423.8,655.6,420.1,659.3,415.5,659.3z"/>
</g>
<g>
	<path fill="#231F20" d="M921.6,607.1c-2.5-2.3-7.4-5-14.6-8.3c-7.3-3.4-11.8-6-13.6-8.1c-1.7-2.1-2.6-4.6-2.6-7.5
		c0-3.3,1.1-6,3.3-8.1s5.4-3.3,9.7-3.3c4.1,0,8.8,1.2,14,3.6l2.5,1c0.1,0,0.4-0.1,0.8-0.2c0.4-0.1,0.7-0.5,0.9-1.1l2.9-6.2
		c0.2-0.4,0.3-0.9,0.2-1.4s-0.6-1-1.5-1.5s-2.3-1.1-4.2-1.9c-1.9-0.7-3.5-1.3-4.7-1.6c-4.3-1.1-8.3-1.7-11.9-1.7
		c-7.5,0-13.4,2.1-18,6.5c-4.6,4.3-6.8,9.9-6.8,16.6c0,6.5,2.1,11.7,6.6,15.7c2.4,2.1,7.2,4.9,14.7,8.4c6.1,2.8,10,4.9,11.8,6.4
		c3,2.4,4.4,5.3,4.4,8.9c0,8.1-4.6,12.2-13.8,12.2c-2.7,0-5.6-0.4-8.6-1.1c-3.1-0.7-5.7-1.6-7.9-2.8c-1-0.5-2.2-1-3.6-1.7
		c-0.4-0.1-1-0.2-1.5-0.4c-0.5,0-0.8,0.3-1,0.8l-3.2,6.8l-0.1,1.1c0,0.6,0.4,1.2,1.4,1.9c0.4,0.3,0.9,0.6,1.5,0.8
		c2.9,1.3,6.3,2.6,10.4,3.7c4.1,1.1,8.3,1.7,12.5,1.7c7.3,0,13.5-1.9,18.6-5.9c5.6-4.4,8.4-10.2,8.4-17.6
		C928.3,616.5,926.1,611.2,921.6,607.1z"/>
	<path fill="#231F20" d="M1526.7,560.9c-3.9,0-7.9,0.7-11.9,2.1c-5.1,1.9-10.1,5.1-15,9.4v-48.1c0-1.5-0.4-2.2-1.2-2.2h-1.5
		l-8.9,2.2c-0.9,0.2-1.3,0.9-1.3,2v116c0,1.4,0.7,2.1,2,2.1h8.8c1.3,0,2-0.7,2-2.1v-59.7c2.7-2.6,5.7-4.8,9-6.6
		c4.5-2.5,8.9-3.8,13.4-3.8c5.1,0,8.4,1.8,10.1,5.4c0.9,1.9,1.3,4.7,1.3,8.2v56.4c0,1.4,0.7,2.1,2.1,2.1h8.8c1.3,0,2-0.7,2-2.1
		v-56.1c0-7.3-0.8-12.6-2.4-16C1541.2,564,1535.3,560.9,1526.7,560.9z"/>
	<path fill="#231F20" d="M866.9,428.5c-6-5.8-13.4-8.8-22.2-8.8c-8.9,0-16.4,3-22.4,8.8c-7.5,7.4-11.3,18.8-11.3,34.1
		c0,15.2,3.9,26.6,11.5,34.1c6,5.9,13.4,8.8,22.2,8.8c8.9,0,16.4-2.9,22.3-8.8c7.5-7.4,11.3-18.8,11.3-34.1
		C878.4,447.4,874.6,436.1,866.9,428.5z M861.7,482.2c-3.2,8.6-8.8,12.8-16.9,12.8c-6.4,0-11.4-2.7-14.8-8
		c-3.3-5.3-5.1-13.4-5.1-24.3c0-7.9,1-14.5,2.8-19.6c3.2-8.6,8.8-12.8,17-12.8c6.4,0,11.3,2.6,14.7,8c3.4,5.3,5.1,13.5,5.1,24.4
		C864.6,470.5,863.6,477,861.7,482.2z"/>
	<path fill="#231F20" d="M965.4,563.2h-23.8c-1.4,0-2.1,0.7-2.1,2v6.4c0,1.4,0.7,2.1,2.1,2.1h13.2v68.5c0,1.4,0.7,2.1,2,2.1h8.8
		c1.4,0,2-0.7,2-2.1v-76.5C967.6,564.1,966.8,563.2,965.4,563.2z"/>
	<path fill="#231F20" d="M1687.4,560.9c-8.9,0-16.4,2.9-22.3,8.8c-7.6,7.4-11.3,18.8-11.3,34.1c0,15.2,3.9,26.5,11.5,34.1
		c6,5.8,13.3,8.8,22.1,8.8c8.9,0,16.4-2.9,22.4-8.8c7.5-7.4,11.3-18.8,11.3-34.1c0-15.2-3.9-26.6-11.5-34.1
		C1703.6,563.7,1696.2,560.9,1687.4,560.9z M1704.3,623.3c-3.2,8.6-8.9,12.8-17,12.8c-6.4,0-11.4-2.7-14.7-8
		c-3.3-5.4-5.1-13.5-5.1-24.4c0-7.9,1-14.4,2.9-19.6c3.2-8.5,8.8-12.8,16.9-12.8c6.4,0,11.3,2.7,14.7,8c3.4,5.3,5.1,13.5,5.1,24.4
		C1707.2,611.6,1706.2,618.2,1704.3,623.3z"/>
	<path fill="#231F20" d="M751.1,583.6c5.8-3,10-6.8,12.7-11.4c2.7-4.5,4.1-9.9,4.1-16.1c0-11.6-4.1-19.4-12.2-23.6
		c-4.9-2.6-12.1-3.9-21.5-3.9h-26.4c-1.4,0-2,0.7-2,2v111.6c0,1.4,0.7,2.1,2,2.1h23.3c7.7,0,13.7-0.5,18.2-1.3
		c4.4-0.9,8.3-2.6,11.5-5.1c3.1-2.6,5.7-5.8,7.6-9.8c2.4-4.9,3.5-10.3,3.5-16.2c0-8.2-2.1-14.8-6.5-19.7
		C761.8,588,757,585.1,751.1,583.6z M719.6,540.4h14.2c5.6,0,9.8,0.9,12.5,2.5c4.2,2.6,6.3,7.5,6.3,14.7c0,9.2-2.8,15.5-8.5,18.9
		c-3.4,2-8,3-13.9,3h-10.6V540.4z M751.2,627.3c-3.7,3.4-9.1,5.2-16.5,5.2h-15v-41.6h14.2c7.6,0,13.3,1.9,17.1,5.6
		c3.8,3.7,5.8,8.9,5.8,15.7C756.7,618.8,754.8,623.9,751.2,627.3z"/>
	<path fill="#231F20" d="M1774.9,641.6l-2.4-6.6l-0.7-1l-2.4,0.7c-1,0.4-2.1,0.8-3.2,1.1c-1,0.3-2.2,0.4-3.4,0.4
		c-1.6,0-3-0.4-4.4-1.1c-1.4-0.7-2.3-1.9-2.6-3.5c-0.4-1.7-0.6-3.4-0.6-5.3v-6v-96.1c0-1.5-0.4-2.2-1.2-2.2h-1.6l-8.8,2.2
		c-0.9,0.2-1.3,0.9-1.3,2v92.9c0,1.3,0,3.7,0.2,7.1c0.1,3.5,0.3,5.8,0.5,7c0.7,4.1,2.2,7.1,4.6,9.2c1.6,1.3,3.5,2.4,5.9,3.1
		c2.4,0.7,4.8,1.1,7.1,1.1c1.8,0,4.1-0.3,6.9-0.8c2.7-0.6,5-1.3,6.7-2.2C1775,643,1775.2,642.4,1774.9,641.6z"/>
	<path fill="#231F20" d="M781.2,387.5h-11c-0.8,0-1.4,0.6-1.9,2l-20.1,58c-0.4,1.3-0.9,2.7-1.2,4.1s-0.8,3.5-1.3,6.3
		c-0.1-1.5-0.4-3.4-0.9-5.6s-1-3.8-1.3-4.8l-19.9-58c-0.3-1.4-0.9-2-1.8-2h-11c-1.4,0-2,0.6-2,2l-6.4,111.6c0,1.4,0.7,2,2,2h9.8
		c1.4,0,2.1-0.6,2.1-2l2.6-86.8v-4.9c0-1.8,0.1-3.1,0.1-3.9c0.2,1.5,0.5,3.1,0.8,4.9s0.7,3.5,1.3,5l19.6,58.8
		c0.5,1.2,1.3,1.9,2.6,1.9h5c1.3,0,2.1-0.6,2.6-1.9l20.4-58.8c0.8-3.2,1.6-6.5,2.4-9.9c-0.1,1.5-0.2,2.9-0.2,4.4v4.4l2.7,86.8
		c0,1.4,0.7,2,2.1,2h9.8c1.3,0,2-0.6,2-2l-6.6-111.6C783.2,388.1,782.5,387.5,781.2,387.5z"/>
	<path fill="#231F20" d="M857.2,635.9c-0.6-1.2-1.1-2.2-1.4-3c-0.9-2.5-1.3-4.7-1.3-6.8v-63.8c-0.3-0.9-0.7-1.5-1.2-1.5h-1.4
		l-9.1,2.1c-0.8,0.3-1.1,1-1.1,2v61.6c-3.1,2.4-6.2,4.3-9.4,5.8c-3.9,1.9-7.5,2.9-10.8,2.9c-3.7,0-6.7-1-8.9-2.9
		c-2.7-2.3-4.1-5.9-4.1-10.8v-59.3c-0.4-0.9-0.7-1.5-1.1-1.5H806l-9.2,2.1c-0.8,0.3-1.2,1-1.2,2V621c0,7.6,1.2,13.2,3.7,17.1
		c3.6,5.5,10.1,8.2,19.4,8.2c4.4,0,8.5-0.7,12.4-2.2c3.8-1.5,8.1-4.1,12.7-7.8l0.6,1.3l2.8,5.9c1.4,2.4,2.8,3.1,4.3,2.2l6.8-4.2
		c0.9-0.4,1.3-0.9,1.3-1.4c-0.4-0.8-0.8-1.5-1-2C858.2,638,857.8,637.1,857.2,635.9z"/>
	<path fill="#231F20" d="M939,466c-2.5-2.2-7.4-5.1-14.6-8.4c-7.3-3.3-11.8-6-13.6-8.1s-2.6-4.6-2.6-7.5c0-3.3,1.1-5.9,3.3-8.1
		s5.4-3.2,9.7-3.2c4.2,0,8.8,1.2,14,3.5l2.5,1c0.2,0,0.4,0,0.8-0.2c0.4-0.1,0.7-0.4,0.9-1l2.9-6.3c0.2-0.4,0.3-0.9,0.2-1.4
		s-0.6-1-1.5-1.6c-0.9-0.5-2.3-1.1-4.3-1.8c-1.9-0.7-3.4-1.3-4.7-1.6c-4.3-1.1-8.3-1.7-11.8-1.7c-7.5,0-13.5,2.2-18,6.5
		c-4.6,4.4-6.8,9.9-6.8,16.7c0,6.5,2.2,11.7,6.6,15.7c2.3,2.1,7.3,4.9,14.7,8.4c6,2.8,10,4.9,11.8,6.4c2.9,2.3,4.4,5.4,4.4,9
		c0,8.1-4.6,12.2-13.9,12.2c-2.7,0-5.6-0.4-8.7-1.1c-3-0.8-5.7-1.7-7.9-2.8c-1-0.4-2.2-1-3.5-1.7c-0.5-0.1-1-0.2-1.6-0.3
		c-0.5,0-0.8,0.3-1,0.8l-3.3,6.8l-0.1,1.2c0,0.5,0.4,1.1,1.3,1.8c0.4,0.3,0.9,0.6,1.5,0.9c2.8,1.4,6.3,2.6,10.4,3.7
		c4.1,1.2,8.2,1.7,12.5,1.7c7.3,0,13.5-2,18.6-5.9c5.6-4.4,8.4-10.2,8.4-17.5C945.7,475.4,943.5,470.1,939,466z"/>
	<path fill="#231F20" d="M1201.4,607.1c-2.5-2.3-7.4-5-14.6-8.3c-7.3-3.4-11.8-6-13.5-8.1c-1.8-2.1-2.6-4.6-2.6-7.5
		c0-3.3,1.1-6,3.3-8.1c2.2-2.1,5.5-3.3,9.8-3.3c4.2,0,8.8,1.2,14,3.6l2.6,1c0.1,0,0.4-0.1,0.7-0.2c0.4-0.1,0.7-0.5,0.9-1.1l2.9-6.2
		c0.2-0.4,0.3-0.9,0.1-1.4c-0.1-0.5-0.6-1-1.5-1.5s-2.3-1.1-4.2-1.9c-2-0.7-3.5-1.3-4.7-1.6c-4.3-1.1-8.3-1.7-11.9-1.7
		c-7.4,0-13.4,2.1-18,6.5c-4.5,4.3-6.8,9.9-6.8,16.6c0,6.5,2.1,11.7,6.5,15.7c2.4,2.1,7.3,4.9,14.7,8.4c6,2.8,10,4.9,11.9,6.4
		c2.9,2.4,4.4,5.3,4.4,8.9c0,8.1-4.6,12.2-13.9,12.2c-2.7,0-5.5-0.4-8.6-1.1c-3-0.7-5.7-1.6-7.9-2.8c-1-0.5-2.2-1-3.6-1.7
		c-0.5-0.1-1-0.2-1.6-0.4c-0.4,0-0.8,0.3-1,0.8l-3.2,6.8l-0.2,1.1c0,0.6,0.5,1.2,1.4,1.9c0.5,0.3,0.9,0.6,1.6,0.8
		c2.8,1.3,6.3,2.6,10.4,3.7c4.1,1.1,8.2,1.7,12.4,1.7c7.3,0,13.5-1.9,18.6-5.9c5.6-4.4,8.5-10.2,8.5-17.6
		C1208.2,616.5,1205.9,611.2,1201.4,607.1z"/>
	<path fill="#231F20" d="M1213.4,423.4l-8.4-2.4c-1.1-0.3-1.8,0.2-2.2,1.6l-14.3,57.6c-0.1,0.3-0.3,1.1-0.7,2.4
		c-0.3,1.3-0.6,2.6-0.7,4.2l-1.2-6.6l-13.9-56.4c-0.1-0.8-0.4-1.2-0.8-1.3c-0.4-0.1-0.8-0.3-1.3-0.3h-6.7c-1,0-1.8,0.6-2.1,1.7
		L1145,478c-0.3,1.2-0.6,2.2-0.8,3c-0.2,0.7-0.6,2.8-1.3,6.3l-1.7-9.3l-12.2-55.4l-0.5-1.3c-0.3-0.3-0.9-0.4-1.7-0.2l-8.5,2.4
		c-0.7,0.3-1,0.6-1,1.2l0.3,1.6l19.1,76.4c0.3,1.2,1,1.7,1.9,1.7h6.8c0.7,0,1.1-0.2,1.3-0.6c0.2-0.3,0.4-0.7,0.5-1.2l15.9-51.3
		c0.5-1.9,1-3.7,1.4-5.4c0.4-1.8,0.9-4.1,1.5-7.3c0,2.6,0.2,4.8,0.5,6.7c0.3,2,0.8,4,1.4,6.1l13.3,51.1c0.4,1.2,1.1,1.7,2.1,1.7h6.8
		c1,0,1.7-0.6,2-1.7l22.2-77C1214.6,424.4,1214.3,423.7,1213.4,423.4z"/>
	<path fill="#231F20" d="M1252.6,598.8c-7.3-3.4-11.8-6-13.5-8.1c-1.8-2.1-2.7-4.6-2.7-7.5c0-3.3,1.1-6,3.3-8.1
		c2.2-2.1,5.4-3.3,9.7-3.3c4.2,0,8.9,1.2,14,3.6l2.5,1c0.1,0,0.4-0.1,0.8-0.2c0.4-0.1,0.7-0.5,0.9-1.1l2.9-6.2
		c0.2-0.4,0.3-0.9,0.2-1.4c-0.1-0.5-0.6-1-1.6-1.5c-0.9-0.5-2.3-1.1-4.2-1.9c-1.9-0.7-3.4-1.3-4.7-1.6c-4.3-1.1-8.2-1.7-11.8-1.7
		c-7.5,0-13.5,2.1-18,6.5c-4.6,4.3-6.9,9.9-6.9,16.6c0,6.5,2.2,11.7,6.6,15.7c2.4,2.1,7.3,4.9,14.7,8.4c6.1,2.8,10.1,4.9,11.8,6.4
		c3,2.4,4.4,5.3,4.4,8.9c0,8.1-4.6,12.2-13.9,12.2c-2.7,0-5.6-0.4-8.6-1.1c-3.1-0.7-5.7-1.6-8-2.8c-1-0.5-2.2-1-3.5-1.7
		c-0.4-0.1-1-0.2-1.5-0.4c-0.5,0-0.8,0.3-1,0.8l-3.2,6.8l-0.2,1.1c0,0.6,0.4,1.2,1.4,1.9c0.4,0.3,1,0.6,1.5,0.8
		c2.9,1.3,6.3,2.6,10.4,3.7c4.1,1.1,8.2,1.7,12.4,1.7c7.4,0,13.5-1.9,18.6-5.9c5.6-4.4,8.4-10.2,8.4-17.6c0-6.6-2.3-12-6.7-16
		C1264.7,604.9,1259.8,602.1,1252.6,598.8z"/>
	<path fill="#231F20" d="M1379,587.4c-1.9-1.5-4-2.9-6.2-4.2c-2.2-1.4-5.1-3-8.7-4.9c-9.2-4.7-14.9-8.7-17.3-12
		c-2.5-3.3-3.6-7-3.6-11.3c0-5.1,1.6-9.1,4.8-12.3c3.2-3.1,7.7-4.6,13.3-4.6c4.2,0,8.3,0.7,12.4,2.2c1.6,0.6,4.4,1.9,8.4,3.9
		c1.6,0.8,2.5,1.2,2.9,1.2c0.1,0,0.3-0.1,0.6-0.4c0.3-0.2,0.6-0.6,0.9-1.2l2.9-7.2c0.6-1.4-0.2-2.6-2.2-3.8c-4.2-2.2-8.6-3.9-13.2-5
		c-4.7-1.1-9-1.6-13.2-1.6c-10.4,0-18.6,3.1-24.6,9.2c-5.5,5.8-8.3,12.8-8.3,21c0,6.4,1.7,12,5,16.7s10.6,10.2,21.7,16.4
		c8.1,4.5,13.3,7.7,15.4,9.6c4.9,4.4,7.3,9.7,7.3,16c0,5.1-1.4,9.4-4.3,13c-3.7,4.3-8.9,6.5-15.9,6.5c-3.4,0-7.2-0.6-11.5-1.9
		c-4.3-1.2-8.4-2.8-12.4-4.9c-1.7-1-2.6-1.5-2.9-1.6s-0.6-0.1-0.8-0.1c-0.2,0.1-0.5,0.2-0.8,0.3c-0.3,0.2-0.5,0.6-0.7,1.1l-3,7
		l-0.4,1.8c0,0.4,0.3,0.9,0.9,1.2c0.7,0.3,1.3,0.7,2.1,1c4.6,2.3,9.6,4.2,14.9,5.7c5.3,1.4,10.4,2.1,15.2,2.1
		c11,0,19.8-3.4,26.2-10.3c5.8-6.1,8.7-13.7,8.7-22.8C1392.6,603.2,1388,594.5,1379,587.4z"/>
	<path fill="#231F20" d="M1111.4,560.9c-10,0-18.2,3.8-24.5,11.4c-6.2,7.6-9.4,18.1-9.4,31.5c0,15.2,4.1,26.5,12.2,33.9
		c6.5,6,14.7,9,24.7,9c3.7,0,7.1-0.4,10.1-1.2s5.9-1.8,8.6-3.2c2.7-1.3,4.5-2.2,5.3-2.8c0.9-0.6,1.3-1.1,1.3-1.6l-0.2-1l-3.1-7.6
		c0-0.2-0.4-0.5-1.2-0.9l-2.1,0.9c-3.5,2-6.6,3.5-9.4,4.5c-2.8,0.9-5.9,1.4-9.1,1.4c-6.3,0-11.5-2.2-15.9-6.8
		c-5-5.1-7.5-12.2-7.5-21.3v-0.8h48.5c1.2,0,1.9-1,1.9-2.8v-0.9c0-15.6-3.4-27-10-33.9C1126.8,563.5,1120,560.9,1111.4,560.9z
		 M1091.4,596c0-8.4,2.1-14.8,6.1-19.2c3.3-3.6,7.5-5.4,12.7-5.4c3.1,0,6.1,0.8,8.7,2.4c2.7,1.5,4.8,4.2,6.3,7.9
		c1.2,2.7,1.9,5.3,2.2,7.9c0.4,2.6,0.5,4.7,0.5,6.4L1091.4,596L1091.4,596z"/>
	<path fill="#231F20" d="M1463.7,567.9c-6.6-4.7-13.9-7.1-21.8-7.1c-9.4,0-17.1,3.6-23.3,10.8c-7.1,8.1-10.5,19.3-10.5,33.8
		c0,15.1,3.5,26.2,10.7,33.1c5.6,5.4,13.1,8.1,22.3,8.1c3.7,0,7.1-0.4,10.2-1.2c3-0.8,5.9-1.8,8.6-3.2c2.7-1.3,4.5-2.2,5.4-2.8
		c0.8-0.6,1.2-1.1,1.2-1.6l-0.1-1l-3.1-7.6c0-0.2-0.4-0.5-1.2-0.9l-2,0.9c-3.9,2.1-6.9,3.5-8.8,4.2c-3.2,1.2-6.4,1.7-9.8,1.7
		c-8,0-13.6-3.7-16.6-11.1c-1.9-4.6-2.9-11.4-2.9-20.4c0-10.4,1.7-18.2,5.3-23.6c3.5-5.3,8.7-8,15.6-8c2.9,0,5.7,0.6,8.3,1.8
		c2.6,1.2,5.3,3,8.3,5.3c1,0.7,1.7,1.2,2.1,1.2l0.8-0.7l4.1-7.6c0.4-0.6,0.4-1.1,0.1-1.7C1466.2,569.9,1465.3,569.1,1463.7,567.9z"
		/>
	<path fill="#231F20" d="M1037.1,560.9c-5.4,0-10.7,1.2-16.1,3.7c-4.4,2-8.4,4.6-12,7.8c-0.2-1.4-0.6-3-1.1-4.9
		c-0.5-1.8-1-3.3-1.6-4.3c-1.1-2-2.2-2.6-3.6-1.8l-7.9,4.3c-0.1,0.1-0.3,0.3-0.5,0.4c-0.2,0.1-0.4,0.3-0.4,0.7c0,0.1,0,0.4,0.1,0.7
		c0.1,0.4,0.3,1,0.8,1.8l0.5,1c0.8,1.7,1.3,3.2,1.7,4.5c0.3,1.4,0.4,3.6,0.4,6.9v60.6c0,1.4,0.7,2.1,2,2.1h8.8c1.3,0,2-0.7,2-2.1
		v-59.7c2.8-2.7,6.1-5,9.8-6.9c4.4-2.3,8.6-3.4,12.5-3.4c4.7,0,7.8,1.7,9.4,5.1c1,1.9,1.6,4.8,1.6,8.6v56.4c0,1.4,0.7,2.1,2,2.1h8.8
		c1.4,0,2.1-0.7,2.1-2.1v-56.1c0-7.4-0.8-12.8-2.4-16.2C1051.2,563.9,1045.6,560.9,1037.1,560.9z"/>
	<path fill="#231F20" d="M1005.3,504.4c3-0.8,5.9-1.8,8.6-3.1c2.7-1.3,4.5-2.3,5.3-2.8s1.3-1,1.3-1.5l-0.2-1l-3.1-7.6
		c0-0.3-0.4-0.5-1.2-0.9l-2,0.9c-3.9,2.1-6.9,3.5-8.8,4.2c-3.2,1.1-6.4,1.6-9.8,1.6c-8,0-13.5-3.7-16.6-11.1
		c-1.9-4.6-2.9-11.4-2.9-20.4c0-10.4,1.8-18.2,5.3-23.6c3.5-5.3,8.8-8,15.6-8c2.9,0,5.7,0.6,8.3,1.8c2.6,1.2,5.3,3,8.3,5.3
		c1,0.8,1.7,1.2,2,1.2l0.9-0.6l4.1-7.6c0.3-0.6,0.4-1.1,0.1-1.7c-0.3-0.6-1.2-1.4-2.8-2.5c-6.6-4.7-13.9-7.1-21.8-7.1
		c-9.4,0-17.2,3.7-23.4,10.8c-7,8.1-10.5,19.4-10.5,33.8c0,15.2,3.6,26.3,10.7,33.2c5.7,5.3,13.1,8.1,22.4,8.1
		C998.9,505.5,1002.3,505.1,1005.3,504.4z"/>
	<path fill="#231F20" d="M1602.8,560.9c-8.9,0-16.4,2.9-22.4,8.8c-7.5,7.4-11.3,18.8-11.3,34.1c0,15.2,3.8,26.5,11.5,34.1
		c6,5.8,13.4,8.8,22.2,8.8c8.9,0,16.3-2.9,22.4-8.8c7.5-7.4,11.3-18.8,11.3-34.1c0-15.2-3.9-26.6-11.6-34.1
		C1619,563.7,1611.6,560.9,1602.8,560.9z M1619.7,623.3c-3.2,8.6-8.8,12.8-16.9,12.8c-6.4,0-11.3-2.7-14.7-8
		c-3.4-5.4-5.1-13.5-5.1-24.4c0-7.9,1-14.4,2.9-19.6c3.2-8.5,8.8-12.8,16.9-12.8c6.4,0,11.3,2.7,14.7,8c3.4,5.3,5,13.5,5,24.4
		C1622.6,611.6,1621.7,618.2,1619.7,623.3z"/>
	<path fill="#231F20" d="M1102.7,462.6c0-15.2-3.8-26.6-11.5-34.1c-6-5.8-13.3-8.8-22.2-8.8c-8.9,0-16.4,3-22.3,8.8
		c-7.5,7.4-11.3,18.8-11.3,34.1c0,15.2,3.9,26.6,11.5,34.1c5.9,5.9,13.3,8.8,22.1,8.8c8.9,0,16.4-2.9,22.3-8.8
		C1098.9,489.3,1102.7,477.9,1102.7,462.6z M1086,482.2c-3.2,8.6-8.8,12.8-16.9,12.8c-6.4,0-11.4-2.7-14.8-8
		c-3.3-5.3-5.1-13.4-5.1-24.3c0-7.9,1-14.5,2.9-19.6c3.2-8.6,8.8-12.8,16.9-12.8c6.5,0,11.3,2.6,14.7,8c3.4,5.3,5.1,13.5,5.1,24.4
		C1088.9,470.5,1087.9,477,1086,482.2z"/>
	<circle fill="#231F20" cx="960.3" cy="533.5" r="10.5"/>
</g>
<g>
	<path fill="#231F20" d="M914.4,714.3c-5.8,0-10.5,2.2-14.2,6.6c-3.6,4.4-5.4,10.5-5.4,18.3c0,8.8,2.4,15.3,7.1,19.7
		c3.8,3.4,8.6,5.2,14.3,5.2c2.1,0,4.1-0.2,5.9-0.7c1.7-0.4,3.4-1.1,4.9-1.9c1.6-0.7,2.6-1.3,3.1-1.6s0.8-0.6,0.8-0.8l-0.1-0.6
		L929,754c0-0.2-0.2-0.3-0.7-0.5l-1.2,0.5c-2,1.2-3.9,2.1-5.5,2.6c-1.6,0.6-3.5,0.8-5.4,0.8c-3.6,0-6.7-1.3-9.2-3.9
		c-2.8-2.9-4.3-7-4.3-12.3v-0.5H931c0.7,0,1.1-0.6,1.1-1.7v-0.5c0-9-1.9-15.6-5.8-19.6C923.3,715.9,919.4,714.3,914.4,714.3z
		 M902.9,734.7c0-4.9,1.2-8.6,3.5-11.2c1.9-2.1,4.4-3.2,7.4-3.2c1.9,0,3.6,0.5,5.1,1.4s2.8,2.5,3.7,4.6c0.6,1.6,1.1,3.1,1.3,4.7
		c0.2,1.5,0.3,2.7,0.3,3.7H902.9z"/>
	<path fill="#231F20" d="M883.5,756.8c-0.5-1.5-0.8-3.2-0.9-4.7c0-1.6,0-3.2,0-4.9v-54.1c0-0.9-0.2-1.3-0.7-1.3H881l-5.1,1.3
		c-0.5,0.1-0.7,0.5-0.7,1.2v23.4c-2.2-1.4-4.5-2.5-6.9-2.9c-1.3-0.3-2.6-0.4-4.1-0.4c-4.3,0-8,1.4-10.9,4.2
		c-4.4,4.2-6.6,11.3-6.6,21.4c0,9.4,2,16.1,6.1,20.2c2.7,2.6,6,4,10,4c2.4,0,5-0.6,7.5-1.9c1.8-0.9,3.5-1.9,5.4-3.3l0.8-0.6
		c0.4,1.7,1,3.1,1.8,4.4c0.8,1.3,1.6,1.7,2.5,1.2l3.9-2.4c0.5-0.4,0.9-0.7,0.9-0.9c0-0.1-0.3-0.5-0.7-1.3
		C884.3,758.5,883.9,757.7,883.5,756.8z M875.1,751.7l-1.8,1.3c-2.1,1.5-3.5,2.4-4.1,2.8c-2.2,1.2-4.1,1.7-5.9,1.7
		c-3.8,0-6.3-2.1-7.5-6.4c-0.7-2.5-1.1-6.5-1.1-11.9c0-5.7,0.5-9.8,1.6-12.4c1.6-3.9,4.6-5.9,9-5.9c1.5,0,3.1,0.3,4.8,0.9
		c1.7,0.6,3.4,1.3,5.1,2.3L875.1,751.7L875.1,751.7z"/>
	<path fill="#231F20" d="M966.8,715c-0.7-0.3-1.4-0.5-1.8-0.6c-0.5-0.1-1.1-0.2-1.9-0.2c-2.2,0-4.3,0.8-6.3,2.4
		c-1.1,0.8-2.4,2.2-4.3,4.3l-1.3,1.6c-0.2-1.2-0.5-2.3-0.9-3.5s-0.9-2.2-1.4-3.2c-0.6-1-1.2-1.5-1.9-1.6l-0.7,0.4l-4,2.5
		c-0.3,0.2-0.3,0.5-0.3,0.8c0,0.2,0.1,0.6,0.3,1.1l0.7,1.3c0.6,1.3,1.1,2.4,1.3,3.4s0.3,2.3,0.3,4v33.6c0,0.8,0.4,1.2,1.2,1.2h5.1
		c0.8,0,1.2-0.4,1.2-1.2v-32.2l1.6-2c1.3-1.7,2.5-2.9,3.5-3.7c1.6-1.4,3.1-2.1,4.4-2.1c0.7,0,1.1,0.1,1.6,0.3
		c0.4,0.2,0.8,0.4,1.3,0.6c0.1-0.1,0.2-0.2,0.3-0.2c0.1-0.1,0.2-0.2,0.3-0.3l2.3-5.4C967.9,715.8,967.7,715.3,966.8,715z"/>
	<path fill="#231F20" d="M749,755.8h-24.9v-59c0-0.8-0.4-1.2-1.2-1.2h-5.7c-0.8,0-1.2,0.4-1.2,1.2v64.7c0,0.8,0.4,1.2,1.2,1.2h29.6
		c0.8,0,1.3-0.4,1.5-1.1l1.6-4.3c0.1-0.6,0.1-1,0-1.2C749.9,756,749.6,755.9,749,755.8z"/>
	<path fill="#231F20" d="M774.2,714.3c-5.8,0-10.5,2.2-14.1,6.6c-3.6,4.4-5.5,10.5-5.5,18.3c0,8.8,2.4,15.3,7,19.7
		c3.8,3.4,8.6,5.2,14.3,5.2c2.2,0,4.1-0.2,5.9-0.7c1.8-0.4,3.4-1.1,5-1.9c1.6-0.7,2.6-1.3,3.1-1.6s0.7-0.6,0.7-0.8l-0.1-0.6
		l-1.7-4.4c0-0.2-0.2-0.3-0.7-0.5L787,754c-2.1,1.2-3.8,2.1-5.5,2.6c-1.6,0.6-3.3,0.8-5.2,0.8c-3.6,0-6.6-1.3-9.2-3.9
		c-2.9-2.9-4.3-7-4.3-12.3v-0.5h28.1c0.8,0,1.1-0.6,1.1-1.7v-0.5c0-9-1.9-15.6-5.8-19.6C783.2,715.9,779.2,714.3,774.2,714.3z
		 M762.6,734.7c0-4.9,1.2-8.6,3.6-11.2c1.9-2.1,4.3-3.2,7.3-3.2c1.8,0,3.5,0.5,5,1.4s2.8,2.5,3.7,4.6c0.7,1.6,1.1,3.1,1.3,4.7
		c0.2,1.5,0.3,2.7,0.3,3.7H762.6z"/>
	<path fill="#231F20" d="M835.1,756.9c-0.8-1.8-1.2-4.2-1.2-7v-22.2c0-8.9-4.9-13.4-14.8-13.4c-4.6,0-9.1,1-13.4,2.8
		c-0.6,0.3-1.1,0.5-1.6,0.8s-0.6,0.5-0.6,0.9l0.1,0.7l1.4,3.9c0,0.1,0.1,0.2,0.2,0.3c0.1,0.2,0.3,0.2,0.6,0.2l1.5-0.6
		c3.5-1.7,7.1-2.6,10.9-2.6c3.4,0,5.7,1,6.9,2.9c0.9,1.3,1.3,3.2,1.3,5.9v3.5h-0.3c-1.8,0-3.7,0.1-5.8,0.4c-2.1,0.3-4.1,0.6-5.8,1
		c-4.9,1.1-8.5,3.3-10.9,6.3c-2,2.5-2.9,5.6-2.9,9.3c0,3.9,1,7,3,9.5c2.3,2.8,5.8,4.3,10.2,4.3c3.1,0,5.9-0.8,8.4-2.2
		c1.4-0.9,3.1-2.2,4.8-3.9l0.4-0.4v0.3c0.4,1.2,0.7,2.1,0.9,2.6s0.5,1.1,1,1.8c0.8,1.3,1.2,1.9,1.6,1.9c0.3,0,0.7-0.1,1-0.3l4.1-2.6
		c0.2,0,0.3-0.3,0.6-0.7l-0.4-0.8L835.1,756.9z M826.5,751.8l-0.6,0.6c-1.3,1.3-2.7,2.4-4.3,3.3c-2.3,1.5-4.5,2.1-6.3,2.1
		c-1.9,0-3.5-0.6-4.8-1.8c-1.6-1.5-2.4-3.5-2.4-6.2c0-2.8,1.1-5.1,3.1-6.9c2.9-2.5,7.8-3.7,14.9-3.7h0.3L826.5,751.8L826.5,751.8z"
		/>
	<path fill="#231F20" d="M1277.7,714.3c-5.8,0-10.5,2.2-14.2,6.6c-3.6,4.4-5.4,10.5-5.4,18.3c0,8.8,2.3,15.3,7,19.7
		c3.8,3.4,8.6,5.2,14.3,5.2c2.1,0,4.1-0.2,5.9-0.7c1.8-0.4,3.4-1.1,4.9-1.9c1.6-0.7,2.6-1.3,3.1-1.6s0.7-0.6,0.7-0.8l-0.1-0.6
		l-1.8-4.4c0-0.2-0.2-0.3-0.7-0.5l-1.1,0.5c-2,1.2-3.9,2.1-5.5,2.6c-1.6,0.6-3.4,0.8-5.3,0.8c-3.6,0-6.7-1.3-9.2-3.9
		c-2.9-2.9-4.3-7-4.3-12.3v-0.5h28.1c0.8,0,1.1-0.6,1.1-1.7v-0.5c0-9-1.9-15.6-5.8-19.6C1286.6,715.9,1282.6,714.3,1277.7,714.3z
		 M1266.1,734.7c0-4.9,1.2-8.6,3.5-11.2c1.9-2.1,4.3-3.2,7.3-3.2c1.9,0,3.5,0.5,5.1,1.4c1.5,0.9,2.7,2.5,3.6,4.6
		c0.7,1.6,1.1,3.1,1.3,4.7c0.2,1.5,0.3,2.7,0.3,3.7H1266.1z"/>
	<path fill="#231F20" d="M1234.6,714.3c-3.1,0-6.2,0.7-9.3,2.2c-2.6,1.2-4.9,2.7-7,4.5c-0.1-0.8-0.3-1.7-0.6-2.8
		c-0.3-1.1-0.6-1.9-0.9-2.5c-0.6-1.2-1.3-1.6-2.1-1.1l-4.6,2.5c0,0.1-0.1,0.2-0.2,0.2c-0.1,0.1-0.2,0.2-0.2,0.4
		c0,0.1,0.1,0.2,0.1,0.5c0,0.2,0.2,0.6,0.4,1l0.3,0.6c0.5,1,0.8,1.8,0.9,2.6c0.2,0.7,0.3,2.1,0.3,3.9v35.2c0,0.8,0.4,1.2,1.2,1.2
		h5.1c0.8,0,1.2-0.4,1.2-1.2v-34.6c1.7-1.6,3.5-2.9,5.7-4.1c2.5-1.3,5-1.9,7.2-1.9c2.7,0,4.5,1,5.5,2.9c0.5,1.1,0.9,2.8,0.9,5v32.7
		c0,0.8,0.4,1.2,1.1,1.2h5.1c0.8,0,1.2-0.4,1.2-1.2V729c0-4.3-0.5-7.4-1.4-9.4C1242.8,716,1239.5,714.3,1234.6,714.3z"/>
	<path fill="#231F20" d="M1196.9,695.6h-30.7c-0.8,0-1.2,0.4-1.2,1.2v64.7c0,0.8,0.4,1.2,1.2,1.2h30.3c0.8,0,1.2-0.4,1.2-1.2V757
		c0-0.7-0.4-1.2-1.2-1.2H1173V731h19.3c0.8,0,1.2-0.4,1.2-1.2v-4.5c0-0.8-0.4-1.2-1.2-1.2H1173v-21.7h21.9c0.7,0,1.2-0.3,1.3-0.9
		l1.7-5C1198.2,695.9,1197.9,695.6,1196.9,695.6z"/>
	<path fill="#231F20" d="M1330.1,715c-0.7-0.3-1.3-0.5-1.8-0.6s-1.1-0.2-1.9-0.2c-2.3,0-4.4,0.8-6.4,2.4c-1,0.8-2.4,2.2-4.2,4.3
		l-1.3,1.6c-0.2-1.2-0.5-2.3-0.9-3.5s-0.9-2.2-1.4-3.2c-0.6-1-1.2-1.5-1.8-1.6l-0.7,0.4l-3.9,2.5c-0.3,0.2-0.4,0.5-0.4,0.8
		c0,0.2,0.1,0.6,0.4,1.1l0.7,1.3c0.6,1.3,1.1,2.4,1.3,3.4c0.2,1,0.3,2.3,0.3,4v33.6c0,0.8,0.4,1.2,1.2,1.2h5.1
		c0.8,0,1.1-0.4,1.1-1.2v-32.2l1.6-2c1.4-1.7,2.6-2.9,3.6-3.7c1.7-1.4,3.1-2.1,4.4-2.1c0.6,0,1.1,0.1,1.6,0.3
		c0.4,0.2,0.8,0.4,1.3,0.6c0.1-0.1,0.2-0.2,0.3-0.2c0.1-0.1,0.2-0.2,0.3-0.3l2.4-5.4C1331.1,715.8,1330.9,715.3,1330.1,715z"/>
	<path fill="#231F20" d="M1421.2,717.5c0-0.1-0.2-0.3-0.6-0.5l-4.8-2h-1c-0.5,0-0.9,0.3-1,0.8L1404,753c-0.2,0.9-0.4,1.9-0.8,3.2
		c-0.4,1.2-0.6,2.5-0.9,3.6l-0.1-0.4c-0.1-0.4-0.2-1.1-0.5-2.2c-0.3-1.1-0.7-2.6-1.3-4.4l-12.3-37c-0.2-0.3-0.3-0.6-0.5-0.7
		c-0.2-0.1-0.4-0.1-0.4-0.1l-1.2,0.3l-0.9,0.4l-3.7,1.4c-0.6,0.2-0.8,0.7-0.6,1.5l15.4,43.1c0.2,0.6,0.6,0.8,1.3,0.8h3.5l-2,6.2
		c-1.3,3.8-2.8,6.3-4.5,7.5c-1,0.5-1.9,0.8-3,0.8c-1.3,0-2.6-0.3-4-0.9c-1.4-0.6-2.6-1.3-3.5-1.9c-0.3-0.2-0.7-0.5-1-0.7
		c-0.4-0.3-0.6-0.4-0.7-0.4c-0.2,0-0.5,0.1-0.7,0.5l-1.9,3.9c-0.1,0.4-0.1,0.7,0,1.1c0.1,0.3,0.4,0.6,0.7,0.8c0.9,0.6,2,1.2,3.1,1.6
		c1.1,0.6,2.2,0.9,3.2,1.2c1.8,0.6,3.5,0.8,5.2,0.8c2.2,0,4.2-0.4,6-1.4c2.3-1.2,4.2-3.1,5.6-5.8c1-2.1,2.3-5.2,3.6-9.3
		c0-0.2,0.8-2.8,2.3-7.7l12-40.1C1421.2,718.2,1421.3,717.7,1421.2,717.5z"/>
	<path fill="#231F20" d="M1368.8,714.5c-0.8-0.5-1.5-0.2-2.3,0.9c-0.2,0.3-0.7,1.4-1.2,3l-0.7-0.6c-1.5-1-3.2-1.8-5.1-2.5
		c-2-0.7-4-1-6.1-1c-5,0-9.1,1.7-12.2,5.3c-4,4.4-6,11.2-6,20.2c0,7.2,1.5,12.7,4.6,16.5c2.7,3.4,6.2,5.1,10.6,5.1
		c2.6,0,5.1-0.6,7.7-1.8c2-1,3.9-2.1,5.5-3.6l0.3,10.1c0,3.2-0.6,5.6-1.7,7.2c-1.5,2.3-4.2,3.3-8.1,3.3c-2,0-4.1-0.4-6.5-1.1
		c-2.4-0.7-4.2-1.3-5.2-1.9c-0.4-0.2-0.8-0.4-1.3-0.8c-0.1-0.1-0.4-0.1-0.7-0.1c-0.2,0-0.5,0.2-0.7,0.6l-1.7,3.7
		c0,0.2-0.1,0.5-0.3,0.9c0,0.3,0.2,0.6,0.7,1c0.5,0.3,0.9,0.6,1.5,1c1.7,1,3.9,1.8,6.5,2.4c2.6,0.5,5.2,0.8,7.8,0.8
		c5.2,0,9.3-1.4,12.3-4.1c3.3-3,4.9-7.4,4.9-13.1l-0.7-22.2v-16.5c0-1.3,0.2-2.7,0.8-4.2c0.5-1.5,1.1-2.9,1.8-4
		c0.1-0.2,0.3-0.6,0.5-1.2c-0.1-0.3-0.3-0.5-0.4-0.6L1368.8,714.5z M1363.1,749.9l-0.6,0.5c-1.8,1.3-3.7,2.3-5.6,3.2
		c-2,0.8-3.7,1.2-5.2,1.2c-2.7,0-4.7-1.1-6.1-3.1c-1.7-2.4-2.5-6.8-2.5-13.1c0-6,1-10.4,2.8-13.3c1.9-2.9,4.6-4.4,8.2-4.4
		c1.3,0,2.9,0.2,4.6,0.8c1.7,0.5,3,1,3.9,1.6l0.5,0.2L1363.1,749.9L1363.1,749.9z"/>
	<path fill="#231F20" d="M1036.7,714.3c-2.3,0-4.6,0.4-6.9,1.3c-2.9,1.1-5.8,2.9-8.7,5.4v-27.9c0-0.9-0.2-1.3-0.7-1.3h-0.9l-5.1,1.3
		c-0.5,0.1-0.8,0.5-0.8,1.1v67.3c0,0.8,0.4,1.2,1.2,1.2h5.1c0.8,0,1.2-0.4,1.2-1.2v-34.6c1.5-1.5,3.3-2.8,5.2-3.8
		c2.6-1.4,5.2-2.2,7.7-2.2c3,0,4.9,1.1,5.9,3.1c0.6,1.1,0.8,2.7,0.8,4.8v32.7c0,0.8,0.4,1.2,1.2,1.2h5.1c0.8,0,1.2-0.4,1.2-1.2V729
		c0-4.2-0.4-7.4-1.4-9.3C1045.1,716.1,1041.7,714.3,1036.7,714.3z"/>
	<path fill="#231F20" d="M1073.6,715.7h-13.8c-0.8,0-1.2,0.3-1.2,1.1v3.7c0,0.8,0.3,1.2,1.2,1.2h7.7v39.7c0,0.8,0.4,1.2,1.1,1.2h5.1
		c0.8,0,1.2-0.4,1.2-1.2v-44.3C1074.9,716.2,1074.5,715.7,1073.6,715.7z"/>
	<path fill="#231F20" d="M1112.2,714.3c-2.5,0-5,0.6-7.5,1.9c-1.8,0.8-3.5,2-5.4,3.3l-0.8,0.6c-0.3-1-0.7-2-1.1-3
		c-0.5-1-1-1.8-1.5-2.3s-1.1-0.6-1.7-0.2l-4.3,2.6c-0.1,0.1-0.2,0.2-0.3,0.2c-0.2,0.1-0.2,0.2-0.2,0.5c0,0.2,0.2,0.7,0.6,1.4
		c1.1,1.9,1.8,3.4,2,4.6c0.2,1.2,0.3,2.7,0.3,4.5v53.8c0,0.7,0.3,1,0.9,1h1.1l4.7-1.2c0.3-0.1,0.6-0.5,0.8-1.2v-20.1
		c1.2,0.8,2.4,1.4,3.7,2c2.3,0.9,4.6,1.4,7,1.4c4.5,0,8.2-1.4,11.1-4.2c4.3-4.1,6.5-11.1,6.5-20.9c0-9.6-2.1-16.5-6.3-20.7
		C1119.4,715.6,1116.1,714.3,1112.2,714.3z M1118.7,751.7c-1.4,3.8-4.2,5.7-8.5,5.7c-1.7,0-3.5-0.3-5.4-0.9
		c-1.9-0.6-3.6-1.4-4.9-2.3v-28.6c1.8-1.4,3.3-2.4,4.8-3.1c2.1-1.1,4.1-1.7,5.8-1.7c3.2,0,5.6,1.1,7.3,3.5c1.6,2.3,2.5,7.1,2.5,14.3
		C1120.3,744.8,1119.7,749,1118.7,751.7z"/>
	<path fill="#231F20" d="M997.4,741.1c-1.4-1.3-4.3-2.9-8.5-4.8c-4.2-2-6.8-3.5-7.8-4.7c-1.1-1.2-1.5-2.6-1.5-4.4
		c0-1.9,0.7-3.4,1.9-4.7c1.3-1.3,3.2-1.9,5.7-1.9c2.4,0,5.1,0.7,8.1,2.1l1.5,0.6c0.1,0,0.2,0,0.5-0.1c0.2-0.1,0.4-0.3,0.5-0.6
		l1.7-3.6c0.2-0.3,0.2-0.6,0.1-0.8c-0.1-0.3-0.4-0.6-0.9-0.9c-0.5-0.3-1.3-0.7-2.5-1c-1.1-0.4-2-0.8-2.7-0.9c-2.5-0.6-4.7-1-6.8-1
		c-4.3,0-7.8,1.3-10.5,3.8s-4,5.7-4,9.6c0,3.8,1.3,6.8,3.9,9.1c1.4,1.2,4.2,2.8,8.5,4.9c3.5,1.6,5.8,2.8,6.9,3.7
		c1.7,1.3,2.5,3.1,2.5,5.1c0,4.7-2.7,7-8.1,7c-1.5,0-3.2-0.2-5-0.6c-1.8-0.4-3.3-0.9-4.6-1.6c-0.6-0.3-1.3-0.6-2-1
		c-0.2-0.1-0.6-0.1-0.8-0.2c-0.3,0-0.5,0.2-0.6,0.5l-1.9,3.9l-0.2,0.7c0,0.4,0.3,0.7,0.8,1c0.3,0.2,0.6,0.4,0.9,0.5
		c1.6,0.8,3.6,1.5,6,2.2c2.4,0.6,4.8,1,7.2,1c4.2,0,7.8-1.1,10.8-3.5c3.2-2.5,4.9-5.9,4.9-10.1C1001.3,746.5,1000,743.5,997.4,741.1
		z"/>
	<path fill="#231F20" d="M1076.8,698.4c0-0.3,0-0.6-0.1-1c0-0.2-0.1-0.4-0.1-0.6c0-0.1,0-0.2-0.1-0.3c-0.1-0.3-0.2-0.6-0.4-0.9
		c0,0,0-0.1-0.1-0.1c-0.1-0.2-0.3-0.5-0.4-0.7s-0.3-0.3-0.4-0.5c0-0.1-0.1-0.1-0.1-0.2c-1.1-1.2-2.6-1.8-4.3-1.8l0,0l0,0l0,0
		c-1.7,0-3.1,0.6-4.3,1.8c-1.2,1.2-1.7,2.5-1.7,4.3c0,1.7,0.6,3.1,1.7,4.3c1.2,1.2,2.6,1.8,4.3,1.8c1.7,0,3.2-0.6,4.3-1.8
		c0.1-0.1,0.1-0.2,0.2-0.3s0.2-0.2,0.3-0.4c0.2-0.2,0.3-0.4,0.5-0.7c0-0.1,0.1-0.2,0.1-0.2c0.1-0.2,0.2-0.5,0.3-0.8
		c0.1-0.2,0.1-0.4,0.2-0.6c0-0.1,0.1-0.3,0.1-0.4C1076.7,699.1,1076.8,698.8,1076.8,698.4L1076.8,698.4L1076.8,698.4L1076.8,698.4z"
		/>
</g>
</svg>
