<?xml version="1.0" encoding="UTF-8"?>
<svg width="16px" height="16px" viewBox="0 0 16 16" version="1.1" xmlns="http://www.w3.org/2000/svg" xmlns:xlink="http://www.w3.org/1999/xlink">
    <!-- Generator: Sketch 40.3 (33839) - http://www.bohemiancoding.com/sketch -->
    <title>Shape</title>
    <desc>Created with Sketch.</desc>
    <defs></defs>
    <g id="editor" stroke="none" stroke-width="1" fill="none" fill-rule="evenodd">
        <g id="modal---formula" transform="translate(-219.000000, -220.000000)" fill="#000000">
            <path d="M231.056022,228.376471 L223.078431,220 L221.823529,221.317647 L223.97479,223.576471 L219.403361,228.376471 C218.865546,228.941176 218.865546,229.788235 219.403361,230.352941 L224.333333,235.529412 C224.602241,235.811765 224.960784,235.905882 225.319328,235.905882 C225.677871,235.905882 226.036415,235.811765 226.305322,235.529412 L231.235294,230.352941 C231.593838,229.882353 231.593838,228.941176 231.056022,228.376471 L231.056022,228.376471 Z M220.837535,229.411765 L225.140056,224.894118 L229.442577,229.411765 L220.837535,229.411765 L220.837535,229.411765 Z M233.207283,230.823529 C233.207283,230.823529 231.414566,232.894118 231.414566,234.117647 C231.414566,235.152941 232.221289,236 233.207283,236 C234.193277,236 235,235.152941 235,234.117647 C235,232.894118 233.207283,230.823529 233.207283,230.823529 L233.207283,230.823529 Z" id="Shape"></path>
        </g>
    </g>
</svg>