<?xml version="1.0" standalone="no"?>
<!DOCTYPE svg PUBLIC "-//W3C//DTD SVG 1.1//EN" "http://www.w3.org/Graphics/SVG/1.1/DTD/svg11.dtd" >
<svg>
<metadata>
Created by FontForge 20090622 at Wed Sep 23 13:03:52 2015
 By deploy user
Copyright (c) ParaType, Inc., 2005. All rights reserved. Officina is a registered trade mark of International Typeface Corporation.
</metadata>
<defs>
<font id="OfficinaSerifBookITC-Regular" horiz-adv-x="500" >
  <font-face 
    font-family="OfficinaSerifBookITC"
    font-weight="400"
    font-stretch="normal"
    units-per-em="1000"
    panose-1="2 6 5 6 4 5 5 2 2 4"
    ascent="800"
    descent="-200"
    x-height="480"
    cap-height="685"
    bbox="-365 -250 1047 912"
    underline-thickness="50"
    underline-position="-50"
    unicode-range="U+0020-U+F8FF"
  />
<missing-glyph horiz-adv-x="233" 
 />
    <glyph glyph-name="fi" unicode="fi" horiz-adv-x="593" 
d="M575 50v-38q0 -12 -12 -12h-219q-12 0 -12 12v38q0 12 12 12h72v356h-223v-356h70q12 0 12 -12v-38q0 -12 -12 -12h-202q-12 0 -12 12v38q0 12 12 12h56v356h-70q-7 0 -7 12v38q0 12 7 12h70v78q0 75 23 113q31 53 101 53q37 0 88 -21q16 -8 16 -14q0 -2 -5 -14l-14 -33
q-2 -6 -7 -6t-12 3q-40 18 -61 18q-23 0 -37 -14q-16 -17 -16 -86v-77h286q13 0 13 -15v-403h71q12 0 12 -12zM509 656q0 -25 -18 -43t-43 -18t-43 18t-18 43t18 43t43 18t43 -18t18 -43z" />
    <glyph glyph-name="fl" unicode="fl" horiz-adv-x="611" 
d="M410 179v456l-23 7q-67 20 -115 20q-41 0 -60.5 -19.5t-19.5 -67.5v-95h131q15 0 10 -14l-13 -39q-3 -9 -13 -9h-115v-356h70q12 0 12 -12v-38q0 -12 -12 -12h-202q-12 0 -12 12v38q0 12 12 12h56v356h-70q-7 0 -7 12v38q0 12 7 12h70v78q0 89 42 129q39 37 115 37
q60 0 122 -19l17 -5l59 21q4 2 12 2q3 0 3 -11v-565v-11q0 -23 0.5 -33.5t4.5 -24.5t13 -19.5t25 -5.5t41 9q3 1 6 2.5t5 1.5q4 0 7 -6l13 -42q3 -10 -11.5 -18t-34 -11t-37.5 -3q-37 0 -61 14.5t-33 33.5q-14 28 -14 145z" />
    <glyph glyph-name="afii10017small.var.accented" unicode="&#xf350;`" horiz-adv-x="527" 
d="M517 12q0 -12 -13 -12h-175q-12 0 -12 12v38q0 13 12 13h48l-29 95h-173l-30 -95h51q13 0 13 -13v-38q0 -12 -13 -12h-174q-12 0 -12 12v38q0 13 12 13h42l158 468q4 11 15 11h52q8 0 10.5 -2t4.5 -9l158 -468h42q13 0 13 -13v-38zM327 224l-48 161q-11 38 -18 66
q-13 -54 -17 -65l-49 -162h132zM435 665q0 -3 -9 -8l-164 -85q-7 -4 -10 -4t-9 8l-10 15q-4 7 -4 10q0 4 8 9l145 111q6 5 10 5t10 -8l29 -42q4 -7 4 -11z" />
    <glyph glyph-name="afii10022small.var.accented" unicode="&#xf355;`" horiz-adv-x="434" 
d="M399 13q0 -13 -15 -13h-331q-12 0 -12 12v38q0 13 12 13h52v415h-52q-12 0 -12 14v38q0 12 12 12h326q9 0 11.5 -3t2.5 -12v-105q0 -13 -12 -13h-39q-14 0 -14 13v52h-146v-160h166q9 0 11.5 -3t2.5 -12v-37q0 -8 -3 -10.5t-11 -2.5h-166v-182h153v60q0 13 12 13h39
q13 0 13 -13v-114zM392 665q0 -3 -9 -8l-164 -85q-7 -4 -10 -4t-9 8l-10 15q-4 7 -4 10q0 4 8 9l145 111q6 5 10 5t10 -8l29 -42q4 -7 4 -11z" />
    <glyph glyph-name="afii10026small.var.accented" unicode="&#xf358;`" horiz-adv-x="581" 
d="M105 478h-54q-10 0 -10 14v38q0 12 11 12h179h8t4.5 -3t2.5 -9v-38q0 -14 -9 -14h-55v-201q0 -37 -2 -107h3q19 34 52 77l164 219v12h-53q-11 0 -11 14v38q0 12 11 12h181q13 0 13 -12v-38q0 -14 -13 -14h-51v-415h51q13 0 13 -13v-38q0 -8 -2.5 -10t-11.5 -2h-179
q-12 0 -12 12v38q0 13 12 13h52v210q0 7 0.5 18.5t1 33.5t0.5 47h-3q-18 -40 -51 -83l-165 -214v-12h50q14 0 14 -13v-38q0 -12 -12 -12h-182q-11 0 -11 12v38q0 13 12 13h52v415zM456 665q0 -3 -9 -8l-164 -85q-7 -4 -10 -4t-9 8l-10 15q-4 7 -4 10q0 4 8 9l145 111
q6 5 10 5t10 -8l29 -42q4 -7 4 -11z" />
    <glyph glyph-name="afii10032small.var.accented" unicode="&#xf35e;`" horiz-adv-x="516" 
d="M446 271q0 -137 -51 -209t-150 -72q-95 0 -144 71t-49 208q0 139 51 211t150 72q193 0 193 -281zM362 269q0 220 -111 220q-59 0 -88 -50t-29 -166q0 -220 114 -220q58 0 86 49.5t28 166.5zM418 665q0 -3 -9 -8l-164 -85q-7 -4 -10 -4t-9 8l-10 15q-4 7 -4 10q0 4 8 9
l145 111q6 5 10 5t10 -8l29 -42q4 -7 4 -11z" />
    <glyph glyph-name="afii10037small.var.accented" unicode="&#xf363;`" horiz-adv-x="483" 
d="M413 478l-120 -366q-23 -68 -45 -91q-30 -31 -82 -31q-56 0 -94 30l-4 3q-8 5 -4 13l22 43q7 10 19 0l5 -4q28 -22 53 -22q30 0 47 24q11 15 19 46l8 30h-22q-12 0 -16 4t-8 14l-121 307h-46q-8 0 -11 3t-3 11v38q0 12 14 12h170q13 0 13 -12v-38q0 -9 -2.5 -11.5
t-11.5 -2.5h-46l74 -191q22 -60 29 -86h2q13 49 29 96l61 181h-48q-12 0 -12 14v38q0 12 12 12h166q13 0 13 -12v-38q0 -14 -13 -14h-47zM419 665q0 -3 -9 -8l-164 -85q-7 -4 -10 -4t-9 8l-10 15q-4 7 -4 10q0 4 8 9l145 111q6 5 10 5t10 -8l29 -42q4 -7 4 -11z" />
    <glyph glyph-name="afii10045small.var.accented" unicode="&#xf36b;`" horiz-adv-x="694" 
d="M640 542q13 0 13 -12v-38q0 -14 -13 -14h-52v-415h52q13 0 13 -13v-38q0 -12 -13 -12h-181q-12 0 -12 12v38q0 13 12 13h52v415h-52q-12 0 -12 14v38q0 12 12 12h181zM182 317h61q94 0 145 -39q54 -41 54 -120q0 -75 -46 -117q-45 -41 -144 -41h-197q-14 0 -14 12v38
q0 13 14 13h50v415h-50q-14 0 -14 14v38q0 12 14 12h177q14 0 14 -12v-38q0 -14 -14 -14h-50v-161zM182 63h53q71 0 100 26q27 25 27 70q0 44 -28 70q-28 25 -103 25h-49v-191zM515 665q0 -3 -9 -8l-164 -85q-7 -4 -10 -4t-9 8l-10 15q-4 7 -4 10q0 4 8 9l145 111q6 5 10 5
t10 -8l29 -42q4 -7 4 -11z" />
    <glyph glyph-name="afii10047small.var.accented" unicode="&#xf36d;`" horiz-adv-x="436" 
d="M132 264v41q0 12 11 12h160v7q0 95 -41 137q-27 28 -75 28q-38 0 -69 -18l-5 -3v-52q0 -9 -3 -12t-12 -3h-34q-9 0 -12.5 3t-3.5 12v76q0 8 9 16l4 3q16 12 44 23q46 18 90 18q96 0 148 -75q25 -36 33 -83t8 -119q0 -168 -67 -236q-49 -49 -132 -49q-70 0 -123 36l-3 2
q-11 8 -11 20v79q0 13 12 13h35q14 0 14 -14v-55l7 -3q33 -15 68 -15q51 0 78 27q40 40 40 165v7h-157q-5 0 -7 0.5t-4 3t-2 8.5zM362 665q0 -3 -9 -8l-164 -85q-7 -4 -10 -4t-9 8l-10 15q-4 7 -4 10q0 4 8 9l145 111q6 5 10 5t10 -8l29 -42q4 -7 4 -11z" />
    <glyph glyph-name="afii10048small.var.accented" unicode="&#xf36e;`" horiz-adv-x="717" 
d="M472 552q76 0 124 -46q69 -67 69 -237q0 -162 -72 -231q-49 -48 -131 -48q-74 0 -121 47q-35 36 -52 93.5t-16 118.5h-91v-185h51q13 0 13 -13v-39q0 -12 -13 -12h-180q-12 0 -12 12v39q0 13 12 13h52v414h-52q-12 0 -12 14v38q0 12 12 12h180q13 0 13 -12v-38
q0 -14 -13 -14h-51v-164h92q4 126 70 191q48 47 128 47zM465 489q-42 0 -69 -30q-43 -45 -43 -190q0 -143 50 -191q26 -25 66 -25q45 0 71 30q41 47 41 183q0 150 -50 198q-26 25 -66 25zM502 665q0 -3 -9 -8l-164 -85q-7 -4 -10 -4t-9 8l-10 15q-4 7 -4 10q0 4 8 9l145 111
q6 5 10 5t10 -8l29 -42q4 -7 4 -11z" />
    <glyph glyph-name="afii10049small.var.accented" unicode="&#xf36f;`" horiz-adv-x="492" 
d="M310 240h-39q-38 0 -58 -18q-17 -14 -31 -66l-14 -55q-16 -61 -38 -82q-23 -22 -69 -28l-7 -1q-27 -4 -32 8l-12 40q-3 13 12 16l8 1q25 4 39 15q15 12 28 60l13 46q12 40 25 59q16 22 37 31q-38 8 -67 35q-35 34 -35 90q0 69 42 109q45 42 145 42h179q15 0 15 -12v-38
q0 -14 -14 -14h-50v-415h50q9 0 11.5 -2.5t2.5 -10.5v-38q0 -12 -13 -12h-181q-11 0 -11 12v38q0 13 11 13h53v177zM310 304v174h-52q-60 0 -86 -25q-25 -23 -25 -64q0 -39 25 -62q26 -23 87 -23h51zM441 665q0 -3 -9 -8l-164 -85q-7 -4 -10 -4t-9 8l-10 15q-4 7 -4 10
q0 4 8 9l145 111q6 5 10 5t10 -8l29 -42q4 -7 4 -11z" />
    <glyph glyph-name="fismall" unicode="&#xf766;&#xf769;" horiz-adv-x="725" 
d="M690 13q0 -8 -3 -10.5t-12 -2.5h-222q-9 0 -12 2.5t-3 10.5v36q0 8 3 11t12 3h73v415h-73q-9 0 -12 3t-3 12v35q0 8 3 11t12 3h222q9 0 12 -2.5t3 -11.5v-35q0 -15 -15 -15h-72v-415h72q9 0 12 -2.5t3 -11.5v-36zM394 422q0 -13 -13 -13h-39q-13 0 -13 13v52h-147v-166
h166q14 0 14 -14v-36q0 -8 -3 -11t-11 -3h-166v-181h61q13 0 13 -13v-38q0 -12 -13 -12h-190q-12 0 -12 12v38q0 13 12 13h52v415h-52q-12 0 -12 14v38q0 12 12 12h326q15 0 15 -15v-105z" />
    <glyph glyph-name="flsmall" unicode="&#xf766;&#xf76c;" horiz-adv-x="831" 
d="M831 114l-39 -104q-4 -10 -16 -10h-316q-12 0 -12 12v38q0 13 12 13h52v415h-52q-12 0 -12 14v38q0 12 12 12h181q13 0 13 -12v-38q0 -14 -13 -14h-52v-411h151l26 68q5 11 17 8l41 -14q11 -3 7 -15zM394 422q0 -13 -13 -13h-39q-13 0 -13 13v52h-147v-166h166
q14 0 14 -14v-36q0 -8 -3 -11t-11 -3h-166v-181h61q13 0 13 -13v-38q0 -12 -13 -12h-190q-12 0 -12 12v38q0 13 12 13h52v415h-52q-12 0 -12 14v38q0 12 12 12h326q15 0 15 -15v-105z" />
    <glyph glyph-name="afii10017.var.accented" unicode="&#x410;`" horiz-adv-x="603" 
d="M593 53v-41q0 -12 -12 -12h-202q-12 0 -12 12v41q0 12 12 12h62l-39 139h-205l-38 -139h64q12 0 12 -12v-41q0 -12 -12 -12h-201q-12 0 -12 12v41q0 12 12 12h49l186 609q4 11 15 11h59q11 0 15 -11l185 -609h50q12 0 12 -12zM383 274l-60 221q-19 69 -23 95h-2
q-15 -74 -21 -95l-61 -221h167zM257 776l164 102q6 3 8 3q4 0 7 -4l29 -50q3 -5 3 -9q0 -6 -11 -10l-172 -69q-1 0 -5 -1.5t-6 -1.5q-4 0 -7 4l-13 24q-2 3 -2 6q0 4 5 6z" />
    <glyph glyph-name="afii10022.var.accented" unicode="&#x415;`" horiz-adv-x="481" 
d="M449 159v-147q0 -12 -12 -12h-385q-12 0 -12 12v41q0 12 12 12h63v555h-63q-12 0 -12 12v41q0 12 12 12h378q12 0 12 -12v-138q0 -12 -12 -12h-44q-12 0 -12 12v80h-177v-222h197q12 0 12 -12v-46q0 -12 -12 -12h-197v-253h184v89q0 12 12 12h44q12 0 12 -12zM217 776
l164 102q6 3 8 3q4 0 7 -4l29 -50q3 -5 3 -9q0 -6 -11 -10l-172 -69q-1 0 -5 -1.5t-6 -1.5q-4 0 -7 4l-13 24q-2 3 -2 6q0 4 5 6z" />
    <glyph glyph-name="afii10026.var.accented" unicode="&#x418;`" horiz-adv-x="648" 
d="M114 620h-63q-12 0 -12 12v41q0 12 12 12h208q12 0 12 -12v-41q0 -12 -12 -12h-63v-328q0 -9 -0.5 -38t-1.5 -70h3q16 40 57 106l198 320v10h-63q-12 0 -12 12v41q0 12 12 12h208q12 0 12 -12v-41q0 -12 -12 -12h-63v-555h63q12 0 12 -12v-41q0 -12 -12 -12h-208
q-12 0 -12 12v41q0 12 12 12h63v328q0 9 0.5 37t1.5 71h-3q-16 -42 -54 -105l-201 -321v-10h63q12 0 12 -12v-41q0 -12 -12 -12h-208q-12 0 -12 12v41q0 12 12 12h63v555zM289 776l164 102q6 3 8 3q4 0 7 -4l29 -50q3 -5 3 -9q0 -6 -11 -10l-172 -69q-1 0 -5 -1.5t-6 -1.5
q-4 0 -7 4l-13 24q-2 3 -2 6q0 4 5 6z" />
    <glyph glyph-name="afii10032.var.accented" unicode="&#x41e;`" horiz-adv-x="556" 
d="M504 343q0 -88 -15 -154.5t-38 -104t-55 -61t-59.5 -30.5t-58.5 -7q-32 0 -60 7.5t-59.5 30.5t-54 60.5t-37.5 104t-15 154.5q0 30 1.5 55t7.5 71.5t21 82.5t38.5 71.5t64 55.5t93.5 20q31 0 59 -7t59.5 -30.5t54.5 -60.5t38 -103.5t15 -154.5zM278 53q28 0 50.5 11
t36.5 26.5t24 42.5t14.5 48t7.5 54.5t3 50v46.5v11q0 49 -2 83t-9.5 76t-21.5 68t-40 44t-63 18q-28 0 -50.5 -11.5t-36.5 -27t-24 -43t-14.5 -49t-7 -54.5t-3 -50t-0.5 -47v-7q0 -133 18 -190q30 -100 118 -100zM236 776l164 102q6 3 8 3q4 0 7 -4l29 -50q3 -5 3 -9
q0 -6 -11 -10l-172 -69q-1 0 -5 -1.5t-6 -1.5q-4 0 -7 4l-13 24q-2 3 -2 6q0 4 5 6z" />
    <glyph glyph-name="afii10037.var.accented" unicode="&#x423;`" horiz-adv-x="544" 
d="M485 620l-159 -500q-28 -85 -72 -113q-34 -21 -80 -21q-60 0 -109 35q-16 11 -10 24l21 43q4 7 10 7q5 0 18 -11q37 -31 70 -31q39 0 60 31q14 19 29 73l10 36h-35q-12 0 -17 14l-158 413h-41q-12 0 -12 12v42v4.5t1 3t4 2.5t7 1h190q11 0 11 -11v-42q0 -12 -11 -12h-61
l103 -270q17 -45 34 -109h3q9 45 33 122l80 257h-53q-12 0 -12 12v42v4.5t1.5 3t4 2.5t6.5 1h175q8 0 10 -2.5t2 -8.5v-42q0 -12 -12 -12h-41zM226 776l164 102q6 3 8 3q4 0 7 -4l29 -50q3 -5 3 -9q0 -6 -11 -10l-172 -69q-1 0 -5 -1.5t-6 -1.5q-4 0 -7 4l-13 24q-2 3 -2 6
q0 4 5 6z" />
    <glyph glyph-name="afii10045.var.accented" unicode="&#x42b;`" horiz-adv-x="796" 
d="M196 396h98q88 0 145 -40q74 -53 74 -162q0 -81 -46 -133q-54 -61 -165 -61h-251q-12 0 -12 12v41q0 12 12 12h63v555h-63q-12 0 -12 12v41q0 12 12 12h208q12 0 12 -12v-41q0 -12 -12 -12h-63v-224zM196 70h97q61 0 95.5 33.5t34.5 93.5q0 36 -12.5 62t-28 38.5
t-37.5 19.5t-33.5 8t-23.5 1h-92v-256zM600 620h-63q-12 0 -12 12v41q0 12 12 12h208q12 0 12 -12v-41q0 -12 -12 -12h-63v-555h63q12 0 12 -12v-41q0 -12 -12 -12h-208q-12 0 -12 12v41q0 12 12 12h63v555zM372 776l164 102q6 3 8 3q4 0 7 -4l29 -50q3 -5 3 -9
q0 -6 -11 -10l-172 -69q-1 0 -5 -1.5t-6 -1.5q-4 0 -7 4l-13 24q-2 3 -2 6q0 4 5 6z" />
    <glyph glyph-name="afii10047.var.accented" unicode="&#x42d;`" horiz-adv-x="487" 
d="M139 338v43q0 12 12 12h198q3 126 -42 191q-34 48 -94 48q-45 0 -81 -19l-14 -7v-87q0 -12 -12 -12h-44q-12 0 -12 12v111q0 6 1.5 9t9 9.5t24.5 16.5q61 34 122 34q116 0 174 -92q56 -90 56 -258q0 -164 -55 -261q-59 -102 -173 -102q-76 0 -145 44q-10 6 -14 11
t-4.5 8.5t-0.5 13.5v104q0 12 12 12h44q12 0 12 -12v-89l8 -4q42 -21 80 -21q80 0 116 82q30 70 30 177v14h-196q-12 0 -12 12zM170 776l164 102q6 3 8 3q4 0 7 -4l29 -50q3 -5 3 -9q0 -6 -11 -10l-172 -69q-1 0 -5 -1.5t-6 -1.5q-4 0 -7 4l-13 24q-2 3 -2 6q0 4 5 6z" />
    <glyph glyph-name="afii10048.var.accented" unicode="&#x42e;`" horiz-adv-x="813" 
d="M196 391h119q2 80 23 147q51 161 197 161q30 0 58 -7t60 -30.5t54.5 -60.5t38 -103.5t15.5 -154.5t-15 -154.5t-38 -104t-55 -60.5t-59.5 -30.5t-58.5 -7.5q-144 0 -196 162q-24 77 -24 173h-119v-256h63q12 0 12 -12v-41q0 -12 -12 -12h-208q-12 0 -12 12v41q0 12 12 12
h63v555h-63q-12 0 -12 12v41q0 12 12 12h208q12 0 12 -12v-41q0 -12 -12 -12h-63v-229zM535 53q28 0 50.5 11.5t36.5 27t24 43t14.5 48.5t7.5 54.5t3 49.5v46v10q0 39 -1.5 68t-5.5 65t-13.5 61.5t-24 48.5t-37.5 34.5t-54 11.5q-42 0 -70 -24t-40 -70t-16 -89.5t-4 -105.5
q0 -50 2 -85t9 -77t20.5 -67.5t38.5 -43t60 -17.5zM325 776l164 102q6 3 8 3q4 0 7 -4l29 -50q3 -5 3 -9q0 -6 -11 -10l-172 -69q-1 0 -5 -1.5t-6 -1.5q-4 0 -7 4l-13 24q-2 3 -2 6q0 4 5 6z" />
    <glyph glyph-name="afii10049.var.accented" unicode="&#x42f;`" horiz-adv-x="559" 
d="M363 312h-65q-20 0 -35.5 -7.5t-25 -23.5t-13.5 -26t-10 -29l-30 -98q-2 -8 -7.5 -27.5t-8 -27t-9 -22.5t-13.5 -22t-18 -16t-26.5 -14.5t-35.5 -8.5l-13 -2q-3 0 -9 -1t-7.5 -1.5t-5 0t-5 1.5t-3 3.5t-2.5 6.5l-15 48q-5 13 14 16l19 3q24 4 35.5 16.5t22.5 45.5l36 118
q19 62 67 92q-60 12 -92.5 56.5t-32.5 107.5q0 85 54.5 135t148.5 50h230q12 0 12 -12v-41q0 -12 -12 -12h-63v-555h63q12 0 12 -12v-41q0 -12 -12 -12h-208q-12 0 -12 12v41q0 12 12 12h63v247zM363 377v238h-77q-129 0 -129 -114q0 -36 12 -61t26.5 -37t38.5 -18.5t35 -7
t29 -0.5h65zM271 776l164 102q6 3 8 3q4 0 7 -4l29 -50q3 -5 3 -9q0 -6 -11 -10l-172 -69q-1 0 -5 -1.5t-6 -1.5q-4 0 -7 4l-13 24q-2 3 -2 6q0 4 5 6z" />
    <glyph glyph-name="afii10065.var.accented" unicode="&#x430;`" horiz-adv-x="463" 
d="M90 465l14 6q52 23 116 23q73 0 108 -25q50 -35 50 -115v-192q0 -68 12 -100h47q12 0 12 -12v-38q0 -12 -12 -12h-85q-14 0 -21 11t-14 33l-3 9l-4 -4q-63 -63 -140 -63q-58 0 -94 38t-36 103q0 62 38 105q54 60 203 68l21 1v36q0 19 -2.5 32.5t-10.5 28t-26.5 22
t-45.5 7.5q-56 0 -111 -26l-14 -6q-6 0 -8 5l-15 40q-1 2 -1 8q0 8 22 17zM302 110v129h-4q-93 0 -137 -27q-45 -27 -45 -79q0 -44 22 -64.5t50 -20.5q52 0 108 56zM361 700l29 -43q4 -8 4 -9q0 -4 -9 -10l-166 -86q-4 -2 -7 -2t-7 4l-13 19q-4 5 -4 8q0 5 4 7l149 115
q7 5 10 5q5 0 10 -8z" />
    <glyph glyph-name="afii10070.var.accented" unicode="&#x435;`" horiz-adv-x="469" 
d="M396 88l18 -45q1 -2 1 -6q0 -7 -37 -25q-58 -26 -113 -26q-107 0 -166 76q-52 68 -52 178q0 122 62 193q54 61 137 61q79 0 124 -49q57 -60 57 -199v-5q0 -17 -11 -17h-287v-5q0 -58 25 -102q19 -33 50.5 -48.5t62.5 -15.5q49 0 110 35q8 4 12 5h2q4 0 5 -5zM129 286h216
q0 47 -16 85q-25 61 -89 61q-63 0 -92 -59q-19 -40 -19 -87zM375 700l29 -43q4 -8 4 -9q0 -4 -9 -10l-166 -86q-4 -2 -7 -2t-7 4l-13 19q-4 5 -4 8q0 5 4 7l149 115q8 5 10 5q5 0 10 -8z" />
    <glyph glyph-name="afii10074.var.accented" unicode="&#x438;`" horiz-adv-x="543" 
d="M98 418h-56q-12 0 -12 12v38q0 12 12 12h120q12 0 12 -12v-252l-3 -98h3l48 92l153 265q3 5 11 5h52q12 0 12 -12v-406h56q12 0 12 -12v-38q0 -12 -12 -12h-120q-12 0 -12 12v252l3 97h-3q-24 -43 -31 -58.5t-17 -32.5l-153 -265q-3 -5 -11 -5h-52q-12 0 -12 12v406z
M401 700l29 -43q4 -8 4 -9q0 -4 -9 -10l-166 -86q-4 -2 -7 -2t-7 4l-13 19q-4 5 -4 8q0 5 4 7l149 115q7 5 10 5q5 0 10 -8z" />
    <glyph glyph-name="afii10080.var.accented" unicode="&#x43e;`" horiz-adv-x="498" 
d="M448 243q0 -132 -58 -194.5t-147 -62.5q-81 0 -137 60t-56 192q0 131 57.5 193.5t145.5 62.5q84 0 139.5 -60t55.5 -191zM250 48q116 0 116 196q0 188 -117 188t-117 -185q0 -199 118 -199zM369 700l29 -43q4 -8 4 -9q0 -4 -9 -10l-166 -86q-4 -2 -7 -2t-7 4l-13 19
q-4 5 -4 8q0 5 4 7l149 115q8 5 10 5q5 0 10 -8z" />
    <glyph glyph-name="afii10085.var.accented" unicode="&#x443;`" 
d="M446 418l-103 -356q-33 -113 -52 -162t-41 -71q-37 -39 -96 -39q-47 0 -101 29q-18 10 -21.5 16.5t0.5 10.5l20 40q2 5 7 5q3 0 17 -10q44 -29 78 -29q27 0 46 22q16 18 31 63l21 63h-36q-9 0 -13 9l-144 409h-40q-12 0 -12 12v38q0 12 12 12h183q12 0 12 -12v-35v-4.5
t-1 -3t-4 -2.5t-7 -1h-64l109 -321q10 -30 19 -68l1 -4h2q3 22 15 70l84 323h-59q-12 0 -12 12v34q0 12 12 12h174q12 0 12 -12v-38q0 -12 -12 -12h-37zM391 700l29 -43q4 -8 4 -9q0 -4 -9 -10l-166 -86q-4 -2 -7 -2t-7 4l-13 19q-4 5 -4 8q0 5 4 7l149 115q7 5 10 5
q5 0 10 -8z" />
    <glyph glyph-name="afii10093.var.accented" unicode="&#x44b;`" horiz-adv-x="648" 
d="M179 291h78q69 0 113 -34q52 -40 52 -116q0 -68 -53 -109q-43 -32 -120 -32h-202q-12 0 -12 12v38q0 12 12 12h56v356h-56q-12 0 -12 12v38q0 12 12 12h120q12 0 12 -12v-177zM179 229v-167h69q53 0 78 27q20 22 20 55q0 48 -36 71q-23 14 -62 14h-69zM401 430v38
q0 12 12 12h188q12 0 12 -12v-38q0 -12 -12 -12h-56v-356h56q12 0 12 -12v-38q0 -12 -12 -12h-119q-13 0 -13 15v403h-56q-12 0 -12 12zM449 700l29 -43q4 -8 4 -9q0 -4 -9 -10l-166 -86q-4 -2 -7 -2t-7 4l-13 19q-4 5 -4 8q0 5 4 7l149 115q7 5 10 5q5 0 10 -8z" />
    <glyph glyph-name="afii10095.var.accented" unicode="&#x44d;`" horiz-adv-x="448" 
d="M127 413v-58q0 -12 -12 -12h-40q-12 0 -12 12v85q0 10 10 16l8 5q53 33 123 33q90 0 141 -61q53 -63 53 -184q0 -111 -42 -181q-49 -82 -163 -82q-68 0 -134 38q-14 8 -14 13t1 6l19 40q2 4 5 5h2q4 -1 12 -5q63 -35 110 -35q74 0 104 65q18 40 18 94v7h-146
q-12 0 -12 12v38q0 12 13 12h145q2 72 -29 113q-31 43 -86 43q-37 0 -74 -19zM327 700l29 -43q4 -8 4 -9q0 -4 -9 -10l-166 -86q-4 -2 -7 -2t-7 4l-13 19q-4 5 -4 8q0 5 4 7l149 115q8 5 10 5q5 0 10 -8z" />
    <glyph glyph-name="afii10096.var.accented" unicode="&#x44e;`" horiz-adv-x="694" 
d="M179 278h75q5 95 59 158q51 58 136 58q91 0 142 -64q53 -67 53 -187q0 -117 -53 -187t-149 -70q-94 0 -145 75q-44 68 -43 155h-75v-204q0 -12 -12 -12h-52q-12 0 -12 12v406h-56q-12 0 -12 12v38q0 12 12 12h120q12 0 12 -12v-190zM446 48q116 0 116 196q0 188 -117 188
q-114 0 -114 -185q0 -199 115 -199zM438 700l29 -43q4 -8 4 -9q0 -4 -9 -10l-166 -86q-4 -2 -7 -2t-7 4l-13 19q-4 5 -4 8q0 5 4 7l149 115q8 5 10 5q5 0 10 -8z" />
    <glyph glyph-name="afii10097.var.accented" unicode="&#x44f;`" horiz-adv-x="474" 
d="M381 62h56q12 0 12 -12v-38q0 -12 -12 -12h-120q-12 0 -12 12v193h-54q-18 0 -30 -4t-18.5 -13t-9.5 -15t-7 -20l-21 -70q-14 -48 -29 -66q-27 -31 -93 -31q-12 0 -14 8l-13 45q-3 5 -0.5 8.5t4 4t8.5 1.5l14 2q17 2 27 9t12.5 12.5t7.5 18.5l24 73q15 44 48 59v3
q-55 10 -77 45t-22 70q0 65 47 101q45 34 126 34h134q12 0 12 -12v-406zM305 267v151h-69q-48 0 -71 -17q-27 -19 -27 -56q0 -41 31 -61q27 -17 67 -17h69zM364 700l29 -43q4 -8 4 -9q0 -4 -9 -10l-166 -86q-4 -2 -7 -2t-7 4l-13 19q-4 5 -4 8q0 5 4 7l149 115q8 5 10 5
q5 0 10 -8z" />
    <glyph glyph-name=".notdef" horiz-adv-x="233" 
 />
    <glyph glyph-name=".notdef" horiz-adv-x="233" 
 />
    <glyph glyph-name=".null" horiz-adv-x="0" 
 />
    <glyph glyph-name="nonmarkingreturn" horiz-adv-x="333" 
 />
    <glyph glyph-name="space" unicode=" " horiz-adv-x="233" 
 />
    <glyph glyph-name="space" unicode="&#xa0;" horiz-adv-x="233" 
 />
    <glyph glyph-name="exclam" unicode="!" horiz-adv-x="333" 
d="M237 56q0 -28 -20.5 -49t-49.5 -21t-49.5 21t-20.5 49t20.5 49t49.5 21t49.5 -21t20.5 -49zM182 265h-32q-12 0 -12 13l-24 395q-1 12 13 12h76q14 0 13 -12l-22 -395q0 -13 -12 -13z" />
    <glyph glyph-name="quotedbl" unicode="&#x22;" horiz-adv-x="407" 
d="M105 473l-16 242q-1 9 12 9h58q13 0 12 -9l-16 -242q-1 -13 -12 -13h-26q-11 0 -12 13zM253 473l-16 242q-1 9 12 9h58q13 0 12 -9l-16 -242q-1 -13 -12 -13h-26q-11 0 -12 13z" />
    <glyph glyph-name="numbersign" unicode="#" 
d="M306 177l21 200h-122l-21 -200h122zM363 112l-18 -178q-1 -14 -12 -14h-39h-6t-5 3.5t-2 10.5l18 178h-122l-18 -178q-1 -14 -12 -14h-39h-6t-5 3.5t-2 10.5l18 178h-64q-8 0 -8 8v49q0 8 8 8h71l21 200h-70q-8 0 -8 8v49q0 8 8 8h76l21 201q1 6 2 10v1q2 3 10 3h45
q5 0 7 -2v-12l-21 -201h122l21 201q1 6 2 10v1q2 3 10 3h45q5 0 7 -2v-12l-21 -201h59q8 0 8 -8v-49q0 -8 -8 -8h-65l-21 -200h64q8 0 8 -8v-49q0 -8 -8 -8h-71z" />
    <glyph glyph-name="dollar" unicode="$" 
d="M285 590v-227l17 -9q27 -14 45.5 -27t42.5 -35.5t36.5 -53.5t12.5 -70q0 -67 -41 -116.5t-113 -61.5v-66q0 -12 -12 -12h-30q-12 0 -12 12v62q-74 3 -135 29q-34 13 -35 25v3q0 1 1 5l1 3l17 43q2 6 8 6h1l16 -8q67 -35 126 -39v251l-19 11q-66 39 -90 63q-45 46 -45 112
t43 112.5t111 52.5v59q0 12 12 12h30q12 0 12 -12v-57q70 -4 126 -35q15 -8 10 -20l-18 -44q-5 -4 -7 -5h-3q-3 1 -15 7q-53 27 -93 30zM231 384v204q-32 -5 -52 -28t-20 -63q0 -38 17 -62.5t49 -46.5zM285 283v-226q34 8 53 35t19 65q0 43 -21 75.5t-46 47.5z" />
    <glyph glyph-name="percent" unicode="%" horiz-adv-x="759" 
d="M305 495q0 -83 -36.5 -131t-99.5 -48q-13 0 -26 2t-33 12t-34.5 26t-25.5 48.5t-11 75.5q0 81 36 129t101 48q56 0 92.5 -40t36.5 -122zM169 370q70 0 70 119q0 114 -64 114q-70 0 -70 -120q0 -113 64 -113zM721 165q0 -83 -36.5 -131t-99.5 -48q-13 0 -26 2t-33 12
t-34.5 26t-25.5 48.5t-11 75.5q0 81 36 129t101 48q56 0 92.5 -40t36.5 -122zM585 40q70 0 70 119q0 114 -64 114q-70 0 -70 -120q0 -113 64 -113zM453 657h42q18 0 11 -17l-200 -644q-3 -10 -14 -10h-42q-11 0 -13 4.5t2 11.5l199 645q4 10 15 10z" />
    <glyph glyph-name="ampersand" unicode="&#x26;" horiz-adv-x="610" 
d="M502 307h49q12 0 12 -12v-6q0 -46 -16 -94.5t-42 -80.5l63 -73q6 -6 6 -10q0 -7 -6 -10l-38 -31q-8 -4 -9 -4h-3q-8 0 -14 7l-55 65q-54 -40 -90.5 -56t-95.5 -16q-92 0 -149 49.5t-57 129.5q0 70 41 121l14.5 16t18.5 16.5l17 13l21 15t20 13.5q-26 24 -57 79
q-29 53 -29 99q0 63 43.5 112t129.5 49q76 0 115.5 -41t39.5 -104q0 -70 -48 -125q-24 -27 -88 -72l165 -191q30 52 30 116v13q0 12 12 12zM255 400q26 16 52 42q48 48 48 102q0 44 -24.5 68.5t-60.5 24.5q-37 0 -64 -25t-27 -66q0 -45 39 -100q27 -36 37 -46zM408 107
l-179 211q-24 -14 -47 -40q-43 -46 -43 -106q0 -49 33 -84t99 -35q77 0 137 54z" />
    <glyph glyph-name="quotesingle" unicode="'" horiz-adv-x="167" 
d="M124 715l-15 -242q-1 -13 -9 -13h-33q-8 0 -9 13l-16 242q-1 9 10 9h62q11 0 10 -9z" />
    <glyph glyph-name="parenleft" unicode="(" horiz-adv-x="370" 
d="M285 721l26 -16q7 -5 7 -11q0 -4 -10 -17q-21 -27 -44 -64q-99 -163 -99 -368t99 -368q23 -37 44 -64q10 -13 10 -17q0 -6 -7 -11l-26 -16q-5 -3 -9 -3q-5 0 -20 14q-49 46 -97 145q-76 150 -76 320t80 327q49 96 93 138q15 14 20 14q4 0 9 -3z" />
    <glyph glyph-name="parenright" unicode=")" horiz-adv-x="370" 
d="M85 -231l-26 16q-7 5 -7 11q0 4 10 17q21 27 44 64q99 163 99 368t-99 368q-23 37 -44 64q-10 13 -10 17q0 6 7 11l26 16q5 3 9 3q5 0 20 -14q49 -46 97 -145q76 -150 76 -320t-80 -327q-49 -96 -93 -138q-15 -14 -20 -14q-4 0 -9 3z" />
    <glyph glyph-name="asterisk" unicode="*" 
d="M250 479l-64 -103q-3 -5 -8 -5q-2 0 -6 4l-35 25q-11 7 -5 15l79 93l-118 29q-7 2 -7 6l2 8l13 41q3 11 12 8l112 -46l-9 122q0 9 10 9h48q10 0 10 -9l-9 -122l112 46q9 3 12 -8l13 -41l2 -8q0 -4 -7 -6l-118 -29l79 -93q6 -8 -5 -15l-35 -25q-9 -7 -14 1z" />
    <glyph glyph-name="plus" unicode="+" 
d="M285 290h180q12 0 12 -12v-48q0 -12 -12 -12h-180v-180q0 -12 -12 -12h-48q-12 0 -12 12v180h-179q-12 0 -12 12v48q0 12 12 12h179v178q0 12 12 12h48q12 0 12 -12v-178z" />
    <glyph glyph-name="comma" unicode="," horiz-adv-x="185" 
d="M73 126h83q11 0 11 -7q0 -2 -4 -10l-115 -211q-4 -7 -6 -8q-1 -1 -4 -1q-2 0 -8 2l-26 9q-7 2 -7 7q0 3 2 9l59 199q4 11 15 11z" />
    <glyph glyph-name="hyphen" unicode="-" horiz-adv-x="352" 
d="M51 230v51q0 12 12 12h226q12 0 12 -12v-51q0 -12 -12 -12h-226q-12 0 -12 12z" />
    <glyph glyph-name="hyphen" unicode="&#x2010;" horiz-adv-x="352" 
d="M51 230v51q0 12 12 12h226q12 0 12 -12v-51q0 -12 -12 -12h-226q-12 0 -12 12z" />
    <glyph glyph-name="hyphen" unicode="&#xad;" horiz-adv-x="352" 
d="M51 230v51q0 12 12 12h226q12 0 12 -12v-51q0 -12 -12 -12h-226q-12 0 -12 12z" />
    <glyph glyph-name="period" unicode="." horiz-adv-x="296" 
d="M218 56q0 -28 -21 -49t-49 -21t-49 21t-21 49t21 49t49 21t49 -21t21 -49z" />
    <glyph glyph-name="slash" unicode="/" horiz-adv-x="443" 
d="M378 724h40q12 0 12 -8q0 -2 -4 -10l-384 -906q-4 -10 -16 -10h-39q-19 0 -12 13l386 910q4 11 17 11z" />
    <glyph glyph-name="zero" unicode="0" 
d="M45 317q0 101 21.5 172.5t56 105.5t67 48t66.5 14q39 0 70.5 -14t52 -35t35.5 -52.5t22.5 -60t12 -63t5.5 -57t1 -46.5q0 -99 -18 -169.5t-49.5 -106.5t-65.5 -51.5t-74 -15.5q-12 0 -25 1.5t-34 9.5t-39.5 20.5t-38.5 38t-34 59t-23 86t-9 116.5zM254 587
q-127 0 -127 -264q0 -267 123 -267q32 0 55.5 17t36 42.5t20 64.5t9.5 72.5t2 76.5q0 258 -119 258z" />
    <glyph glyph-name="one" unicode="1" 
d="M425 53v-41q0 -12 -12 -12h-268q-12 0 -12 12v41q0 12 12 12h102v489l-138 -80q-6 -4 -10 -4q-5 0 -7 5l-15 28q-2 4 -2 7q0 2 6 8l179 125h51q12 0 12 -12v-566h90q12 0 12 -12z" />
    <glyph glyph-name="two" unicode="2" 
d="M430 58v-46q0 -12 -12 -12h-336q-13 0 -13 13l1 25q2 55 15 100t35 77.5t42.5 53.5t47.5 41q17 13 45.5 32.5t40.5 29.5t27 26t20.5 34.5t5.5 43.5q0 48 -24.5 79.5t-70.5 31.5q-32 0 -54.5 -14t-32 -29t-21.5 -42q-10 -22 -14 -23q-3 -1 -9 1l-44 13l-2 1q-2 0 -3 0.5
t-2 2.5t-1 5q0 10 7 28t17.5 35.5t31 40.5t55.5 37t78 14q70 0 120.5 -46t50.5 -135q0 -28 -6.5 -52t-13.5 -39t-25 -33t-29 -27t-37.5 -28l-38.5 -28q-57 -44 -86.5 -87.5t-37.5 -111.5h261q12 0 12 -12z" />
    <glyph glyph-name="three" unicode="3" 
d="M165 372h36q62 0 95.5 33.5t33.5 85.5q0 46 -28 71t-70 25q-55 0 -101 -47q-13 -13 -19 -14h-2q-2 0 -5 3l-33 28q-6 6 -6 9q0 5 8 14q65 77 162 77q72 0 121 -43.5t49 -118.5q0 -107 -103 -148q18 -5 36 -15t40 -28.5t35.5 -51t13.5 -73.5q0 -87 -57.5 -140t-156.5 -53
q-80 0 -144 28q-22 11 -17 22l21 47q6 6 8 6l16 -7q52 -26 115 -26q66 0 99.5 34.5t33.5 91.5q0 123 -145 123h-36q-12 0 -12 12v43q0 12 12 12z" />
    <glyph glyph-name="four" unicode="4" 
d="M375 142v-144q0 -8 -2.5 -10t-8.5 -2h-53q-12 0 -12 12v144h-256q-12 0 -12 12v58l263 437q6 9 18 7l47 -8q12 -3 12 -9q0 -3 -4 -9l-257 -423h189l13 161q1 13 13 13h38q12 0 12 -12v-162h82q12 0 12 -12v-41q0 -12 -12 -12h-82z" />
    <glyph glyph-name="five" unicode="5" 
d="M169 573l-22 -203l13 9q48 34 107 34q77 0 123.5 -56t46.5 -139q0 -40 -11 -77.5t-35.5 -74t-72 -58.5t-112.5 -22q-63 0 -117 16q-21 6 -17 21l11 45q0 7 9 7q1 0 18 -5q56 -14 89 -14q156 0 156 160q0 68 -30 97.5t-73 29.5q-27 0 -53 -12t-33.5 -18.5l-30.5 -26.5
q-8 -7 -15 -5l-37 13q-7 3 -8 4q-2 3 -2 12l31 320q0 5 0.5 6.5t1.5 3.5t3.5 2.5t6.5 0.5h264q12 0 12 -12v-47v-4.5t-1 -3t-4 -2.5t-7 -1h-211z" />
    <glyph glyph-name="six" unicode="6" 
d="M419 625l-15 -38q-3 -8 -10 -8q-4 0 -7 1q-33 10 -58 10q-56 0 -103 -42q-28 -25 -47 -62.5t-23.5 -56.5t-11.5 -54l-2 -10l2 -2q18 34 52.5 55.5t76.5 21.5q77 0 122.5 -62.5t45.5 -159.5q0 -106 -55.5 -169t-138.5 -63q-185 0 -185 275q0 160 56 264q26 49 65.5 80.5
t73 41.5t66.5 10q49 0 81 -12q20 -8 15 -20zM248 56q50 0 80.5 42t30.5 116q0 79 -30.5 117.5t-74.5 38.5q-43 0 -76.5 -35t-33.5 -126q0 -76 28 -114.5t76 -38.5z" />
    <glyph glyph-name="seven" unicode="7" 
d="M434 606l-231 -605q-5 -11 -11 -10l-59 9q-8 0 -11 4q-2 2 2 13l216 556h-260q-12 0 -12 12v46q0 12 12 12h342q12 0 12 -12v-25z" />
    <glyph glyph-name="eight" unicode="8" 
d="M180 342q-17 7 -33 18t-36 30t-32 49t-12 66q0 65 48 108.5t135 43.5t135 -43.5t48 -108.5q0 -36 -12 -66t-32 -49t-36 -30t-33 -18q66 -22 104 -69.5t38 -105.5q0 -74 -57 -127.5t-155 -53.5t-155 53.5t-57 127.5q0 58 38 105.5t104 69.5zM250 373l4 2q98 49 98 124
q0 38 -28.5 64.5t-73.5 26.5t-73.5 -26.5t-28.5 -64.5q0 -75 98 -124zM250 302l-9 -4q-24 -11 -40 -19.5t-37.5 -25t-32.5 -39.5t-11 -52q0 -42 32.5 -75.5t97.5 -33.5t97.5 33.5t32.5 75.5q0 29 -11 52t-32.5 39.5t-37.5 25t-40 19.5z" />
    <glyph glyph-name="nine" unicode="9" 
d="M94 16l4 40q0 9 9 9q5 0 18 -4q28 -8 55 -8q38 0 68 15t47.5 34.5t31 53.5t19 55.5t12.5 56.5l2 10l-2 2q-18 -34 -52.5 -55.5t-76.5 -21.5q-77 0 -122.5 62.5t-45.5 159.5q0 106 55.5 169t138.5 63q185 0 185 -275q0 -82 -18 -165.5t-55 -136.5q-66 -94 -178 -94
q-25 0 -80 11q-13 4 -15 9q-1 4 0 10zM254 587q-50 0 -80.5 -42t-30.5 -116q0 -80 30.5 -118.5t74.5 -38.5q43 0 76.5 35.5t33.5 126.5q0 76 -28 114.5t-76 38.5z" />
    <glyph glyph-name="colon" unicode=":" horiz-adv-x="296" 
d="M218 56q0 -28 -21 -49t-49 -21t-49 21t-21 49t21 49t49 21t49 -21t21 -49zM218 410q0 -28 -21 -49t-49 -21t-49 21t-21 49t21 49t49 21t49 -21t21 -49z" />
    <glyph glyph-name="semicolon" unicode=";" horiz-adv-x="296" 
d="M233 410q0 -29 -20.5 -49.5t-49.5 -20.5t-49.5 21t-20.5 49t20.5 49t49.5 21t49.5 -21t20.5 -49zM128 126h83q11 0 11 -7q0 -2 -4 -10l-115 -211q-4 -7 -6 -8q-1 -1 -4 -1q-2 0 -8 2l-26 9q-7 2 -7 7q0 3 2 9l59 199q4 11 15 11z" />
    <glyph glyph-name="semicolon" unicode="&#x37e;" horiz-adv-x="296" 
d="M233 410q0 -29 -20.5 -49.5t-49.5 -20.5t-49.5 21t-20.5 49t20.5 49t49.5 21t49.5 -21t20.5 -49zM128 126h83q11 0 11 -7q0 -2 -4 -10l-115 -211q-4 -7 -6 -8q-1 -1 -4 -1q-2 0 -8 2l-26 9q-7 2 -7 7q0 3 2 9l59 199q4 11 15 11z" />
    <glyph glyph-name="less" unicode="&#x3c;" 
d="M22 230v47q0 12 11 16l404 146q6 3 12 3t9 -10l16 -46l2 -8q0 -7 -9 -9l-322 -115v-2l322 -114q9 -3 9 -10l-1 -2q-1 -3 -1 -5l-16 -46q-3 -10 -9 -10q-3 0 -12 3l-404 146q-11 4 -11 16z" />
    <glyph glyph-name="equal" unicode="=" 
d="M477 346v-48q0 -12 -12 -12h-431q-12 0 -12 12v48q0 12 12 12h431q12 0 12 -12zM477 209v-48q0 -12 -12 -12h-431q-12 0 -12 12v48q0 12 12 12h431q12 0 12 -12z" />
    <glyph glyph-name="greater" unicode="&#x3e;" 
d="M478 277v-47q0 -12 -11 -16l-404 -146q-9 -3 -12 -3q-6 0 -9 10l-16 46q0 2 -1 5l-1 2q0 7 9 10l322 114v2l-322 115q-9 2 -9 9l2 8l16 46q3 10 9 10t12 -3l404 -146q11 -4 11 -16z" />
    <glyph glyph-name="question" unicode="?" horiz-adv-x="426" 
d="M211 369v-92q0 -12 -12 -12h-44q-12 0 -12 12v117q0 17 3.5 21t19.5 8q62 18 85 40q31 29 31 75q0 45 -26 69q-26 25 -72 25q-56 0 -110 -27q-1 0 -3.5 -1.5t-3.5 -1.5h-3q-7 0 -9 7l-15 38q-2 6 -2 9q0 4 21 15q56 28 133 28q79 0 124 -40q48 -44 48 -120
q0 -79 -54 -124q-37 -32 -99 -46zM249 56q0 -28 -20.5 -49t-49.5 -21t-49.5 21t-20.5 49t20.5 49t49.5 21t49.5 -21t20.5 -49z" />
    <glyph glyph-name="at" unicode="@" horiz-adv-x="944" 
d="M596 420h48q7 0 5 -11l-49 -229q-3 -15 -3 -17v-9q2 -50 41 -50q60 0 116 73t56 185q0 110 -70 174.5t-193 64.5q-119 0 -214 -57.5t-146 -152.5t-51 -208q0 -137 78 -219t234 -82q144 0 285 66l11.5 6t8.5 4.5t6 1.5h4q5 -1 7 -8l12 -29q2 -6 2 -11t-11.5 -12.5
t-38.5 -18.5q-140 -57 -280 -57q-177 0 -282 93t-105 263q0 202 139 340.5t338 138.5q149 0 240 -79t91 -216q0 -124 -74.5 -219.5t-172.5 -95.5q-28 0 -46.5 10.5t-25.5 27t-9.5 28.5t-2.5 24h-2q-60 -89 -137 -89q-39 0 -62.5 29t-23.5 85t18 115t49 95q49 56 117 56
q44 0 76 -40l10 24q2 6 7 6zM548 256l17 82q-34 34 -67 34q-52 0 -82 -80q-25 -71 -25 -125q0 -55 36 -55q32 0 69.5 37.5t51.5 106.5z" />
    <glyph glyph-name="A" unicode="A" horiz-adv-x="603" 
d="M593 53v-41q0 -12 -12 -12h-202q-12 0 -12 12v41q0 12 12 12h62l-39 139h-205l-38 -139h64q12 0 12 -12v-41q0 -12 -12 -12h-201q-12 0 -12 12v41q0 12 12 12h49l186 609q4 11 15 11h59q11 0 15 -11l185 -609h50q12 0 12 -12zM383 274l-60 221q-19 69 -23 95h-2
q-15 -74 -21 -95l-61 -221h167z" />
    <glyph glyph-name="B" unicode="B" horiz-adv-x="556" 
d="M52 685h250q180 0 180 -163q0 -111 -99 -163q56 -13 89.5 -56.5t33.5 -113.5q0 -79 -46 -130q-54 -59 -165 -59h-243q-12 0 -12 12v41q0 12 12 12h63v555h-63q-12 0 -12 12v41q0 12 12 12zM197 383h63q70 0 102 34q30 32 30 96q0 46 -22 73q-25 29 -89 29h-84v-232z
M197 70h89q69 0 102 38q28 32 28 84q0 62 -42 97q-34 27 -93 27h-84v-246z" />
    <glyph glyph-name="C" unicode="C" horiz-adv-x="481" 
d="M441 167v-104q0 -10 -0.5 -13.5t-4.5 -8t-14 -11.5q-67 -44 -145 -44q-111 0 -169 95q-56 91 -56 268q0 179 60 266q58 84 167 84q63 0 123 -34q34 -19 34 -35v-111q0 -12 -12 -12h-44q-12 0 -12 12v85l-6 4q-35 24 -87 24q-64 0 -97 -56q-36 -61 -36 -198
q0 -176 37 -254q18 -38 48.5 -54.5t59.5 -16.5q33 0 77 23l9 5v86q0 12 12 12h44q12 0 12 -12z" />
    <glyph glyph-name="D" unicode="D" horiz-adv-x="574" 
d="M52 685h227q90 0 145 -42q98 -75 98 -294q0 -207 -85 -288q-64 -61 -195 -61h-190q-12 0 -12 12v41q0 12 12 12h63v555h-63q-12 0 -12 12v41q0 12 12 12zM197 70h62q58 0 95.5 25.5t57.5 84.5q20 61 20 162q0 132 -27 192q-23 50 -62.5 65.5t-90.5 15.5h-55v-545z" />
    <glyph glyph-name="E" unicode="E" horiz-adv-x="481" 
d="M449 159v-147q0 -12 -12 -12h-385q-12 0 -12 12v41q0 12 12 12h63v555h-63q-12 0 -12 12v41q0 12 12 12h378q12 0 12 -12v-138q0 -12 -12 -12h-44q-12 0 -12 12v80h-177v-222h197q12 0 12 -12v-46q0 -12 -12 -12h-197v-253h184v89q0 12 12 12h44q12 0 12 -12z" />
    <glyph glyph-name="F" unicode="F" horiz-adv-x="463" 
d="M197 65h74q12 0 12 -12v-41q0 -12 -12 -12h-219q-12 0 -12 12v41q0 12 12 12h63v555h-63q-12 0 -12 12v41q0 12 12 12h378q12 0 12 -12v-138q0 -12 -12 -12h-44q-12 0 -12 12v80h-177v-229h197q12 0 12 -12v-46q0 -12 -12 -12h-197v-251z" />
    <glyph glyph-name="G" unicode="G" horiz-adv-x="554" 
d="M468 282v-217q0 -26 -3.5 -32.5t-25.5 -17.5q-61 -29 -143 -29q-127 0 -188 101q-56 92 -56 262q0 168 60 259t180 91q77 0 151 -50q10 -6 10 -19v-111q0 -12 -12 -12h-44q-12 0 -12 12v85l-6 3q-50 25 -88 25q-66 0 -103 -52q-46 -66 -46 -221q0 -154 39 -232
q38 -74 117 -74q50 0 88 19v210h-80q-12 0 -12 12v41q0 12 12 12h218q12 0 12 -12v-41q0 -12 -12 -12h-56z" />
    <glyph glyph-name="H" unicode="H" horiz-adv-x="648" 
d="M609 53v-41q0 -12 -12 -12h-208q-12 0 -12 12v41q0 12 12 12h63v256h-256v-256h63q12 0 12 -12v-41q0 -12 -12 -12h-208q-12 0 -12 12v41q0 12 12 12h63v555h-63q-12 0 -12 12v41q0 12 12 12h208q12 0 12 -12v-41q0 -12 -12 -12h-63v-229h256v229h-63q-12 0 -12 12v41
q0 12 12 12h208q12 0 12 -12v-41q0 -12 -12 -12h-63v-555h63q12 0 12 -12z" />
    <glyph glyph-name="I" unicode="I" horiz-adv-x="333" 
d="M208 65h91q12 0 12 -12v-41q0 -12 -12 -12h-264q-12 0 -12 12v41q0 12 12 12h91v555h-91q-12 0 -12 12v41q0 12 12 12h264q12 0 12 -12v-41q0 -12 -12 -12h-91v-555z" />
    <glyph glyph-name="J" unicode="J" horiz-adv-x="444" 
d="M366 673v-504q0 -82 -43 -130q-48 -53 -141 -53q-91 0 -136 57q-40 50 -40 123v18q0 12 12 12h52q12 0 12 -12v-6q0 -61 24 -92q26 -33 77 -33t76 29q25 28 25 87v446h-175q-12 0 -12 12v46q0 12 12 12h245q12 0 12 -12z" />
    <glyph glyph-name="K" unicode="K" horiz-adv-x="574" 
d="M560 53v-41q0 -12 -12 -12h-191q-12 0 -12 12v41q0 12 12 12h48l-207 264h-2v-264h63q12 0 12 -12v-41q0 -12 -12 -12h-208q-12 0 -12 12v41q0 12 12 12h63v555h-63q-12 0 -12 12v41q0 12 12 12h208q12 0 12 -12v-41q0 -12 -12 -12h-63v-279h2l210 279h-49q-12 0 -12 12
v41q0 12 12 12h183q12 0 12 -12v-41q0 -12 -12 -12h-45l-218 -280l220 -275h49q12 0 12 -12z" />
    <glyph glyph-name="L" unicode="L" horiz-adv-x="481" 
d="M377 70l35 98q4 11 16 7l46 -17q10 -4 6 -17l-47 -130q-4 -11 -15 -11h-366q-12 0 -12 12v41q0 12 12 12h63v555h-63q-12 0 -12 12v41q0 12 12 12h208q12 0 12 -12v-41q0 -12 -12 -12h-63v-550h180z" />
    <glyph glyph-name="M" unicode="M" horiz-adv-x="708" 
d="M531 65l-13 430v95h-2q-4 -46 -12 -71l-120 -348q-3 -11 -15 -11h-30q-12 0 -15 11l-120 348q-8 25 -12 71h-2v-95l-13 -430h70q12 0 12 -12v-41q0 -12 -12 -12h-205q-12 0 -12 12v41q0 12 12 12h56l31 555h-70q-12 0 -12 12v41q0 12 12 12h148q8 0 13 -10l118 -345
q10 -30 15 -62h2q5 32 15 62l118 345q5 10 13 10h148q12 0 12 -12v-41q0 -12 -12 -12h-70l31 -555h56q12 0 12 -12v-41q0 -12 -12 -12h-205q-12 0 -12 12v41q0 12 12 12h70z" />
    <glyph glyph-name="N" unicode="N" horiz-adv-x="611" 
d="M515 620v-608q0 -12 -12 -12h-55q-12 0 -16 10l-230 494q-15 31 -27 87l-2 -2q10 -56 10 -89v-435h65q12 0 12 -12v-41q0 -12 -12 -12h-201q-12 0 -12 12v41q0 12 12 12h63v555h-63q-12 0 -12 12v41q0 12 12 12h140q11 0 15 -9l221 -466q9 -19 17 -51l7 -26l2 2l-7 49
v436h-65q-12 0 -12 12v41q0 12 12 12h202q12 0 12 -12v-41q0 -12 -12 -12h-64z" />
    <glyph glyph-name="O" unicode="O" horiz-adv-x="556" 
d="M504 343q0 -88 -15 -154.5t-38 -104t-55 -61t-59.5 -30.5t-58.5 -7q-32 0 -60 7.5t-59.5 30.5t-54 60.5t-37.5 104t-15 154.5q0 30 1.5 55t7.5 71.5t21 82.5t38.5 71.5t64 55.5t93.5 20q31 0 59 -7t59.5 -30.5t54.5 -60.5t38 -103.5t15 -154.5zM278 53q28 0 50.5 11
t36.5 26.5t24 42.5t14.5 48t7.5 54.5t3 50v46.5v11q0 49 -2 83t-9.5 76t-21.5 68t-40 44t-63 18q-28 0 -50.5 -11.5t-36.5 -27t-24 -43t-14.5 -49t-7 -54.5t-3 -50t-0.5 -47v-7q0 -133 18 -190q30 -100 118 -100z" />
    <glyph glyph-name="P" unicode="P" horiz-adv-x="505" 
d="M283 53v-41q0 -12 -12 -12h-219q-12 0 -12 12v41q0 12 12 12h63v555h-63q-12 0 -12 12v41q0 12 12 12h248q89 0 136 -44q49 -45 49 -138q0 -110 -60 -164q-56 -50 -156 -50h-72v-224h74q12 0 12 -12zM197 359h65q25 0 40 1.5t36.5 10.5t35.5 27q29 36 29 101q0 62 -30 90
q-28 26 -99 26h-77v-256z" />
    <glyph glyph-name="Q" unicode="Q" horiz-adv-x="556" 
d="M543 -31l-53 -36q-10 -7 -27 4q-34 21 -86 75q-48 -26 -98 -26q-227 0 -227 355q0 88 15.5 155t38.5 104.5t55.5 60.5t61 30.5t60.5 7.5q51 0 90.5 -19.5t62.5 -54.5t37.5 -70t20.5 -81.5t7.5 -72.5t1.5 -58q0 -82 -13 -144.5t-24 -84t-29 -47.5l-2 -3q54 -46 95 -71
q1 -1 5.5 -3.5t6 -3.5t3.5 -4t2 -6t-4 -7zM277 53q44 0 73 24.5t42 70.5t17 89t4 103q0 48 -2.5 84.5t-10.5 77.5t-22 67.5t-39 44.5t-60 18q-30 0 -53.5 -11.5t-38 -34t-24 -48t-14 -60.5t-6 -65t-1.5 -68q0 -60 4.5 -104.5t17.5 -91t41.5 -71.5t71.5 -25z" />
    <glyph glyph-name="R" unicode="R" horiz-adv-x="556" 
d="M555 53v-41q0 -12 -12 -12h-98q-12 0 -18 11l-158 301h-72v-247h64q12 0 12 -12v-41q0 -12 -12 -12h-209q-12 0 -12 12v41q0 12 12 12h63v555h-63q-12 0 -12 12v41q0 12 12 12h243q55 0 94 -15t59 -42t28.5 -56t8.5 -63q0 -81 -47 -135q-35 -41 -85 -55l141 -254h49
q12 0 12 -12zM197 377h65q78 0 110 32q31 31 31 85q0 66 -30 94q-30 27 -102 27h-74v-238z" />
    <glyph glyph-name="S" unicode="S" horiz-adv-x="480" 
d="M353 525v81l-7 3q-22 10 -31.5 13.5t-25 6.5t-35.5 3q-49 0 -77.5 -28.5t-28.5 -74.5q0 -60 60 -100q19 -12 54.5 -31t41.5 -22q136 -77 136 -194q0 -80 -55 -138t-157 -58q-46 0 -98.5 14.5t-77.5 29.5q-10 6 -10 23v116q0 12 12 12h44q12 0 12 -12v-82l5 -2l21 -9
l29 -11.5t29 -7.5t37 -4q60 0 89.5 35.5t29.5 83.5q0 27 -7.5 47.5t-25 37t-32 26.5t-41.5 25q-87 50 -106 64q-80 59 -80 148q0 84 64 135q57 44 135 44q84 0 144 -34q13 -7 16.5 -12t3.5 -18v-110q0 -12 -12 -12h-44q-12 0 -12 12z" />
    <glyph glyph-name="T" unicode="T" horiz-adv-x="480" 
d="M364 53v-41q0 -12 -12 -12h-224q-12 0 -12 12v41q0 12 12 12h71v550h-106v-113q0 -12 -12 -12h-44q-12 0 -12 12v171q0 12 12 12h406q12 0 12 -12v-171q0 -12 -11 -12h-46h-4.5t-3 1t-2.5 4t-1 7v113h-106v-550h71q12 0 12 -12z" />
    <glyph glyph-name="U" unicode="U" horiz-adv-x="629" 
d="M528 620v-436q0 -90 -48 -139q-58 -59 -170 -59q-116 0 -167 59q-42 48 -42 139v436h-64q-12 0 -12 12v41q0 12 12 12h210q12 0 12 -12v-41q0 -12 -12 -12h-64v-434q0 -65 25 -97q29 -36 101 -36q70 0 106 37q31 32 31 96v434h-64q-12 0 -12 12v41q0 12 12 12h210
q12 0 12 -12v-41q0 -12 -12 -12h-64z" />
    <glyph glyph-name="V" unicode="V" horiz-adv-x="532" 
d="M482 620l-165 -609q-3 -11 -15 -11h-70q-12 0 -15 11l-163 609h-41q-12 0 -12 12v41q0 12 12 12h187q12 0 12 -12v-41q0 -12 -12 -12h-59l111 -466q8 -36 14 -80h2q6 41 15 78l115 468h-54q-12 0 -12 12v42v4.5t1 3t4 2.5t7 1h175q12 0 12 -12v-41q0 -12 -12 -12h-37z
" />
    <glyph glyph-name="W" unicode="W" horiz-adv-x="749" 
d="M145 620l76 -433q3 -15 6 -71l2 -36h2l2 30q4 56 10 83l96 480q2 9 4 10.5t8 1.5h58h1q3 0 4.5 -0.5t3.5 -3t3 -8.5l83 -494q8 -44 9 -80l1 -23h2l1 33q0 41 6 71l81 440h-62q-12 0 -12 12v41q0 12 12 12h185q12 0 12 -12v-41q0 -12 -12 -12h-43l-128 -609
q-2 -11 -10 -11h-75q-5 0 -7 2t-3 10l-84 546h-2l-104 -546q-6 -11 -10 -12h-71q-6 0 -7 2t-3 10l-116 608h-42q-12 0 -12 12v41q0 12 12 12h187q12 0 12 -12v-41q0 -12 -12 -12h-64z" />
    <glyph glyph-name="X" unicode="X" horiz-adv-x="556" 
d="M543 53v-41q0 -12 -12 -12h-192q-12 0 -12 12v41q0 12 12 12h54l-95 179q-5 9 -21 47l-20 -46l-95 -180h53q12 0 12 -12v-41q0 -12 -12 -12h-190q-12 0 -12 12v41q0 12 12 12h47l158 292l-144 263h-46q-12 0 -12 12v41q0 12 12 12h192q12 0 12 -12v-41q0 -12 -12 -12h-56
l78 -143l25 -52q7 19 26 56l74 139h-47q-12 0 -12 12v41q0 12 12 12h181q12 0 12 -12v-41q0 -12 -12 -12h-45l-146 -260l163 -295h46q12 0 12 -12z" />
    <glyph glyph-name="Y" unicode="Y" horiz-adv-x="541" 
d="M394 53v-41q0 -12 -12 -12h-222q-12 0 -12 12v41q0 12 12 12h70v224l-176 331h-37q-12 0 -12 12v41q0 12 12 12h192q12 0 12 -12v-41q0 -12 -12 -12h-59l99 -202q3 -7 11 -21l11 -23l2 -4l2 -4l23 52l95 202h-61q-12 0 -12 12v41q0 12 12 12h192q12 0 12 -12v-41
q0 -12 -12 -12h-42l-170 -329v-226h70q12 0 12 -12z" />
    <glyph glyph-name="Z" unicode="Z" horiz-adv-x="481" 
d="M376 70l29 82q4 11 20 5l42 -15q8 -3 8 -9q0 -4 -3 -11l-40 -110q-4 -12 -16 -12h-362q-12 0 -12 12v54l294 549h-201v-75q0 -12 -12 -12h-44q-12 0 -12 12v133q0 12 12 12h341q12 0 12 -12v-50l-296 -553h240z" />
    <glyph glyph-name="bracketleft" unicode="[" horiz-adv-x="370" 
d="M316 -152v-38q0 -12 -12 -12h-176q-12 0 -12 12v895q0 12 13 12h175q12 0 12 -12v-38q0 -12 -12 -12h-112v-795h112q12 0 12 -12z" />
    <glyph glyph-name="backslash" unicode="\" horiz-adv-x="499" 
d="M69 724h40q13 0 17 -11l386 -906q3 -9 3 -10q0 -7 -12 -7h-40q-12 0 -16 10l-386 906q-3 9 -3 10q0 8 11 8z" />
    <glyph glyph-name="bracketright" unicode="]" horiz-adv-x="370" 
d="M54 -190v38q0 12 12 12h112v795h-112q-12 0 -12 12v38q0 12 12 12h175q13 0 13 -12v-895q0 -12 -12 -12h-176q-12 0 -12 12z" />
    <glyph glyph-name="asciicircum" unicode="^" 
d="M223 685h55q9 0 13 -8l143 -319q5 -11 5 -13q0 -5 -10 -8l-48 -14q-11 -4 -15 6l-116 258l-115 -258q-2 -7 -10 -7q-3 0 -5 1l-48 14q-10 3 -10 8q0 2 5 13l143 319q4 8 13 8z" />
    <glyph glyph-name="underscore" unicode="_" 
d="M0 -125v50h500v-50h-500z" />
    <glyph glyph-name="grave" unicode="`" horiz-adv-x="308" 
d="M55 657l29 43q5 8 10 8q2 0 10 -5l149 -115q4 -2 4 -7q0 -3 -4 -8l-13 -19q-4 -4 -7 -4t-7 2l-166 86q-9 6 -9 10q0 1 4 9z" />
    <glyph glyph-name="a" unicode="a" horiz-adv-x="463" 
d="M90 465l14 6q52 23 116 23q73 0 108 -25q50 -35 50 -115v-192q0 -68 12 -100h47q12 0 12 -12v-38q0 -12 -12 -12h-85q-14 0 -21 11t-14 33l-3 9l-4 -4q-63 -63 -140 -63q-58 0 -94 38t-36 103q0 62 38 105q54 60 203 68l21 1v36q0 19 -2.5 32.5t-10.5 28t-26.5 22
t-45.5 7.5q-56 0 -111 -26l-14 -6q-6 0 -8 5l-15 40q-1 2 -1 8q0 8 22 17zM302 110v129h-4q-93 0 -137 -27q-45 -27 -45 -79q0 -44 22 -64.5t50 -20.5q52 0 108 56z" />
    <glyph glyph-name="b" unicode="b" horiz-adv-x="499" 
d="M160 705v-262l9 7q58 44 118 44q162 0 162 -234q0 -127 -40 -197q-44 -77 -142 -77q-74 0 -128 49l-2 -5q-18 -44 -31 -44q-3 0 -12 6l-33 22q-8 6 -8 9v1q0 2 2 4l2 3l3 4q24 32 24 87v533h-65q-12 0 -12 12v38q0 12 12 12h129q12 0 12 -12zM160 377v-286
q54 -38 103 -38q64 0 87 68q17 51 17 143q0 86 -18 120q-22 43 -76 43q-38 0 -94 -37z" />
    <glyph glyph-name="c" unicode="c" horiz-adv-x="432" 
d="M375 90l19 -47q3 -8 -12 -18q-22 -14 -63.5 -26.5t-82.5 -12.5q-90 0 -140 70q-46 65 -46 169q0 126 59 201q55 68 140 68q27 0 64.5 -9t60.5 -24l8 -5q10 -6 10 -16v-90q0 -12 -12 -12h-41q-12 0 -12 12v58q-36 19 -73 19q-29 0 -51 -9.5t-35 -28t-21 -36t-11 -42.5
t-3.5 -38t-0.5 -33q0 -28 1.5 -49.5t8.5 -49t18.5 -45.5t34 -30.5t52.5 -12.5q53 0 112 36q10 5 11 5q3 0 5 -4z" />
    <glyph glyph-name="d" unicode="d" horiz-adv-x="518" 
d="M495 50v-38q0 -12 -12 -12h-90q-5 0 -9.5 2t-7.5 4.5t-5.5 7t-3.5 7t-3 8t-2 6.5l-4 10q-68 -59 -141 -59q-84 0 -126 67q-41 65 -41 177q0 145 59 213q44 51 121 51q67 0 114 -34v195h-64q-12 0 -12 12v38q0 12 12 12h128q12 0 12 -12v-580q0 -34 4 -54l2 -9h57
q12 0 12 -12zM344 112v282q-51 33 -109 33q-55 0 -80 -40q-23 -38 -23 -155q0 -103 18 -136q23 -43 73 -43q60 0 121 59z" />
    <glyph glyph-name="e" unicode="e" horiz-adv-x="469" 
d="M396 88l18 -45q1 -2 1 -6q0 -7 -37 -25q-58 -26 -113 -26q-107 0 -166 76q-52 68 -52 178q0 122 62 193q54 61 137 61q79 0 124 -49q57 -60 57 -199v-5q0 -17 -11 -17h-287v-5q0 -58 25 -102q19 -33 50.5 -48.5t62.5 -15.5q49 0 110 35q8 4 12 5h2q4 0 5 -5zM129 286h216
q0 47 -16 85q-25 61 -89 61q-63 0 -92 -59q-19 -40 -19 -87z" />
    <glyph glyph-name="f" unicode="f" horiz-adv-x="333" 
d="M188 62h70q12 0 12 -12v-38q0 -12 -12 -12h-202q-12 0 -12 12v38q0 12 12 12h56v356h-65q-12 0 -12 12v38q0 12 12 12h65v78q0 83 33 123q35 43 102 43q63 0 102 -22q14 -9 10 -19l-17 -41q-4 -7 -9 -7q-3 0 -13 5q-37 17 -69 17q-33 0 -48 -18t-15 -63v-96h144
q15 0 10 -14l-13 -39q-2 -9 -13 -9h-128v-356z" />
    <glyph glyph-name="g" unicode="g" horiz-adv-x="501" 
d="M347 -35l-4 107q-65 -59 -129 -59q-75 0 -121 72q-43 68 -43 168q0 117 67 188q50 53 117 53q74 0 129 -48l2 6q6 20 21 37q6 7 15 2l37 -21q8 -5 8 -9q0 -1 -5 -13q-22 -50 -22 -90v-181l4 -211q2 -81 -44 -128.5t-131 -47.5q-80 0 -144 33l-10 5q-15 8 -15 18q0 1 3 7
l17 37q3 6 7 6q1 0 19 -8q64 -31 123 -31q42 0 71.5 27t27.5 81zM343 138v250l-5 3q-60 36 -96 36q-47 0 -78 -41q-32 -41 -32 -124q0 -88 23 -131q12 -23 33 -37t44 -14q24 0 55.5 17t55.5 41z" />
    <glyph glyph-name="h" unicode="h" horiz-adv-x="553" 
d="M526 50v-38q0 -12 -12 -12h-120q-12 0 -12 12v334q0 39 -13 57q-17 24 -54 24q-30 0 -68.5 -18t-63.5 -43v-304h56q12 0 12 -12v-38q0 -12 -12 -12h-189q-12 0 -12 12v38q0 12 12 12h57v593h-60q-12 0 -12 12v38q0 12 12 12h124q12 0 12 -12v-276q74 65 158 65
q64 0 92 -38q25 -33 25 -112v-282h56q12 0 12 -12z" />
    <glyph glyph-name="i" unicode="i" horiz-adv-x="278" 
d="M265 50v-38q0 -12 -12 -12h-219q-12 0 -12 12v38q0 12 12 12h72v356h-79q-12 0 -12 12v38q0 12 12 12h142q13 0 13 -15v-403h71q12 0 12 -12zM199 656q0 -25 -18 -43t-43 -18t-43 18t-18 43t18 43t43 18t43 -18t18 -43z" />
    <glyph glyph-name="j" unicode="j" horiz-adv-x="273" 
d="M193 468v-521q0 -17 -1.5 -32.5t-10 -40t-22.5 -41.5t-43 -30t-69 -13q-54 0 -107 25q-16 8 -16 14q0 2 2 8l19 42q3 5 7 5h1q4 0 11 -4q46 -23 83 -23q13 0 23 2t17 7t12.5 8.5t8.5 13.5t5 13.5t3 16.5t1 15.5v16.5v15v453h-79q-12 0 -12 12v38q0 12 12 12h143
q12 0 12 -12zM210 656q0 -25 -18 -43t-43 -18t-43 18t-18 43t18 43t43 18t43 -18t18 -43z" />
    <glyph glyph-name="k" unicode="k" horiz-adv-x="526" 
d="M506 50v-38q0 -8 -2.5 -10t-8.5 -2h-93q-10 0 -17 8l-202 238v-184h56q12 0 12 -12v-38q0 -12 -12 -12h-189q-12 0 -12 12v38q0 12 12 12h57v593h-60q-12 0 -12 12v38q0 12 12 12h122q14 0 14 -13v-444l154 158h-45q-12 0 -12 12v38q0 12 12 12h190q12 0 12 -12v-38
q0 -12 -12 -12h-51l-162 -158l174 -198h52h4.5t3 -1t2.5 -4t1 -7z" />
    <glyph glyph-name="l" unicode="l" horiz-adv-x="278" 
d="M260 60l13 -42q4 -12 -9 -17q-32 -15 -75 -15q-70 0 -93 48q-14 29 -14 86v535h-60q-12 0 -12 12v38q0 12 12 12h124q12 0 12 -12v-563q0 -64 10 -76q10 -13 33 -13q13 0 40 9q10 4 12 4q4 0 7 -6z" />
    <glyph glyph-name="m" unicode="m" horiz-adv-x="755" 
d="M730 50v-38q0 -12 -12 -12h-120q-12 0 -12 12v334q0 81 -65 81q-43 0 -88 -34l-9 -7v-324h56q12 0 12 -12v-38q0 -12 -12 -12h-120q-12 0 -12 12v334q0 81 -66 81q-46 0 -96 -41v-324h57q12 0 12 -12v-38q0 -12 -12 -12h-190q-12 0 -12 12v38q0 12 12 12h57v293
q0 35 -4 54l-2 9h-57q-12 0 -12 12v38q0 12 12 12h96q10 0 15.5 -7t13.5 -31l2 -6q79 58 140 58q62 0 92 -53l4 -7q71 60 143 60q49 0 78 -31q14 -15 21.5 -37t8.5 -37.5t1 -44.5v-282h56q12 0 12 -12z" />
    <glyph glyph-name="n" unicode="n" horiz-adv-x="551" 
d="M526 50v-38q0 -12 -12 -12h-120q-12 0 -12 12v334q0 40 -15 59q-18 22 -52 22q-60 0 -121 -54l-8 -7v-304h57q12 0 12 -12v-38q0 -12 -12 -12h-190q-12 0 -12 12v38q0 12 12 12h57v293q0 35 -4 54l-2 9h-57q-12 0 -12 12v38q0 12 12 12h100q8 0 14 -9q8 -12 15 -36l2 -9
l9 7q78 61 155 61q61 0 92 -41q24 -32 24 -109v-282h56q12 0 12 -12z" />
    <glyph glyph-name="o" unicode="o" horiz-adv-x="498" 
d="M448 243q0 -132 -58 -194.5t-147 -62.5q-81 0 -137 60t-56 192q0 131 57.5 193.5t145.5 62.5q84 0 139.5 -60t55.5 -191zM250 48q116 0 116 196q0 188 -117 188t-117 -185q0 -199 118 -199z" />
    <glyph glyph-name="p" unicode="p" horiz-adv-x="514" 
d="M255 -152v-38q0 -12 -12 -12h-197q-12 0 -12 12v38q0 12 12 12h57v495q0 34 -4 54l-2 9h-57q-12 0 -12 12v38q0 12 12 12h90q5 0 9.5 -2t7.5 -4.5t5.5 -7t3.5 -7t3 -8t2 -6.5l4 -10l5 4q68 55 135 55q83 0 123 -66q36 -59 36 -178q0 -77 -16 -132t-43 -82t-53.5 -38.5
t-54.5 -11.5q-58 0 -114 41l-4 3v-170h64q12 0 12 -12zM179 378v-282q60 -43 104 -43q58 0 80 49q19 40 19 146q0 89 -15 126q-22 53 -73 53q-43 0 -109 -45z" />
    <glyph glyph-name="q" unicode="q" horiz-adv-x="499" 
d="M343 -140v185q-65 -59 -129 -59q-78 0 -121 70t-43 194q0 123 62 191q49 53 122 53q72 0 129 -48l2 6q6 20 21 37q6 7 15 2l37 -21q8 -5 8 -9q0 -1 -5 -13q-22 -50 -22 -90v-498h56q12 0 12 -12v-38q0 -12 -12 -12h-196q-12 0 -12 12v38q0 12 12 12h64zM343 111v277l-5 3
q-60 36 -100 36q-55 0 -82 -51q-24 -46 -24 -128q0 -97 22 -144q25 -51 74 -51q54 0 115 58z" />
    <glyph glyph-name="r" unicode="r" horiz-adv-x="353" 
d="M263 50v-38q0 -12 -12 -12h-195q-12 0 -12 12v38q0 12 12 12h56v293q0 21 -11 63h-54q-12 0 -12 12v38q0 12 12 12h90q11 0 22 -18t17 -47l1 -5l14 16q29 34 49 48q30 20 61 20q17 0 36 -8q10 -5 7 -14l-24 -55q-2 -6 -6 -6l-2 1q-1 0 -3 1q-16 7 -24 7q-32 0 -81 -59
l-16 -19v-280h63q12 0 12 -12z" />
    <glyph glyph-name="s" unicode="s" horiz-adv-x="389" 
d="M271 361v55l-6 2q-38 11 -62 11q-36 0 -53.5 -19t-17.5 -47q0 -25 10 -38q13 -21 87 -56q81 -36 104 -70q21 -31 21 -71q0 -62 -44 -102t-116 -40q-63 0 -124 27q-28 12 -28 23v92q0 12 12 12h41q12 0 12 -12v-58l8 -3l6 -2q6 -2 14 -4l18 -4.5t22 -4t22 -1.5
q42 0 61.5 21t19.5 51q0 32 -28 54q-15 11 -43 25l-57 27q-48 24 -71 53t-23 73q0 59 42 100q41 39 107 39q60 0 120 -30q11 -6 11 -16v-87q0 -12 -12 -12h-41q-12 0 -12 12z" />
    <glyph glyph-name="t" unicode="t" horiz-adv-x="370" 
d="M340 74l12 -39q4 -15 -21 -25q-59 -24 -109 -24q-60 0 -92 35q-29 32 -29 113v284h-70q-12 0 -12 12v38q0 12 12 12h70v137q0 9 11 12l53 15q9 3 10.5 0t1.5 -10v-154h148q15 0 10 -14l-13 -39q-3 -9 -13 -9h-132v-292q0 -32 10 -50q14 -23 50 -23q32 0 79 21q15 6 17 6
q4 0 7 -6z" />
    <glyph glyph-name="u" unicode="u" horiz-adv-x="537" 
d="M517 50v-38q0 -12 -12 -12h-84q-13 0 -20 6.5t-17 27.5l-5 11q-67 -59 -147 -59q-71 0 -106 37q-32 34 -32 113v282h-56q-12 0 -12 12v38q0 12 12 12h120q12 0 12 -12v-334q0 -43 22 -62t55 -19q51 0 108 43l11 8v314h-57q-12 0 -12 12v38q0 12 12 12h121q12 0 12 -12
v-343q0 -36 4 -54l2 -9h57q12 0 12 -12z" />
    <glyph glyph-name="v" unicode="v" horiz-adv-x="474" 
d="M432 418l-165 -423q-7 -8 -12 -9h-40q-9 0 -11 7q-1 1 -1 2l-153 423h-33q-12 0 -12 12v38q0 12 12 12h169q12 0 12 -12v-34q0 -12 -12 -12h-55l88 -268q11 -34 18 -63h2q8 35 18 62l97 269h-59q-12 0 -12 12v34q0 12 12 12h166q12 0 12 -12v-38q0 -12 -12 -12h-29z" />
    <glyph glyph-name="w" unicode="w" horiz-adv-x="667" 
d="M137 422l57 -273l10 -55h2q3 21 11 55l95 321q3 10 14 10h36q12 0 14 -10l82 -334q5 -18 7 -39h2q2 24 6 39l71 286h-53q-12 0 -12 12v34q0 12 12 12h162q12 0 12 -12v-38q0 -12 -12 -12h-39l-119 -422q0 -10 -12 -10h-39q-8 0 -10 2.5t-3 7.5l-79 310q-9 36 -11 79h-2
q-5 -43 -15 -78l-94 -311q-3 -10 -11 -10h-40q-9 0 -11 10l-103 422h-37q-12 0 -12 12v38q0 12 12 12h174q12 0 12 -12v-34q0 -12 -12 -12h-65z" />
    <glyph glyph-name="x" unicode="x" 
d="M476 50v-38q0 -12 -12 -12h-160q-12 0 -12 12v34q0 12 12 12h36l-61 93q-19 28 -26 42l-24 -37l-69 -98h46q12 0 12 -12v-34q0 -12 -12 -12h-169q-12 0 -12 12v38q0 12 12 12h37l140 183l-122 173h-45q-12 0 -12 12v38q0 12 12 12h167q12 0 12 -12v-34q0 -12 -12 -12h-38
l66 -102l11 -18l13 20l69 100h-38q-12 0 -12 12v34q0 12 12 12h155q12 0 12 -12v-38q0 -12 -12 -12h-35l-124 -165l134 -191h37q12 0 12 -12z" />
    <glyph glyph-name="y" unicode="y" 
d="M446 418l-103 -356q-33 -113 -52 -162t-41 -71q-37 -39 -96 -39q-47 0 -101 29q-18 10 -21.5 16.5t0.5 10.5l20 40q2 5 7 5q3 0 17 -10q44 -29 78 -29q27 0 46 22q16 18 31 63l21 63h-36q-9 0 -13 9l-144 409h-40q-12 0 -12 12v38q0 12 12 12h183q12 0 12 -12v-35v-4.5
t-1 -3t-4 -2.5t-7 -1h-64l109 -321q10 -30 19 -68l1 -4h2q3 22 15 70l84 323h-59q-12 0 -12 12v34q0 12 12 12h174q12 0 12 -12v-38q0 -12 -12 -12h-37z" />
    <glyph glyph-name="z" unicode="z" horiz-adv-x="446" 
d="M331 65l31 77q4 11 18 6l40 -16q10 -4 5 -18l-42 -105q-4 -9 -13 -9h-311q-12 0 -12 12v40l251 363h-165v-68q0 -12 -12 -12h-42q-12 0 -12 12v121q0 12 12 12h302q6 0 8.5 -1.5t3 -3t0.5 -5.5v-2v-41l-249 -362h187z" />
    <glyph glyph-name="braceleft" unicode="{" horiz-adv-x="426" 
d="M386 -140v-38q0 -12 -12 -12h-22q-81 0 -121 34q-45 38 -45 120v178q0 55 -30 76q-19 13 -59 13h-21q-12 0 -12 12v36q0 12 12 12h21q40 0 59 13q30 21 30 76v178q0 82 45 120q40 34 121 34h22q12 0 12 -12v-38q0 -12 -12 -12h-19q-52 0 -72 -20q-21 -20 -21 -71v-178
q0 -94 -72 -120q72 -26 72 -120v-178q0 -51 21 -71q20 -20 72 -20h19q12 0 12 -12z" />
    <glyph glyph-name="bar" unicode="|" horiz-adv-x="304" 
d="M188 738v-976q0 -12 -12 -12h-48q-12 0 -12 12v976q0 12 12 12h48q12 0 12 -12z" />
    <glyph glyph-name="braceright" unicode="}" horiz-adv-x="426" 
d="M40 662v38q0 12 12 12h22q81 0 121 -34q45 -38 45 -120v-178q0 -55 30 -76q19 -13 59 -13h21q12 0 12 -12v-36q0 -12 -12 -12h-21q-40 0 -59 -13q-30 -21 -30 -76v-178q0 -82 -45 -120q-40 -34 -121 -34h-22q-12 0 -12 12v38q0 12 12 12h19q52 0 72 20q21 20 21 71v178
q0 94 72 120q-72 26 -72 120v178q0 51 -21 71q-20 20 -72 20h-19q-12 0 -12 12z" />
    <glyph glyph-name="asciitilde" unicode="~" horiz-adv-x="469" 
d="M428 314l28 -17q1 0 3 -1t3 -2.5t1 -3.5q0 -6 -7 -16q-26 -40 -55 -62.5t-77 -22.5q-43 0 -91 28q-56 34 -87 34q-52 0 -84 -48q-8 -13 -21 -5l-28 17q-7 5 -7 8q0 5 8 18q54 83 131 83q43 0 102 -33q47 -27 64 -29q7 -1 15 -1q47 0 80 47q10 14 22 6z" />
    <glyph glyph-name="exclamdown" unicode="&#xa1;" horiz-adv-x="333" 
d="M237 427q0 -29 -20.5 -49.5t-49.5 -20.5t-49.5 20.5t-20.5 49.5t20.5 49.5t49.5 20.5t49.5 -20.5t20.5 -49.5zM150 218h32q12 0 12 -13l22 -395q1 -12 -13 -12h-76q-14 0 -13 12l24 395q0 13 12 13z" />
    <glyph glyph-name="cent" unicode="&#xa2;" 
d="M313 67v-59v-2q0 -4 -0.5 -6t-3.5 -3.5t-10 -1.5h-26q-10 0 -12 2.5t-2 8.5v2v55q-78 4 -127 65q-48 61 -48 176q0 124 49 190q47 63 126 74v53q0 10 3 12t9 2h2h26q10 0 12 -3t2 -9v-2v-53q58 -3 103 -32q15 -10 15 -17q0 -1 -3 -7l-22 -38q-3 -6 -9 -6q-2 0 -15 7
q-38 23 -69 26v-366l10 2q25 5 71 29q7 4 9 4q4 0 7 -6l17 -42q5 -10 -10 -19q-46 -29 -104 -36zM259 133v366q-34 -7 -56 -28.5t-30.5 -53t-10.5 -53t-2 -51.5q0 -32 3 -55t12 -51t30 -47t54 -27z" />
    <glyph glyph-name="sterling" unicode="&#xa3;" 
d="M190 372h137q12 0 12 -12v-41q0 -12 -12 -12h-121l2 -8q16 -64 16 -116q0 -53 -12 -105l-3 -13h270q20 0 12 -16l-17 -39q-4 -10 -15 -10h-413q-12 0 -12 12v41q0 12 12 12h87l2 8q13 52 13 112q0 64 -15 115l-2 7h-92q-12 0 -12 12v41q0 12 12 12h78q-17 61 -17 91
q0 88 54.5 141t150.5 53q71 0 131 -27q25 -11 18 -24l-20 -41q-2 -5 -8 -6h-3q-2 0 -4.5 1.5t-7 3.5t-9.5 4q-52 22 -97 22q-64 0 -96.5 -33.5t-32.5 -79.5q0 -30 10 -84z" />
    <glyph glyph-name="currency" unicode="&#xa4;" horiz-adv-x="491" 
d="M17 118l60 61q-48 60 -48 135t48 135l-60 61q-10 10 0 20l12 12q10 10 20 0l61 -60q60 48 135 48t135 -48l61 60q10 10 20 0l12 -12q10 -10 0 -20l-60 -61q48 -60 48 -135t-48 -135l60 -60q11 -11 0 -21l-12 -12q-10 -10 -20 0l-61 60q-62 -48 -136 -48q-72 0 -134 48
l-61 -60q-10 -10 -20 0l-12 12q-10 10 0 20zM125 194q50 -50 120 -50t120 50t50 120t-50 120t-120 50t-120 -50t-50 -120t50 -120z" />
    <glyph glyph-name="yen" unicode="&#xa5;" horiz-adv-x="537" 
d="M394 53v-41q0 -12 -12 -12h-222q-12 0 -12 12v41q0 12 12 12h70v182h-182q-12 0 -12 11v16q0 15 8 16q3 1 7 1h179l-33 66h-149q-12 0 -12 11v16q0 15 8 16q3 1 7 1h125l-107 219h-37q-12 0 -12 12v42v4.5t1 3t4 2.5t7 1h186q11 0 11 -11v-42q0 -8 -2.5 -10t-8.5 -2h-62
l93 -202q21 -45 26 -59q3 10 23 59l89 202h-64q-11 0 -11 12v42q0 11 11 11h187q11 0 11 -11v-42q0 -8 -2.5 -10t-8.5 -2h-42l-104 -219h123q11 0 13 -3.5t2 -13.5v-16q0 -11 -12 -11h-147l-31 -66h175q11 0 13 -3.5t2 -13.5v-16q0 -11 -12 -11h-178v-182h70q12 0 12 -12z
" />
    <glyph glyph-name="brokenbar" unicode="&#xa6;" horiz-adv-x="304" 
d="M188 661v-336h-72v336q0 10 2.5 12t8.5 2h2h46q13 0 13 -14zM188 175v-336q0 -7 -1.5 -10t-3 -3.5t-5.5 -0.5h-3h-46h-3h-4.5t-3 1.5t-2 4.5t-0.5 8v336h72z" />
    <glyph glyph-name="section" unicode="&#xa7;" 
d="M387 533l-18 -38q-2 -7 -7 -7q-4 0 -17 8q-37 28 -89 28q-38 0 -58 -18.5t-20 -43.5q0 -34 45 -61q3 -2 75 -39q34 -18 44 -25q80 -50 80 -122q0 -56 -46 -102q-36 -36 -73 -52l20 -12t17 -9.5t12.5 -8.5t14.5 -13q35 -35 35 -84q0 -51 -34 -89q-48 -55 -132 -55
q-60 0 -136 40q-27 15 -20 29l20 39q5 8 10 8q6 0 11 -5q22 -18 58 -31t62 -13q34 0 60 23q25 20 25 47q0 32 -23 55q-16 16 -87 50l-17 8q-52 26 -79 50q-42 38 -42 93q0 58 29.5 91.5t88.5 65.5q-36 13 -65 43t-29 75q0 67 51 103q41 30 109 30q56 0 113 -31q15 -9 15 -18
q0 -3 -3 -9zM250 94q96 46 96 109q0 32 -24 58q-18 19 -78 50q-42 -23 -68 -54q-22 -29 -22 -61q0 -34 25 -59q20 -20 71 -43z" />
    <glyph glyph-name="dieresis" unicode="&#xa8;" horiz-adv-x="308" 
d="M104 629q0 -21 -15.5 -37t-37.5 -16t-37.5 15.5t-15.5 37.5t15.5 37.5t37.5 15.5t37.5 -16t15.5 -37zM195 629q0 22 15.5 37.5t37.5 15.5t37.5 -15.5t15.5 -37.5t-15.5 -37.5t-37.5 -15.5t-37.5 15.5t-15.5 37.5z" />
    <glyph glyph-name="copyright" unicode="&#xa9;" horiz-adv-x="492" 
d="M40 468q0 85 60.5 145.5t145.5 60.5t145.5 -60.5t60.5 -145.5t-60.5 -145.5t-145.5 -60.5t-145.5 60.5t-60.5 145.5zM84 468q0 -67 47.5 -114.5t114.5 -47.5t114.5 47.5t47.5 114.5t-47.5 114.5t-114.5 47.5t-114.5 -47.5t-47.5 -114.5zM276 523v22q-14 4 -27 4
q-23 0 -29.5 -20.5t-6.5 -55.5q0 -26 2 -42t12 -30.5t29 -14.5q4 0 20 3v22q0 10 10 10h15q10 0 10 -10v-35q0 -11 -21 -18t-38 -7q-50 0 -70 35t-20 82q0 117 85 117q20 0 35.5 -5.5t22 -11.5t6.5 -11v-34q0 -10 -10 -10h-15q-10 0 -10 10z" />
    <glyph glyph-name="ordfeminine" unicode="&#xaa;" horiz-adv-x="444" 
d="M371 325h-72q-13 0 -23 36l-2 -2q-41 -41 -98 -41q-41 0 -65.5 24.5t-24.5 65.5q0 58 42 90q45 34 140 34v18q0 25 -12.5 37.5t-49.5 12.5q-36 0 -70 -16q-13 -5 -14 -5q-5 0 -7 7l-8 27q-1 4 -2 9l-1 2q0 12 40 22.5t78 10.5q66 0 87.5 -26t21.5 -69v-118q0 -43 8 -67
h32q8 0 8 -8v-36q0 -8 -8 -8zM268 403v80q-16 0 -32.5 -1.5t-37 -8t-33 -21.5t-12.5 -38q0 -20 11 -31t18 -12t13 -1q34 0 73 33z" />
    <glyph glyph-name="guillemotleft" unicode="&#xab;" horiz-adv-x="480" 
d="M117 239l130 -193q3 -6 3 -7q0 -5 -6 -8l-33 -19q-4 -2 -5 -2q-3 0 -11 8l-168 211q-5 5 -5 10t5 10l168 211q8 8 11 8q1 0 5 -2l33 -19q6 -3 6 -8q0 -1 -3 -7zM302 239l130 -193q3 -6 3 -7q0 -5 -6 -8l-33 -19q-4 -2 -5 -2q-3 0 -11 8l-168 211q-5 5 -5 10t5 10l168 211
q8 8 11 8q1 0 5 -2l33 -19q6 -3 6 -8q0 -1 -3 -7z" />
    <glyph glyph-name="logicalnot" unicode="&#xac;" 
d="M477 346v-185q0 -12 -12 -12h-48q-12 0 -12 12v125h-371q-12 0 -12 12v48q0 12 12 12h431q12 0 12 -12z" />
    <glyph glyph-name="registered" unicode="&#xae;" horiz-adv-x="492" 
d="M40 468q0 85 60.5 145.5t145.5 60.5t145.5 -60.5t60.5 -145.5t-60.5 -145.5t-145.5 -60.5t-145.5 60.5t-60.5 145.5zM84 468q0 -67 47.5 -114.5t114.5 -47.5t114.5 47.5t47.5 114.5t-47.5 114.5t-114.5 47.5t-114.5 -47.5t-47.5 -114.5zM177 388v163h-14q-10 0 -10 10v12
q0 10 10 10h91q70 0 70 -61q0 -48 -44 -61l44 -73h11q10 0 10 -10v-12q0 -10 -10 -10h-32q-11 0 -16 9l-51 89h-14v-66h14q10 0 10 -10v-12q0 -10 -10 -10h-73q-10 0 -10 10v12q0 10 10 10h14zM222 551v-65h20q35 0 35 35q0 12 -9 21t-22 9h-24z" />
    <glyph glyph-name="macron" unicode="&#xaf;" horiz-adv-x="308" 
d="M31 610v38q0 12 12 12h221q12 0 12 -12v-38q0 -12 -12 -12h-221q-12 0 -12 12z" />
    <glyph glyph-name="macron" unicode="&#x2c9;" horiz-adv-x="308" 
d="M31 610v38q0 12 12 12h221q12 0 12 -12v-38q0 -12 -12 -12h-221q-12 0 -12 12z" />
    <glyph glyph-name="degree" unicode="&#xb0;" 
d="M404 531q0 -64 -45.5 -109t-108.5 -45q-64 0 -109.5 45t-45.5 109t45.5 109t109.5 45q63 0 108.5 -45t45.5 -109zM249 440q38 0 65 26.5t27 64.5t-27 64.5t-65 26.5t-64.5 -26.5t-26.5 -64.5t26.5 -64.5t64.5 -26.5z" />
    <glyph glyph-name="plusminus" unicode="&#xb1;" 
d="M285 290h180q12 0 12 -12v-48q0 -12 -12 -12h-180v-146q0 -12 -12 -12h-48q-12 0 -12 12v146h-179q-12 0 -12 12v48q0 12 12 12h179v178q0 12 12 12h48q12 0 12 -12v-178zM477 9v-47q0 -12 -12 -12h-431q-12 0 -12 12v47q0 13 12 13h431q12 0 12 -13z" />
    <glyph glyph-name="twosuperior" unicode="&#xb2;" horiz-adv-x="352" 
d="M298 299v-26q0 -18 -19 -18h-207q-18 0 -18 16v5q0 62 28 110q6 11 13.5 20.5l12.5 15.5t14.5 13.5t14 10.5l16 11t15.5 11l31 22q31 21 31 54q0 26 -14 39q-14 14 -37 14q-43 0 -60 -51l-2 -6q-5 -14 -22 -9l-27 7q-13 3 -13 14q0 5 2 11l5 13q9 25 35 48q31 27 83 27
q54 0 85 -27q33 -28 33 -77q0 -40 -32 -79q-15 -17 -61 -48l-28 -19q-20 -14 -35 -36.5t-17 -47.5h154q19 0 19 -18z" />
    <glyph glyph-name="threesuperior" unicode="&#xb3;" horiz-adv-x="352" 
d="M103 444v27q0 7 2 10.5t4.5 4t6.5 0.5h2h22q40 0 59.5 19t19.5 44q0 21 -16 34.5t-43 13.5q-32 0 -63 -26q-12 -9 -16 -10h-3q-1 1 -2.5 2t-2.5 2l-24 18q-4 3 -4 8q0 4 9 16q14 18 45 31q29 13 64 13q55 0 87 -28q32 -27 32 -73q0 -22 -13 -45t-35 -35l-7 -4
q36 -15 52 -40q17 -26 17 -60q0 -52 -37 -84q-40 -35 -110 -35q-52 0 -91 14q-28 9 -20 26l13 26q5 8 9 8l12 -4q38 -16 78 -16t59 19t19 47q0 35 -25 52q-20 14 -63 14h-22q-15 0 -15 11z" />
    <glyph glyph-name="acute" unicode="&#xb4;" horiz-adv-x="308" 
d="M224 700l29 -43q4 -8 4 -9q0 -4 -9 -10l-166 -86q-4 -2 -7 -2t-7 4l-13 19q-4 5 -4 8q0 5 4 7l149 115q8 5 10 5q5 0 10 -8z" />
    <glyph glyph-name="mu" unicode="&#xb5;" horiz-adv-x="556" 
d="M527 50v-38q0 -12 -12 -12h-84q-14 0 -20 5t-17 29l-5 11q-72 -59 -139 -59q-43 0 -70 25v-151h63q12 0 12 -12v-38q0 -12 -12 -12h-190q-12 0 -12 12v38q0 12 12 12h51v558h-56q-12 0 -12 12v38q0 12 12 12h120q12 0 12 -12v-334q0 -81 82 -81q22 0 57.5 16t56.5 35v314
h-57q-12 0 -12 12v38q0 12 12 12h121q12 0 12 -12v-343q0 -34 4 -54l2 -9h57q12 0 12 -12z" />
    <glyph glyph-name="mu" unicode="&#x3bc;" horiz-adv-x="556" 
d="M527 50v-38q0 -12 -12 -12h-84q-14 0 -20 5t-17 29l-5 11q-72 -59 -139 -59q-43 0 -70 25v-151h63q12 0 12 -12v-38q0 -12 -12 -12h-190q-12 0 -12 12v38q0 12 12 12h51v558h-56q-12 0 -12 12v38q0 12 12 12h120q12 0 12 -12v-334q0 -81 82 -81q22 0 57.5 16t56.5 35v314
h-57q-12 0 -12 12v38q0 12 12 12h121q12 0 12 -12v-343q0 -34 4 -54l2 -9h57q12 0 12 -12z" />
    <glyph glyph-name="paragraph" unicode="&#xb6;" horiz-adv-x="611" 
d="M501 620v-794q0 -12 -12 -12h-45q-12 0 -12 12v794h-64v-794q0 -12 -12 -12h-45q-12 0 -12 12v348l-16 -2q-32 -5 -58 -5q-33 0 -62 10t-59 35.5t-47.5 80t-17.5 133.5q0 105 37 168q24 41 69.5 66t141.5 25h283q12 0 12 -12v-41q0 -12 -12 -12h-69zM299 238v382h-23
q-26 0 -39 -0.5t-34 -7.5t-36 -21q-41 -38 -41 -162q0 -32 1.5 -54.5t8.5 -51.5t20 -47t38 -31t59 -13q16 0 46 6z" />
    <glyph glyph-name="periodcentered" unicode="&#xb7;" horiz-adv-x="250" 
d="M187 254q0 -26 -18.5 -44t-43.5 -18q-26 0 -44 18.5t-18 43.5t18 43.5t44 18.5q25 0 43.5 -18t18.5 -44z" />
    <glyph glyph-name="periodcentered" unicode="&#x22c5;" horiz-adv-x="250" 
d="M187 254q0 -26 -18.5 -44t-43.5 -18q-26 0 -44 18.5t-18 43.5t18 43.5t44 18.5q25 0 43.5 -18t18.5 -44z" />
    <glyph glyph-name="periodcentered" unicode="&#x2219;" horiz-adv-x="250" 
d="M187 254q0 -26 -18.5 -44t-43.5 -18q-26 0 -44 18.5t-18 43.5t18 43.5t44 18.5q25 0 43.5 -18t18.5 -44z" />
    <glyph glyph-name="cedilla" unicode="&#xb8;" horiz-adv-x="308" 
d="M156 0l-5 -54q27 -2 43 -9q34 -14 34 -56q0 -36 -28 -57.5t-75 -21.5q-23 0 -46 7q-15 6 -14 12l5 38q0 5 5 5l12 -3q18 -5 40 -5q40 0 40 23q0 14 -22 20q-6 1 -16.5 1.5t-23.5 2.5q-15 2 -15 13q0 6 1 18l7 66h58z" />
    <glyph glyph-name="onesuperior" unicode="&#xb9;" horiz-adv-x="352" 
d="M294 297v-30q0 -12 -11 -12h-179q-7 0 -11 2.5t-4 4v4.5v32v3t1.5 3.5t4.5 3.5t9 1h61v265l-83 -42q-12 -6 -19 4l-9 14q-8 12 5 20l119 73h34q6 0 8 -0.5t5 -4t3 -10.5v-319h51q15 0 15 -12z" />
    <glyph glyph-name="ordmasculine" unicode="&#xba;" horiz-adv-x="407" 
d="M338 489q0 -88 -39.5 -129.5t-98.5 -41.5q-55 0 -93 40t-38 127q0 51 13.5 87.5t35.5 53.5t43.5 24t44.5 7q56 0 94 -40.5t38 -127.5zM204 370q67 0 67 120q0 115 -67 115q-68 0 -68 -113q0 -122 68 -122z" />
    <glyph glyph-name="guillemotright" unicode="&#xbb;" horiz-adv-x="480" 
d="M178 239l-130 193q-3 6 -3 7q0 5 6 8l33 19q4 2 5 2q3 0 11 -8l168 -211q5 -5 5 -10t-5 -10l-168 -211q-8 -8 -11 -8q-1 0 -5 2l-33 19q-6 3 -6 8q0 1 3 7zM363 239l-130 193q-3 6 -3 7q0 5 6 8l33 19q4 2 5 2q3 0 11 -8l168 -211q5 -5 5 -10t-5 -10l-168 -211
q-8 -8 -11 -8q-1 0 -5 2l-33 19q-6 3 -6 8q0 1 3 7z" />
    <glyph glyph-name="onequarter" unicode="&#xbc;" horiz-adv-x="833" 
d="M299 294v-24v-2q0 -4 -0.5 -6.5t-4 -4.5t-10.5 -2h-175q-7 0 -10.5 2t-4 4.5t-0.5 6.5v2v24q0 7 2 10.5t4.5 4t6.5 0.5h2h61v265l-83 -42q-12 -6 -19 5l-9 13q-9 12 5 20l119 73h37q13 0 13 -15v-319h51h5.5t4.5 -1.5t4 -4.5t1 -9zM492 657h42q18 0 11 -17l-200 -644
q-3 -10 -18 -10h-38q-6 0 -9 1q-7 2 -2 15l199 645q2 7 8 9q2 1 7 1zM707 76v-75v-2q0 -4 -0.5 -6.5t-4 -4.5t-10.5 -2h-31q-8 0 -12 2t-4.5 4t-0.5 7v2v75h-165q-11 0 -11 12v38l172 250q6 9 22 7l30 -4q12 -1 12 -10q0 -4 -5 -11l-160 -230h105l7 87q1 13 11 14h6h24
q7 0 10.5 -2t4 -4.5t0.5 -6.5v-2v-86h47q7 0 10.5 -2t4 -4.5t0.5 -6.5v-2v-22v-2q0 -4 -0.5 -6.5t-4 -4.5t-10.5 -2h-47z" />
    <glyph glyph-name="onehalf" unicode="&#xbd;" horiz-adv-x="833" 
d="M303 297v-30q0 -12 -11 -12h-179q-14 0 -15 9v2v32q0 11 9 11h6h61v265l-83 -42q-12 -6 -19 4l-9 14q-8 12 5 20l119 73h34q6 0 8 -0.5t5 -4t3 -10.5v-319h51q15 0 15 -12zM496 657h42q18 0 11 -17l-200 -644q-3 -10 -16 -10h-40q-11 0 -13 4.5t2 11.5l199 645
q3 10 15 10zM761 44v-26q0 -18 -19 -18h-207q-18 0 -18 16v5q0 58 28 110q10 17 22.5 31t18.5 19t26 19l19 13l31 22q31 22 31 56q0 25 -14.5 38t-35.5 13q-44 0 -61 -51l-2 -6q-5 -14 -22 -9l-27 7q-13 3 -13 14q0 5 2 11l5 13q9 25 35 48q32 27 81 27q65 0 92.5 -32.5
t27.5 -71.5q0 -40 -30 -77q-15 -18 -63 -50l-28 -19q-20 -14 -35 -36.5t-17 -47.5h154q19 0 19 -18z" />
    <glyph glyph-name="threequarters" unicode="&#xbe;" horiz-adv-x="833" 
d="M120 444v27q0 7 2 10.5t4.5 4t6.5 0.5h2h22q40 0 59.5 19t19.5 44q0 21 -16 34.5t-43 13.5q-32 0 -63 -26q-12 -9 -16 -10h-3q-1 1 -2.5 2t-2.5 2l-24 18q-4 3 -4 8q0 4 9 16q14 18 45 31q29 13 64 13q55 0 87 -28q32 -27 32 -73q0 -22 -13 -45t-35 -35l-7 -4
q36 -15 52 -40q17 -26 17 -60q0 -52 -37 -84q-40 -35 -110 -35q-52 0 -91 14q-28 9 -20 26l13 26q5 8 9 8q1 0 2.5 -0.5t2.5 -1t3 -1t4 -1.5q38 -16 78 -16t59 19t19 47q0 35 -25 52q-20 14 -63 14h-22q-15 0 -15 11zM508 657h42q17 0 11 -17l-200 -644q-3 -10 -18 -10h-38
q-9 0 -11 2t0 14l199 645q3 10 15 10zM723 76v-75v-2q0 -4 -0.5 -6.5t-4 -4.5t-10.5 -2h-31q-8 0 -12 2t-4.5 4t-0.5 7v2v75h-161h-2q-4 0 -6.5 0.5t-4.5 4t-2 10.5v35l172 250l6 7q3 2 16 0l30 -4q7 0 10 -4q2 -4 2 -6q0 -3 -5 -11l-160 -230h105l7 87q1 14 17 14h24
q7 0 10.5 -2t4 -4.5t0.5 -6.5v-2v-86h47q7 0 10.5 -2t4 -4.5t0.5 -6.5v-2v-22q0 -13 -9 -15h-6h-47z" />
    <glyph glyph-name="questiondown" unicode="&#xbf;" horiz-adv-x="426" 
d="M191 316v92q0 12 12 12h44q12 0 12 -12v-117q0 -17 -3.5 -21t-19.5 -8q-62 -18 -85 -40q-31 -29 -31 -75q0 -45 26 -69q26 -25 72 -25q56 0 110 27q1 0 3.5 1.5t3.5 1.5h3q7 0 9 -7l15 -38q2 -6 2 -9q0 -5 -21 -15q-56 -28 -133 -28q-79 0 -124 40q-48 44 -48 120
q0 79 54 124q37 32 99 46zM153 629q0 29 20.5 49.5t49.5 20.5t49.5 -20.5t20.5 -49.5t-20.5 -49.5t-49.5 -20.5t-49.5 20.5t-20.5 49.5z" />
    <glyph glyph-name="Agrave" unicode="&#xc0;" horiz-adv-x="603" 
d="M593 53v-41q0 -12 -12 -12h-202q-12 0 -12 12v41q0 12 12 12h62l-39 139h-205l-38 -139h64q12 0 12 -12v-41q0 -12 -12 -12h-201q-12 0 -12 12v41q0 12 12 12h49l186 609q4 11 15 11h59q11 0 15 -11l185 -609h50q12 0 12 -12zM383 274l-60 221q-19 69 -23 95h-2
q-15 -74 -21 -95l-61 -221h167zM215 878l164 -102q5 -2 5 -6q0 -3 -2 -6l-13 -24q-3 -4 -7 -4q-1 0 -3 0.5t-4.5 1.5t-3.5 1l-172 69q-11 4 -11 10q0 4 3 9l29 50q3 4 7 4q2 0 8 -3z" />
    <glyph glyph-name="Aacute" unicode="&#xc1;" horiz-adv-x="603" 
d="M593 53v-41q0 -12 -12 -12h-202q-12 0 -12 12v41q0 12 12 12h62l-39 139h-205l-38 -139h64q12 0 12 -12v-41q0 -12 -12 -12h-201q-12 0 -12 12v41q0 12 12 12h49l186 609q4 11 15 11h59q11 0 15 -11l185 -609h50q12 0 12 -12zM383 274l-60 221q-19 69 -23 95h-2
q-15 -74 -21 -95l-61 -221h167zM225 776l164 102q6 3 8 3q4 0 7 -4l29 -50q3 -5 3 -9q0 -6 -11 -10l-172 -69q-1 0 -5 -1.5t-6 -1.5q-4 0 -7 4l-13 24q-2 3 -2 6q0 4 5 6z" />
    <glyph glyph-name="Acircumflex" unicode="&#xc2;" horiz-adv-x="603" 
d="M593 53v-41q0 -12 -12 -12h-202q-12 0 -12 12v41q0 12 12 12h62l-39 139h-205l-38 -139h64q12 0 12 -12v-41q0 -12 -12 -12h-201q-12 0 -12 12v41q0 12 12 12h49l186 609q4 11 15 11h59q11 0 15 -11l185 -609h50q12 0 12 -12zM383 274l-60 221q-19 69 -23 95h-2
q-15 -74 -21 -95l-61 -221h167zM298 799l-98 -52q-7 -4 -10 -4q-2 0 -6 4l-16 20q0 1 -1.5 2t-2 2.5t-0.5 3.5q0 6 8 10l111 77q9 6 15 6t15 -6l111 -77q8 -4 8 -10l-4 -8l-16 -20q-4 -4 -6 -4q-3 0 -10 4z" />
    <glyph glyph-name="Atilde" unicode="&#xc3;" horiz-adv-x="603" 
d="M593 53v-41q0 -12 -12 -12h-202q-12 0 -12 12v41q0 12 12 12h62l-39 139h-205l-38 -139h64q12 0 12 -12v-41q0 -12 -12 -12h-201q-12 0 -12 12v41q0 12 12 12h49l186 609q4 11 15 11h59q11 0 15 -11l185 -609h50q12 0 12 -12zM383 274l-60 221q-19 69 -23 95h-2
q-15 -74 -21 -95l-61 -221h167zM184 757l-31 12q-5 3 -5 7q0 3 10 22q32 58 84 58q25 0 57 -17l20 -11q22 -12 38 -12q24 0 40 24q9 14 13 14q6 0 8 -2l31 -12q5 -2 5 -7q0 -3 -10 -22q-32 -58 -84 -58q-28 0 -57 17l-14 8q-30 15 -45 15q-22 0 -39 -24q-9 -14 -13 -14
q-6 0 -8 2z" />
    <glyph glyph-name="Adieresis" unicode="&#xc4;" horiz-adv-x="603" 
d="M593 53v-41q0 -12 -12 -12h-202q-12 0 -12 12v41q0 12 12 12h62l-39 139h-205l-38 -139h64q12 0 12 -12v-41q0 -12 -12 -12h-201q-12 0 -12 12v41q0 12 12 12h49l186 609q4 11 15 11h59q11 0 15 -11l185 -609h50q12 0 12 -12zM383 274l-60 221q-19 69 -23 95h-2
q-15 -74 -21 -95l-61 -221h167zM143 804q0 22 16.5 39t39.5 17t39.5 -17t16.5 -39t-16.5 -39t-39.5 -17t-39.5 17t-16.5 39zM345 804q0 22 16.5 39t39.5 17t39.5 -17t16.5 -39t-16.5 -39t-39.5 -17t-39.5 17t-16.5 39z" />
    <glyph glyph-name="Aring" unicode="&#xc5;" horiz-adv-x="603" 
d="M593 53v-41q0 -12 -12 -12h-202q-12 0 -12 12v41q0 12 12 12h62l-39 139h-205l-38 -139h64q12 0 12 -12v-41q0 -12 -12 -12h-201q-12 0 -12 12v41q0 12 12 12h49l186 609q4 11 15 11h59q11 0 15 -11l185 -609h50q12 0 12 -12zM383 274l-60 221q-19 69 -23 95h-2
q-15 -74 -21 -95l-61 -221h167zM208 822q0 38 26 64t64 26t64 -26t26 -64t-26 -64t-64 -26t-64 26t-26 64zM254 822q0 -18 13 -31t31 -13t31 13t13 31t-13 31t-31 13t-31 -13t-13 -31z" />
    <glyph glyph-name="AE" unicode="&#xc6;" horiz-adv-x="797" 
d="M377 685h350q12 0 12 -12v-138q0 -12 -12 -12h-44q-12 0 -12 12v80h-177v-222h197q12 0 12 -12v-46q0 -12 -12 -12h-197v-253h184v89q0 12 12 12h44q12 0 12 -12v-147q0 -12 -12 -12h-387q-12 0 -12 12v41q0 12 12 12h64v142h-193l-63 -142h52q12 0 12 -12v-41
q0 -12 -12 -12h-181q-12 0 -12 12v41q0 12 12 12h41l286 600q9 20 24 20zM411 274v365h-2q-22 -54 -56 -130l-106 -235h164z" />
    <glyph glyph-name="Ccedilla" unicode="&#xc7;" horiz-adv-x="481" 
d="M441 167v-104q0 -10 -0.5 -13.5t-4.5 -8t-14 -11.5q-48 -31 -109 -41l-4 -42q77 -4 77 -66q0 -39 -30.5 -59.5t-75.5 -20.5q-26 0 -44 6q-14 4 -16.5 8t0.5 12l5 31q0 7 6 7q2 0 4 -0.5t5 -1.5l6 -2q19 -6 39 -6q39 0 39 25q0 20 -38 22l-19 1h-7q-6 1 -9.5 3t-4.5 6.5
t-1 7.5t1 9.5t1 8.5l5 50q-95 13 -145 94q-55 91 -55 267q0 182 66 271q58 79 166 79q58 0 118 -34q34 -19 34 -35v-111q0 -12 -12 -12h-44q-12 0 -12 12v85l-6 4q-35 24 -86 24q-61 0 -94 -49q-40 -59 -40 -203q0 -204 47 -274q36 -53 95 -53q46 0 81 23l8 5v86q0 12 12 12
h44q12 0 12 -12z" />
    <glyph glyph-name="Egrave" unicode="&#xc8;" horiz-adv-x="481" 
d="M449 159v-147q0 -12 -12 -12h-385q-12 0 -12 12v41q0 12 12 12h63v555h-63q-12 0 -12 12v41q0 12 12 12h378q12 0 12 -12v-138q0 -12 -12 -12h-44q-12 0 -12 12v80h-177v-222h197q12 0 12 -12v-46q0 -12 -12 -12h-197v-253h184v89q0 12 12 12h44q12 0 12 -12zM195 878
l164 -102q5 -2 5 -6q0 -3 -2 -6l-13 -24q-3 -4 -7 -4q-1 0 -3 0.5t-4.5 1.5t-3.5 1l-172 69q-11 4 -11 10q0 4 3 9l29 50q3 4 7 4q2 0 8 -3z" />
    <glyph glyph-name="Eacute" unicode="&#xc9;" horiz-adv-x="481" 
d="M449 159v-147q0 -12 -12 -12h-385q-12 0 -12 12v41q0 12 12 12h63v555h-63q-12 0 -12 12v41q0 12 12 12h378q12 0 12 -12v-138q0 -12 -12 -12h-44q-12 0 -12 12v80h-177v-222h197q12 0 12 -12v-46q0 -12 -12 -12h-197v-253h184v89q0 12 12 12h44q12 0 12 -12zM225 776
l164 102q6 3 8 3q4 0 7 -4l29 -50q3 -5 3 -9q0 -6 -11 -10l-172 -69q-1 0 -5 -1.5t-6 -1.5q-4 0 -7 4l-13 24q-2 3 -2 6q0 4 5 6z" />
    <glyph glyph-name="Ecircumflex" unicode="&#xca;" horiz-adv-x="481" 
d="M449 159v-147q0 -12 -12 -12h-385q-12 0 -12 12v41q0 12 12 12h63v555h-63q-12 0 -12 12v41q0 12 12 12h378q12 0 12 -12v-138q0 -12 -12 -12h-44q-12 0 -12 12v80h-177v-222h197q12 0 12 -12v-46q0 -12 -12 -12h-197v-253h184v89q0 12 12 12h44q12 0 12 -12zM278 799
l-98 -52q-7 -4 -10 -4q-2 0 -6 4l-16 20q0 1 -1.5 2t-2 2.5t-0.5 3.5q0 6 8 10l111 77q9 6 15 6t15 -6l111 -77q8 -4 8 -10l-4 -8l-16 -20q-4 -4 -6 -4q-3 0 -10 4z" />
    <glyph glyph-name="Edieresis" unicode="&#xcb;" horiz-adv-x="481" 
d="M449 159v-147q0 -12 -12 -12h-385q-12 0 -12 12v41q0 12 12 12h63v555h-63q-12 0 -12 12v41q0 12 12 12h378q12 0 12 -12v-138q0 -12 -12 -12h-44q-12 0 -12 12v80h-177v-222h197q12 0 12 -12v-46q0 -12 -12 -12h-197v-253h184v89q0 12 12 12h44q12 0 12 -12zM88 804
q0 22 17 39t39 17t39 -17t17 -39t-17 -39t-39 -17t-39 17t-17 39zM290 804q0 22 17 39t39 17t39 -17t17 -39t-17 -39t-39 -17t-39 17t-17 39z" />
    <glyph glyph-name="Igrave" unicode="&#xcc;" horiz-adv-x="333" 
d="M208 65h91q12 0 12 -12v-41q0 -12 -12 -12h-264q-12 0 -12 12v41q0 12 12 12h91v555h-91q-12 0 -12 12v41q0 12 12 12h264q12 0 12 -12v-41q0 -12 -12 -12h-91v-555zM115 878l164 -102q5 -2 5 -6q0 -3 -2 -6l-13 -24q-3 -4 -7 -4q-1 0 -3 0.5t-4.5 1.5t-3.5 1l-172 69
q-11 4 -11 10q0 4 3 9l29 50q3 4 7 4q2 0 8 -3z" />
    <glyph glyph-name="Iacute" unicode="&#xcd;" horiz-adv-x="333" 
d="M208 65h91q12 0 12 -12v-41q0 -12 -12 -12h-264q-12 0 -12 12v41q0 12 12 12h91v555h-91q-12 0 -12 12v41q0 12 12 12h264q12 0 12 -12v-41q0 -12 -12 -12h-91v-555zM85 776l164 102q6 3 8 3q4 0 7 -4l29 -50q3 -5 3 -9q0 -6 -11 -10l-172 -69q-1 0 -5 -1.5t-6 -1.5
q-4 0 -7 4l-13 24q-2 3 -2 6q0 4 5 6z" />
    <glyph glyph-name="Icircumflex" unicode="&#xce;" horiz-adv-x="333" 
d="M208 65h91q12 0 12 -12v-41q0 -12 -12 -12h-264q-12 0 -12 12v41q0 12 12 12h91v555h-91q-12 0 -12 12v41q0 12 12 12h264q12 0 12 -12v-41q0 -12 -12 -12h-91v-555zM163 799l-98 -52q-7 -4 -10 -4q-2 0 -6 4l-16 20q0 1 -1.5 2t-2 2.5t-0.5 3.5q0 6 8 10l111 77
q9 6 15 6t15 -6l111 -77q8 -4 8 -10l-4 -8l-16 -20q-4 -4 -6 -4q-3 0 -10 4z" />
    <glyph glyph-name="Idieresis" unicode="&#xcf;" horiz-adv-x="333" 
d="M208 65h91q12 0 12 -12v-41q0 -12 -12 -12h-264q-12 0 -12 12v41q0 12 12 12h91v555h-91q-12 0 -12 12v41q0 12 12 12h264q12 0 12 -12v-41q0 -12 -12 -12h-91v-555zM14 804q0 22 17 39t39 17t39 -17t17 -39t-17 -39t-39 -17t-39 17t-17 39zM216 804q0 22 17 39t39 17
t39 -17t17 -39t-17 -39t-39 -17t-39 17t-17 39z" />
    <glyph glyph-name="Eth" unicode="&#xd0;" horiz-adv-x="574" 
d="M115 620h-63q-12 0 -12 12v41q0 12 12 12h201q36 0 62 -3t58.5 -13t58.5 -33t46 -59q44 -81 44 -239q0 -76 -14 -140q-14 -63 -44 -105.5t-70.5 -61t-74.5 -25t-77 -6.5h-190q-12 0 -12 12v41q0 12 12 12h63v259h-62h-2q-4 0 -6 0.5t-3.5 3.5t-1.5 10v38q6 12 13 13h62
v231zM197 70h62q59 0 96 25.5t57 84.5q20 57 20 169q0 130 -31 192q-18 36 -51 55t-98 19h-55v-226h120q7 0 10 -1.5t3.5 -3t0.5 -5.5v-3v-38v-2q0 -4 -0.5 -6t-3.5 -4t-10 -2h-120v-254z" />
    <glyph glyph-name="Ntilde" unicode="&#xd1;" horiz-adv-x="611" 
d="M515 620v-608q0 -12 -12 -12h-55q-12 0 -16 10l-230 494q-15 31 -27 87l-2 -2q10 -56 10 -89v-435h65q12 0 12 -12v-41q0 -12 -12 -12h-201q-12 0 -12 12v41q0 12 12 12h63v555h-63q-12 0 -12 12v41q0 12 12 12h140q11 0 15 -9l221 -466q9 -19 17 -51l7 -26l2 2l-7 49
v436h-65q-12 0 -12 12v41q0 12 12 12h202q12 0 12 -12v-41q0 -12 -12 -12h-64zM218 757l-31 12q-5 3 -5 7q0 3 10 22q32 58 84 58q25 0 57 -17l20 -11q22 -12 38 -12q24 0 40 24q9 14 13 14q6 0 8 -2l31 -12q5 -2 5 -7q0 -3 -10 -22q-32 -58 -84 -58q-28 0 -57 17l-14 8
q-30 15 -45 15q-22 0 -39 -24q-9 -14 -13 -14q-6 0 -8 2z" />
    <glyph glyph-name="Ograve" unicode="&#xd2;" horiz-adv-x="556" 
d="M504 343q0 -88 -15 -154.5t-38 -104t-55 -61t-59.5 -30.5t-58.5 -7q-32 0 -60 7.5t-59.5 30.5t-54 60.5t-37.5 104t-15 154.5q0 30 1.5 55t7.5 71.5t21 82.5t38.5 71.5t64 55.5t93.5 20q31 0 59 -7t59.5 -30.5t54.5 -60.5t38 -103.5t15 -154.5zM278 53q28 0 50.5 11
t36.5 26.5t24 42.5t14.5 48t7.5 54.5t3 50v46.5v11q0 49 -2 83t-9.5 76t-21.5 68t-40 44t-63 18q-28 0 -50.5 -11.5t-36.5 -27t-24 -43t-14.5 -49t-7 -54.5t-3 -50t-0.5 -47v-7q0 -133 18 -190q30 -100 118 -100zM195 878l164 -102q5 -2 5 -6q0 -3 -2 -6l-13 -24
q-3 -4 -7 -4q-1 0 -3 0.5t-4.5 1.5t-3.5 1l-172 69q-11 4 -11 10q0 4 3 9l29 50q3 4 7 4q2 0 8 -3z" />
    <glyph glyph-name="Oacute" unicode="&#xd3;" horiz-adv-x="556" 
d="M504 343q0 -88 -15 -154.5t-38 -104t-55 -61t-59.5 -30.5t-58.5 -7q-32 0 -60 7.5t-59.5 30.5t-54 60.5t-37.5 104t-15 154.5q0 30 1.5 55t7.5 71.5t21 82.5t38.5 71.5t64 55.5t93.5 20q31 0 59 -7t59.5 -30.5t54.5 -60.5t38 -103.5t15 -154.5zM278 53q28 0 50.5 11
t36.5 26.5t24 42.5t14.5 48t7.5 54.5t3 50v46.5v11q0 49 -2 83t-9.5 76t-21.5 68t-40 44t-63 18q-28 0 -50.5 -11.5t-36.5 -27t-24 -43t-14.5 -49t-7 -54.5t-3 -50t-0.5 -47v-7q0 -133 18 -190q30 -100 118 -100zM225 775l164 102q6 3 8 3q4 0 7 -4l29 -50q3 -5 3 -9
q0 -6 -11 -10l-172 -69q-1 0 -5 -1.5t-6 -1.5q-4 0 -7 4l-13 24q-2 3 -2 6t5 6z" />
    <glyph glyph-name="Ocircumflex" unicode="&#xd4;" horiz-adv-x="556" 
d="M504 343q0 -88 -15 -154.5t-38 -104t-55 -61t-59.5 -30.5t-58.5 -7q-32 0 -60 7.5t-59.5 30.5t-54 60.5t-37.5 104t-15 154.5q0 30 1.5 55t7.5 71.5t21 82.5t38.5 71.5t64 55.5t93.5 20q31 0 59 -7t59.5 -30.5t54.5 -60.5t38 -103.5t15 -154.5zM278 53q28 0 50.5 11
t36.5 26.5t24 42.5t14.5 48t7.5 54.5t3 50v46.5v11q0 49 -2 83t-9.5 76t-21.5 68t-40 44t-63 18q-28 0 -50.5 -11.5t-36.5 -27t-24 -43t-14.5 -49t-7 -54.5t-3 -50t-0.5 -47v-7q0 -133 18 -190q30 -100 118 -100zM274 799l-98 -52q-7 -4 -10 -4q-2 0 -6 4l-16 20q0 1 -1.5 2
t-2 2.5t-0.5 3.5q0 6 8 10l111 77q9 6 15 6t15 -6l111 -77q8 -4 8 -10l-4 -8l-16 -20q-4 -4 -6 -4q-3 0 -10 4z" />
    <glyph glyph-name="Otilde" unicode="&#xd5;" horiz-adv-x="556" 
d="M504 343q0 -88 -15 -154.5t-38 -104t-55 -61t-59.5 -30.5t-58.5 -7q-32 0 -60 7.5t-59.5 30.5t-54 60.5t-37.5 104t-15 154.5q0 30 1.5 55t7.5 71.5t21 82.5t38.5 71.5t64 55.5t93.5 20q31 0 59 -7t59.5 -30.5t54.5 -60.5t38 -103.5t15 -154.5zM278 53q28 0 50.5 11
t36.5 26.5t24 42.5t14.5 48t7.5 54.5t3 50v46.5v11q0 49 -2 83t-9.5 76t-21.5 68t-40 44t-63 18q-28 0 -50.5 -11.5t-36.5 -27t-24 -43t-14.5 -49t-7 -54.5t-3 -50t-0.5 -47v-7q0 -133 18 -190q30 -100 118 -100zM161 757l-31 12q-5 3 -5 7q0 3 10 22q32 58 84 58
q25 0 57 -17l20 -11q22 -12 38 -12q24 0 40 24q9 14 13 14q6 0 8 -2l31 -12q5 -2 5 -7q0 -3 -10 -22q-32 -58 -84 -58q-28 0 -57 17l-14 8q-30 15 -45 15q-22 0 -39 -24q-9 -14 -13 -14q-6 0 -8 2z" />
    <glyph glyph-name="Odieresis" unicode="&#xd6;" horiz-adv-x="556" 
d="M504 343q0 -88 -15 -154.5t-38 -104t-55 -61t-59.5 -30.5t-58.5 -7q-32 0 -60 7.5t-59.5 30.5t-54 60.5t-37.5 104t-15 154.5q0 30 1.5 55t7.5 71.5t21 82.5t38.5 71.5t64 55.5t93.5 20q31 0 59 -7t59.5 -30.5t54.5 -60.5t38 -103.5t15 -154.5zM278 53q28 0 50.5 11
t36.5 26.5t24 42.5t14.5 48t7.5 54.5t3 50v46.5v11q0 49 -2 83t-9.5 76t-21.5 68t-40 44t-63 18q-28 0 -50.5 -11.5t-36.5 -27t-24 -43t-14.5 -49t-7 -54.5t-3 -50t-0.5 -47v-7q0 -133 18 -190q30 -100 118 -100zM111 804q0 22 16.5 39t39.5 17t39.5 -17t16.5 -39t-16.5 -39
t-39.5 -17t-39.5 17t-16.5 39zM313 804q0 22 16.5 39t39.5 17t39.5 -17t16.5 -39t-16.5 -39t-39.5 -17t-39.5 17t-16.5 39z" />
    <glyph glyph-name="multiply" unicode="&#xd7;" horiz-adv-x="496" 
d="M247 302l128 128q4 4 5 4q8 0 12 -4l34 -34q4 -4 4 -12q0 -1 -4 -5l-128 -128l128 -127q8 -8 0 -17l-34 -34q-4 -4 -12 -4q-1 0 -5 4l-128 127l-126 -126q-9 -8 -17 0l-34 34q-8 8 0 17l127 126l-126 126q-5 5 -5 6q0 6 5 11l34 34q9 8 17 0z" />
    <glyph glyph-name="Oslash" unicode="&#xd8;" horiz-adv-x="556" 
d="M400 662l36 68q5 7 8 7q4 0 10 -3l29 -14q13 -7 8 -15l-47 -91l2 -3q57 -89 57 -266q0 -178 -59 -269q-58 -90 -166 -90q-52 0 -94 21q-30 15 -39 24l-1 1l-34 -65q-4 -9 -9 -9l-10 4l-28 14q-10 5 -10 8t3 8l46 92q-50 95 -50 256q0 184 64 274q61 85 168 85
q65 0 112 -34zM405 539l-227 -441l3 -4q31 -41 92 -41q34 0 59.5 11t41 34t25.5 47.5t14.5 62t6 66t1.5 70.5q0 154 -16 195zM148 175l220 424l-1 1q-32 32 -87 32q-24 0 -44.5 -7.5t-34.5 -17t-25.5 -29.5t-18.5 -34t-11.5 -42t-7 -41t-3.5 -44.5t-1 -40v-37.5
q0 -100 14 -164z" />
    <glyph glyph-name="Ugrave" unicode="&#xd9;" horiz-adv-x="629" 
d="M528 620v-436q0 -90 -48 -139q-58 -59 -170 -59q-116 0 -167 59q-42 48 -42 139v436h-64q-12 0 -12 12v41q0 12 12 12h210q12 0 12 -12v-41q0 -12 -12 -12h-64v-434q0 -65 25 -97q29 -36 101 -36q70 0 106 37q31 32 31 96v434h-64q-12 0 -12 12v41q0 12 12 12h210
q12 0 12 -12v-41q0 -12 -12 -12h-64zM235 878l164 -102q5 -2 5 -6q0 -3 -2 -6l-13 -24q-3 -4 -7 -4q-1 0 -3 0.5t-4.5 1.5t-3.5 1l-172 69q-11 4 -11 10q0 4 3 9l29 50q3 4 7 4q2 0 8 -3z" />
    <glyph glyph-name="Uacute" unicode="&#xda;" horiz-adv-x="629" 
d="M528 620v-436q0 -90 -48 -139q-58 -59 -170 -59q-116 0 -167 59q-42 48 -42 139v436h-64q-12 0 -12 12v41q0 12 12 12h210q12 0 12 -12v-41q0 -12 -12 -12h-64v-434q0 -65 25 -97q29 -36 101 -36q70 0 106 37q31 32 31 96v434h-64q-12 0 -12 12v41q0 12 12 12h210
q12 0 12 -12v-41q0 -12 -12 -12h-64zM225 776l164 102q6 3 8 3q4 0 7 -4l29 -50q3 -5 3 -9q0 -6 -11 -10l-172 -69q-1 0 -5 -1.5t-6 -1.5q-4 0 -7 4l-13 24q-2 3 -2 6q0 4 5 6z" />
    <glyph glyph-name="Ucircumflex" unicode="&#xdb;" horiz-adv-x="629" 
d="M528 620v-436q0 -90 -48 -139q-58 -59 -170 -59q-116 0 -167 59q-42 48 -42 139v436h-64q-12 0 -12 12v41q0 12 12 12h210q12 0 12 -12v-41q0 -12 -12 -12h-64v-434q0 -65 25 -97q29 -36 101 -36q70 0 106 37q31 32 31 96v434h-64q-12 0 -12 12v41q0 12 12 12h210
q12 0 12 -12v-41q0 -12 -12 -12h-64zM311 799l-98 -52q-7 -4 -10 -4q-2 0 -6 4l-16 20q0 1 -1.5 2t-2 2.5t-0.5 3.5q0 6 8 10l111 77q9 6 15 6t15 -6l111 -77q8 -4 8 -10l-4 -8l-16 -20q-4 -4 -6 -4q-3 0 -10 4z" />
    <glyph glyph-name="Udieresis" unicode="&#xdc;" horiz-adv-x="629" 
d="M528 620v-436q0 -90 -48 -139q-58 -59 -170 -59q-116 0 -167 59q-42 48 -42 139v436h-64q-12 0 -12 12v41q0 12 12 12h210q12 0 12 -12v-41q0 -12 -12 -12h-64v-434q0 -65 25 -97q29 -36 101 -36q70 0 106 37q31 32 31 96v434h-64q-12 0 -12 12v41q0 12 12 12h210
q12 0 12 -12v-41q0 -12 -12 -12h-64zM162 804q0 22 17 39t39 17t39 -17t17 -39t-17 -39t-39 -17t-39 17t-17 39zM364 804q0 22 17 39t39 17t39 -17t17 -39t-17 -39t-39 -17t-39 17t-17 39z" />
    <glyph glyph-name="Yacute" unicode="&#xdd;" horiz-adv-x="541" 
d="M394 53v-41q0 -12 -12 -12h-222q-12 0 -12 12v41q0 12 12 12h70v224l-176 331h-37q-12 0 -12 12v41q0 12 12 12h192q12 0 12 -12v-41q0 -12 -12 -12h-59l99 -202q3 -7 11 -21l11 -23l2 -4l2 -4l23 52l95 202h-61q-12 0 -12 12v41q0 12 12 12h192q12 0 12 -12v-41
q0 -12 -12 -12h-42l-170 -329v-226h70q12 0 12 -12zM197 776l164 102q6 3 8 3q4 0 7 -4l29 -50q3 -5 3 -9q0 -6 -11 -10l-172 -69q-1 0 -5 -1.5t-6 -1.5q-4 0 -7 4l-13 24q-2 3 -2 6q0 4 5 6z" />
    <glyph glyph-name="Thorn" unicode="&#xde;" 
d="M115 620h-64q-12 0 -12 12v42v4.5t1.5 3t4 2.5t6.5 1h209q8 0 10 -2.5t2 -8.5v-42q0 -12 -12 -12h-63v-73h84q108 0 155 -44q48 -44 48 -135q0 -96 -50 -150q-56 -61 -166 -61h-71v-92h73q12 0 12 -12v-41q0 -12 -12 -12h-219q-12 0 -12 12v41q0 12 12 12h64v555z
M197 227h64q79 0 113 38q28 32 28 101q0 59 -29 86q-27 25 -100 25h-76v-250z" />
    <glyph glyph-name="germandbls" unicode="&#xdf;" horiz-adv-x="594" 
d="M179 540v-528q0 -12 -12 -12h-120q-12 0 -12 12v38q0 12 12 12h56v480q0 103 60 149q44 33 127 33q78 0 123 -34q46 -34 46 -95q0 -66 -68 -129q-42 -40 -42 -63q0 -10 6 -20.5t18.5 -22t22.5 -19l27.5 -20l24.5 -17.5q49 -36 74 -71.5t25 -95.5q0 -59 -38.5 -105
t-123.5 -46q-51 0 -90 13q-24 7 -27 11t-1 11l13 46q3 6 7 7h3q2 0 4 -1t6.5 -3t9.5 -4q50 -18 81 -18q37 0 58.5 21.5t21.5 60.5q0 55 -47 94q-16 13 -48.5 35t-51.5 36t-35 40t-16 58t14.5 55t44.5 49q18 15 26.5 24t16.5 25.5t8 35.5q0 39 -28 60q-26 20 -72 20
q-49 0 -75 -25q-29 -28 -29 -97z" />
    <glyph glyph-name="agrave" unicode="&#xe0;" horiz-adv-x="463" 
d="M90 465l14 6q52 23 116 23q73 0 108 -25q50 -35 50 -115v-192q0 -68 12 -100h47q12 0 12 -12v-38q0 -12 -12 -12h-85q-14 0 -21 11t-14 33l-3 9l-4 -4q-63 -63 -140 -63q-58 0 -94 38t-36 103q0 62 38 105q54 60 203 68l21 1v36q0 19 -2.5 32.5t-10.5 28t-26.5 22
t-45.5 7.5q-56 0 -111 -26l-14 -6q-6 0 -8 5l-15 40q-1 2 -1 8q0 8 22 17zM302 110v129h-4q-93 0 -137 -27q-45 -27 -45 -79q0 -44 22 -64.5t50 -20.5q52 0 108 56zM92 657l29 43q5 8 10 8q3 0 10 -5l149 -115q4 -2 4 -7q0 -3 -4 -8l-13 -19q-4 -4 -7 -4t-7 2l-166 86
q-9 6 -9 10q0 1 4 9z" />
    <glyph glyph-name="aacute" unicode="&#xe1;" horiz-adv-x="463" 
d="M90 465l14 6q52 23 116 23q73 0 108 -25q50 -35 50 -115v-192q0 -68 12 -100h47q12 0 12 -12v-38q0 -12 -12 -12h-85q-14 0 -21 11t-14 33l-3 9l-4 -4q-63 -63 -140 -63q-58 0 -94 38t-36 103q0 62 38 105q54 60 203 68l21 1v36q0 19 -2.5 32.5t-10.5 28t-26.5 22
t-45.5 7.5q-56 0 -111 -26l-14 -6q-6 0 -8 5l-15 40q-1 2 -1 8q0 8 22 17zM302 110v129h-4q-93 0 -137 -27q-45 -27 -45 -79q0 -44 22 -64.5t50 -20.5q52 0 108 56zM354 700l29 -43q4 -8 4 -9q0 -4 -9 -10l-166 -86q-4 -2 -7 -2t-7 4l-13 19q-4 5 -4 8q0 5 4 7l149 115
q8 5 10 5q5 0 10 -8z" />
    <glyph glyph-name="acircumflex" unicode="&#xe2;" horiz-adv-x="463" 
d="M90 465l14 6q52 23 116 23q73 0 108 -25q50 -35 50 -115v-192q0 -68 12 -100h47q12 0 12 -12v-38q0 -12 -12 -12h-85q-14 0 -21 11t-14 33l-3 9l-4 -4q-63 -63 -140 -63q-58 0 -94 38t-36 103q0 62 38 105q54 60 203 68l21 1v36q0 19 -2.5 32.5t-10.5 28t-26.5 22
t-45.5 7.5q-56 0 -111 -26l-14 -6q-6 0 -8 5l-15 40q-1 2 -1 8q0 8 22 17zM302 110v129h-4q-93 0 -137 -27q-45 -27 -45 -79q0 -44 22 -64.5t50 -20.5q52 0 108 56zM226 625l-91 -60q-6 -4 -9 -4q-5 0 -9 6l-15 20q-3 6 -3 7q0 4 8 10l110 88q8 5 9 5q2 0 9 -5l110 -88
q8 -6 8 -10q0 -1 -3 -7l-15 -20q-4 -6 -9 -6q-3 0 -9 4z" />
    <glyph glyph-name="atilde" unicode="&#xe3;" horiz-adv-x="463" 
d="M90 465l14 6q52 23 116 23q73 0 108 -25q50 -35 50 -115v-192q0 -68 12 -100h47q12 0 12 -12v-38q0 -12 -12 -12h-85q-14 0 -21 11t-14 33l-3 9l-4 -4q-63 -63 -140 -63q-58 0 -94 38t-36 103q0 62 38 105q54 60 203 68l21 1v36q0 19 -2.5 32.5t-10.5 28t-26.5 22
t-45.5 7.5q-56 0 -111 -26l-14 -6q-6 0 -8 5l-15 40q-1 2 -1 8q0 8 22 17zM302 110v129h-4q-93 0 -137 -27q-45 -27 -45 -79q0 -44 22 -64.5t50 -20.5q52 0 108 56zM131 582l-27 11q-7 3 -7 9q0 4 5 15q30 64 87 64q22 0 61 -21q37 -20 49 -20q24 0 43 28q8 11 11 11
q1 0 4 -1l3 -1l27 -11q7 -4 7 -9q0 -4 -5 -15q-32 -64 -87 -64q-26 0 -60 21q-33 20 -51 20q-24 0 -42 -28q-8 -11 -11 -11q-1 0 -4 1z" />
    <glyph glyph-name="adieresis" unicode="&#xe4;" horiz-adv-x="463" 
d="M90 465l14 6q52 23 116 23q73 0 108 -25q50 -35 50 -115v-192q0 -68 12 -100h47q12 0 12 -12v-38q0 -12 -12 -12h-85q-14 0 -21 11t-14 33l-3 9l-4 -4q-63 -63 -140 -63q-58 0 -94 38t-36 103q0 62 38 105q54 60 203 68l21 1v36q0 19 -2.5 32.5t-10.5 28t-26.5 22
t-45.5 7.5q-56 0 -111 -26l-14 -6q-6 0 -8 5l-15 40q-1 2 -1 8q0 8 22 17zM302 110v129h-4q-93 0 -137 -27q-45 -27 -45 -79q0 -44 22 -64.5t50 -20.5q52 0 108 56zM181 629q0 -21 -15.5 -37t-37.5 -16t-37.5 15.5t-15.5 37.5t15.5 37.5t37.5 15.5t37.5 -16t15.5 -37z
M272 629q0 22 15.5 37.5t37.5 15.5t37.5 -15.5t15.5 -37.5t-15.5 -37.5t-37.5 -15.5t-37.5 15.5t-15.5 37.5z" />
    <glyph glyph-name="aring" unicode="&#xe5;" horiz-adv-x="463" 
d="M90 465l14 6q52 23 116 23q73 0 108 -25q50 -35 50 -115v-192q0 -68 12 -100h47q12 0 12 -12v-38q0 -12 -12 -12h-85q-14 0 -21 11t-14 33l-3 9l-4 -4q-63 -63 -140 -63q-58 0 -94 38t-36 103q0 62 38 105q54 60 203 68l21 1v36q0 19 -2.5 32.5t-10.5 28t-26.5 22
t-45.5 7.5q-56 0 -111 -26l-14 -6q-6 0 -8 5l-15 40q-1 2 -1 8q0 8 22 17zM302 110v129h-4q-93 0 -137 -27q-45 -27 -45 -79q0 -44 22 -64.5t50 -20.5q52 0 108 56zM141 629q0 37 26.5 63.5t63.5 26.5t63.5 -26.5t26.5 -63.5t-26.5 -63.5t-63.5 -26.5t-63.5 26.5t-26.5 63.5
zM189 629q0 -17 12.5 -29.5t29.5 -12.5t29.5 12.5t12.5 29.5t-12.5 29.5t-29.5 12.5t-29.5 -12.5t-12.5 -29.5z" />
    <glyph glyph-name="ae" unicode="&#xe6;" horiz-adv-x="704" 
d="M658 230h-287q0 -57 21 -102q18 -39 51.5 -57t65.5 -18q36 0 90 24q7 3 14.5 7.5l11.5 7t6 2.5q6 0 6 -4l19 -47q4 -8 -13 -18q-73 -39 -143 -39q-101 0 -159 77l-15 -15q-62 -62 -150 -62q-74 0 -107.5 41t-33.5 94q0 77 53 118q68 54 211 54h4v44q0 19 -2.5 32.5
t-10.5 28t-26.5 22t-45.5 7.5q-54 0 -115 -26q-12 -6 -17 -6t-7 5l-15 40q-1 2 -1 8t10 11q29 16 73 25.5t75 9.5q94 0 130 -61q50 61 133 61q113 0 158 -100q27 -62 27 -142q0 -22 -11 -22zM371 292h222q-4 56 -25 92q-29 48 -79 48q-67 0 -97 -54q-21 -36 -21 -86z
M303 110v121h-4q-100 0 -147 -29q-41 -26 -41 -69q0 -32 15 -54q22 -31 63 -31q32 0 61 17t47 38z" />
    <glyph glyph-name="ccedilla" unicode="&#xe7;" horiz-adv-x="432" 
d="M270 -14l-4 -40l10 -1q67 -7 67 -64q0 -36 -29 -58q-28 -21 -74 -21q-22 0 -41.5 5.5t-18.5 13.5l5 38q0 5 5 5q3 0 12 -3q18 -5 42 -5q38 0 38 23q0 8 -6 13t-12 6.5t-19 2.5l-24 2q-19 2 -17 18l8 67q-71 5 -115 64q-47 63 -47 173q0 140 68 212q54 57 133 57
q63 0 128 -41q13 -8 13 -22v-81q0 -8 -2.5 -10t-8.5 -2h-43q-11 0 -11 12v58q-44 19 -73 19q-57 0 -89 -43q-33 -44 -33 -145q0 -99 31 -144q30 -42 84 -42q51 0 108 35q11 7 13 7q4 0 7 -5l18 -44l1 -4q1 -3 1 -4q0 -5 -21 -18q-43 -25 -104 -34z" />
    <glyph glyph-name="egrave" unicode="&#xe8;" horiz-adv-x="469" 
d="M396 88l18 -45q1 -2 1 -6q0 -7 -37 -25q-58 -26 -113 -26q-107 0 -166 76q-52 68 -52 178q0 122 62 193q54 61 137 61q79 0 124 -49q57 -60 57 -199v-5q0 -17 -11 -17h-287v-5q0 -58 25 -102q19 -33 50.5 -48.5t62.5 -15.5q49 0 110 35q8 4 12 5h2q4 0 5 -5zM129 286h216
q0 47 -16 85q-25 61 -89 61q-63 0 -92 -59q-19 -40 -19 -87zM119 657l29 43q5 8 10 8q2 0 10 -5l149 -115q4 -2 4 -7q0 -3 -4 -8l-13 -19q-4 -4 -7 -4t-7 2l-166 86q-9 6 -9 10q0 1 4 9z" />
    <glyph glyph-name="eacute" unicode="&#xe9;" horiz-adv-x="469" 
d="M396 88l18 -45q1 -2 1 -6q0 -7 -37 -25q-58 -26 -113 -26q-107 0 -166 76q-52 68 -52 178q0 122 62 193q54 61 137 61q79 0 124 -49q57 -60 57 -199v-5q0 -17 -11 -17h-287v-5q0 -58 25 -102q19 -33 50.5 -48.5t62.5 -15.5q49 0 110 35q8 4 12 5h2q4 0 5 -5zM129 286h216
q0 47 -16 85q-25 61 -89 61q-63 0 -92 -59q-19 -40 -19 -87zM370 700l29 -43q4 -8 4 -9q0 -4 -9 -10l-166 -86q-4 -2 -7 -2t-7 4l-13 19q-4 5 -4 8q0 5 4 7l149 115q8 5 10 5q5 0 10 -8z" />
    <glyph glyph-name="ecircumflex" unicode="&#xea;" horiz-adv-x="469" 
d="M396 88l18 -45q1 -2 1 -6q0 -7 -37 -25q-58 -26 -113 -26q-107 0 -166 76q-52 68 -52 178q0 122 62 193q54 61 137 61q79 0 124 -49q57 -60 57 -199v-5q0 -17 -11 -17h-287v-5q0 -58 25 -102q19 -33 50.5 -48.5t62.5 -15.5q49 0 110 35q8 4 12 5h2q4 0 5 -5zM129 286h216
q0 47 -16 85q-25 61 -89 61q-63 0 -92 -59q-19 -40 -19 -87zM247 624l-91 -60q-6 -4 -9 -4q-5 0 -9 6l-15 20q-3 6 -3 7q0 4 8 10l110 88q8 5 9 5t9 -5l110 -88q8 -6 8 -10q0 -1 -3 -7l-15 -20q-4 -6 -9 -6q-3 0 -9 4z" />
    <glyph glyph-name="edieresis" unicode="&#xeb;" horiz-adv-x="469" 
d="M396 88l18 -45q1 -2 1 -6q0 -7 -37 -25q-58 -26 -113 -26q-107 0 -166 76q-52 68 -52 178q0 122 62 193q54 61 137 61q79 0 124 -49q57 -60 57 -199v-5q0 -17 -11 -17h-287v-5q0 -58 25 -102q19 -33 50.5 -48.5t62.5 -15.5q49 0 110 35q8 4 12 5h2q4 0 5 -5zM129 286h216
q0 47 -16 85q-25 61 -89 61q-63 0 -92 -59q-19 -40 -19 -87zM197 629q0 -21 -15.5 -37t-37.5 -16t-37.5 15.5t-15.5 37.5t15.5 37.5t37.5 15.5t37.5 -16t15.5 -37zM288 629q0 22 15.5 37.5t37.5 15.5t37.5 -15.5t15.5 -37.5t-15.5 -37.5t-37.5 -15.5t-37.5 15.5t-15.5 37.5z
" />
    <glyph glyph-name="igrave" unicode="&#xec;" horiz-adv-x="278" 
d="M265 50v-38q0 -12 -12 -12h-219q-12 0 -12 12v38q0 12 12 12h72v356h-79q-12 0 -12 12v38q0 12 12 12h143q12 0 12 -12v-406h71q12 0 12 -12zM15 657l29 43q5 8 10 8q2 0 10 -5l149 -115q4 -2 4 -7q0 -3 -4 -8l-13 -19q-4 -4 -7 -4t-7 2l-166 86q-9 6 -9 10q0 1 4 9z" />
    <glyph glyph-name="iacute" unicode="&#xed;" horiz-adv-x="278" 
d="M265 50v-38q0 -12 -12 -12h-219q-12 0 -12 12v38q0 12 12 12h72v356h-79q-12 0 -12 12v38q0 12 12 12h143q12 0 12 -12v-406h71q12 0 12 -12zM255 700l29 -43q4 -8 4 -9q0 -4 -9 -10l-166 -86q-4 -2 -7 -2t-7 4l-13 19q-4 5 -4 8q0 5 4 7l149 115q8 5 10 5q5 0 10 -8z
" />
    <glyph glyph-name="icircumflex" unicode="&#xee;" horiz-adv-x="278" 
d="M265 50v-38q0 -12 -12 -12h-219q-12 0 -12 12v38q0 12 12 12h72v356h-79q-12 0 -12 12v38q0 12 12 12h143q12 0 12 -12v-406h71q12 0 12 -12zM126 625l-91 -60q-6 -4 -9 -4q-5 0 -9 6l-15 20q-3 6 -3 7q0 4 8 10l110 88q7 5 9 5t9 -5l110 -88q8 -6 8 -10q0 -1 -3 -7
l-15 -20q-4 -6 -9 -6q-3 0 -9 4z" />
    <glyph glyph-name="idieresis" unicode="&#xef;" horiz-adv-x="278" 
d="M265 50v-38q0 -12 -12 -12h-219q-12 0 -12 12v38q0 12 12 12h72v356h-79q-12 0 -12 12v38q0 12 12 12h143q12 0 12 -12v-406h71q12 0 12 -12zM89 629q0 -21 -15.5 -37t-37.5 -16t-37.5 15.5t-15.5 37.5t15.5 37.5t37.5 15.5t37.5 -16t15.5 -37zM180 629q0 22 15.5 37.5
t37.5 15.5t37.5 -15.5t15.5 -37.5t-15.5 -37.5t-37.5 -15.5t-37.5 15.5t-15.5 37.5z" />
    <glyph glyph-name="eth" unicode="&#xf0;" 
d="M412 669l-75 -36q48 -77 80 -173.5t32 -191.5q0 -124 -48 -198q-54 -84 -160 -84q-97 0 -148 79q-42 65 -42 173q0 119 54 189q52 67 140 67q54 0 95 -37l2 2q-37 89 -67 142l-86 -42q-5 -3 -7 -3q-3 0 -8 7l-12 23q-2 4 -2 6q0 6 8 9l84 41l-22 36q-17 28 -17 31
q0 5 12 8l29 5q12 2 16 2q3 0 9 -6q15 -15 28 -36l5 -8l79 38q5 3 8 3q5 0 7 -7l11 -22q2 -4 2 -8q0 -6 -7 -9zM251 48q59 0 90 54q26 47 26 142t-31 143q-30 45 -86 45q-58 0 -87 -47q-30 -48 -30 -138q0 -102 27 -148q30 -51 91 -51z" />
    <glyph glyph-name="ntilde" unicode="&#xf1;" horiz-adv-x="551" 
d="M526 50v-38q0 -12 -12 -12h-120q-12 0 -12 12v334q0 40 -15 59q-18 22 -52 22q-60 0 -121 -54l-8 -7v-304h57q12 0 12 -12v-38q0 -12 -12 -12h-190q-12 0 -12 12v38q0 12 12 12h57v293q0 35 -4 54l-2 9h-57q-12 0 -12 12v38q0 12 12 12h100q8 0 14 -9q8 -12 15 -36l2 -9
l9 7q78 61 155 61q61 0 92 -41q24 -32 24 -109v-282h56q12 0 12 -12zM177 582l-27 11q-7 3 -7 9q0 4 5 15q30 64 87 64q22 0 61 -21q37 -20 49 -20q24 0 43 28q8 11 11 11q1 0 4 -1l3 -1l27 -11q7 -4 7 -9q0 -4 -5 -15q-32 -64 -87 -64q-26 0 -60 21q-33 20 -51 20
q-24 0 -42 -28q-8 -11 -11 -11q-1 0 -4 1z" />
    <glyph glyph-name="ograve" unicode="&#xf2;" horiz-adv-x="498" 
d="M448 243q0 -132 -58 -194.5t-147 -62.5q-81 0 -137 60t-56 192q0 131 57.5 193.5t145.5 62.5q84 0 139.5 -60t55.5 -191zM250 48q116 0 116 196q0 188 -117 188t-117 -185q0 -199 118 -199zM111 657l29 43q5 8 10 8q2 0 10 -5l149 -115q4 -2 4 -7q0 -3 -4 -8l-13 -19
q-4 -4 -7 -4t-7 2l-166 86q-9 6 -9 10q0 1 4 9z" />
    <glyph glyph-name="oacute" unicode="&#xf3;" horiz-adv-x="498" 
d="M448 243q0 -132 -58 -194.5t-147 -62.5q-81 0 -137 60t-56 192q0 131 57.5 193.5t145.5 62.5q84 0 139.5 -60t55.5 -191zM250 48q116 0 116 196q0 188 -117 188t-117 -185q0 -199 118 -199zM357 700l29 -43q4 -8 4 -9q0 -4 -9 -10l-166 -86q-4 -2 -7 -2t-7 4l-13 19
q-4 5 -4 8q0 5 4 7l149 115q8 5 10 5q5 0 10 -8z" />
    <glyph glyph-name="ocircumflex" unicode="&#xf4;" horiz-adv-x="498" 
d="M448 243q0 -132 -58 -194.5t-147 -62.5q-81 0 -137 60t-56 192q0 131 57.5 193.5t145.5 62.5q84 0 139.5 -60t55.5 -191zM250 48q116 0 116 196q0 188 -117 188t-117 -185q0 -199 118 -199zM251 625l-91 -60q-6 -4 -9 -4q-5 0 -9 6l-15 20q-3 6 -3 7q0 4 8 10l110 88
q8 5 9 5q2 0 9 -5l110 -88q8 -6 8 -10q0 -1 -3 -7l-15 -20q-4 -6 -9 -6q-3 0 -9 4z" />
    <glyph glyph-name="otilde" unicode="&#xf5;" horiz-adv-x="498" 
d="M448 243q0 -132 -58 -194.5t-147 -62.5q-81 0 -137 60t-56 192q0 131 57.5 193.5t145.5 62.5q84 0 139.5 -60t55.5 -191zM250 48q116 0 116 196q0 188 -117 188t-117 -185q0 -199 118 -199zM146 582l-27 11q-7 3 -7 9q0 4 5 15q30 64 87 64q22 0 61 -21q37 -20 49 -20
q24 0 43 28q8 11 11 11q1 0 4 -1l3 -1l27 -11q7 -4 7 -9q0 -4 -5 -15q-32 -64 -87 -64q-26 0 -60 21q-33 20 -51 20q-24 0 -42 -28q-8 -11 -11 -11q-1 0 -4 1z" />
    <glyph glyph-name="odieresis" unicode="&#xf6;" horiz-adv-x="498" 
d="M448 243q0 -132 -58 -194.5t-147 -62.5q-81 0 -137 60t-56 192q0 131 57.5 193.5t145.5 62.5q84 0 139.5 -60t55.5 -191zM250 48q116 0 116 196q0 188 -117 188t-117 -185q0 -199 118 -199zM207 629q0 -21 -15.5 -37t-37.5 -16t-37.5 15.5t-15.5 37.5t15.5 37.5
t37.5 15.5t37.5 -16t15.5 -37zM298 629q0 22 15.5 37.5t37.5 15.5t37.5 -15.5t15.5 -37.5t-15.5 -37.5t-37.5 -15.5t-37.5 15.5t-15.5 37.5z" />
    <glyph glyph-name="divide" unicode="&#xf7;" 
d="M305 427q0 -24 -16.5 -40t-39.5 -16q-24 0 -40 16.5t-16 39.5q0 24 16 40t40 16t40 -16t16 -40zM476 276v-44v-2q0 -4 -0.5 -6t-3.5 -4t-10 -2h-427h-2q-4 0 -6 0.5t-3.5 3.5t-1.5 10v44q0 7 1.5 10t3 3.5t5.5 0.5h3h427q7 0 10 -1.5t3.5 -3t0.5 -5.5v-4zM305 81
q0 -24 -16.5 -40t-39.5 -16q-24 0 -40 16.5t-16 39.5q0 24 16 40t40 16t40 -16t16 -40z" />
    <glyph glyph-name="oslash" unicode="&#xf8;" horiz-adv-x="498" 
d="M386 530l35 -19q5 -3 5 -6t-3 -8l-34 -61q59 -66 59 -193q0 -132 -58.5 -194.5t-142.5 -62.5q-38 0 -91 20l-5 2l-31 -56q-4 -7 -7 -7h-1q-1 0 -7 3l-33 17q-9 4 -4 14l37 68q-55 62 -55 190q0 62 14 109t35 74.5t49.5 44.5t53.5 23t51 6q46 0 88 -20l2 -1l29 51
q6 10 14 6zM357 379l-174 -313l3 -2q26 -16 62 -16q29 0 51 9.5t35 28t21 37.5t11.5 45t4.5 43t1 39q0 73 -15 129zM142 112l169 303q-23 17 -58 17q-127 0 -127 -189q0 -86 16 -131z" />
    <glyph glyph-name="ugrave" unicode="&#xf9;" horiz-adv-x="537" 
d="M517 50v-38q0 -12 -12 -12h-84q-13 0 -20 6.5t-17 27.5l-5 11q-67 -59 -147 -59q-71 0 -106 37q-32 34 -32 113v282h-56q-12 0 -12 12v38q0 12 12 12h120q12 0 12 -12v-334q0 -43 22 -62t55 -19q51 0 108 43l11 8v314h-57q-12 0 -12 12v38q0 12 12 12h121q12 0 12 -12
v-343q0 -36 4 -54l2 -9h57q12 0 12 -12zM131 657l29 43q5 8 10 8q2 0 10 -5l149 -115q4 -2 4 -7q0 -3 -4 -8l-13 -19q-4 -4 -7 -4t-7 2l-166 86q-9 6 -9 10q0 1 4 9z" />
    <glyph glyph-name="uacute" unicode="&#xfa;" horiz-adv-x="537" 
d="M517 50v-38q0 -12 -12 -12h-84q-13 0 -20 6.5t-17 27.5l-5 11q-67 -59 -147 -59q-71 0 -106 37q-32 34 -32 113v282h-56q-12 0 -12 12v38q0 12 12 12h120q12 0 12 -12v-334q0 -43 22 -62t55 -19q51 0 108 43l11 8v314h-57q-12 0 -12 12v38q0 12 12 12h121q12 0 12 -12
v-343q0 -36 4 -54l2 -9h57q12 0 12 -12zM398 700l29 -43q4 -8 4 -9q0 -4 -9 -10l-166 -86q-4 -2 -7 -2t-7 4l-13 19q-4 5 -4 8q0 5 4 7l149 115q8 5 10 5q5 0 10 -8z" />
    <glyph glyph-name="ucircumflex" unicode="&#xfb;" horiz-adv-x="537" 
d="M517 50v-38q0 -12 -12 -12h-84q-13 0 -20 6.5t-17 27.5l-5 11q-67 -59 -147 -59q-71 0 -106 37q-32 34 -32 113v282h-56q-12 0 -12 12v38q0 12 12 12h120q12 0 12 -12v-334q0 -43 22 -62t55 -19q51 0 108 43l11 8v314h-57q-12 0 -12 12v38q0 12 12 12h121q12 0 12 -12
v-343q0 -36 4 -54l2 -9h57q12 0 12 -12zM268 625l-91 -60q-6 -4 -9 -4q-5 0 -9 6l-15 20q-3 6 -3 7q0 4 8 10l110 88q8 5 9 5q2 0 9 -5l110 -88q8 -6 8 -10q0 -1 -3 -7l-15 -20q-4 -6 -9 -6q-3 0 -9 4z" />
    <glyph glyph-name="udieresis" unicode="&#xfc;" horiz-adv-x="537" 
d="M517 50v-38q0 -12 -12 -12h-84q-13 0 -20 6.5t-17 27.5l-5 11q-67 -59 -147 -59q-71 0 -106 37q-32 34 -32 113v282h-56q-12 0 -12 12v38q0 12 12 12h120q12 0 12 -12v-334q0 -43 22 -62t55 -19q51 0 108 43l11 8v314h-57q-12 0 -12 12v38q0 12 12 12h121q12 0 12 -12
v-343q0 -36 4 -54l2 -9h57q12 0 12 -12zM218 629q0 -21 -15.5 -37t-37.5 -16t-37.5 15.5t-15.5 37.5t15.5 37.5t37.5 15.5t37.5 -16t15.5 -37zM309 629q0 22 15.5 37.5t37.5 15.5t37.5 -15.5t15.5 -37.5t-15.5 -37.5t-37.5 -15.5t-37.5 15.5t-15.5 37.5z" />
    <glyph glyph-name="yacute" unicode="&#xfd;" 
d="M446 418l-103 -356q-33 -113 -52 -162t-41 -71q-37 -39 -96 -39q-47 0 -101 29q-18 10 -21.5 16.5t0.5 10.5l20 40q2 5 7 5q3 0 17 -10q44 -29 78 -29q27 0 46 22q16 18 31 63l21 63h-36q-9 0 -13 9l-144 409h-40q-12 0 -12 12v38q0 12 12 12h183q12 0 12 -12v-35v-4.5
t-1 -3t-4 -2.5t-7 -1h-64l109 -321q10 -30 19 -68l1 -4h2q3 22 15 70l84 323h-59q-12 0 -12 12v34q0 12 12 12h174q12 0 12 -12v-38q0 -12 -12 -12h-37zM368 700l29 -43q4 -8 4 -9q0 -4 -9 -10l-166 -86q-4 -2 -7 -2t-7 4l-13 19q-4 5 -4 8q0 5 4 7l149 115q8 5 10 5
q5 0 10 -8z" />
    <glyph glyph-name="thorn" unicode="&#xfe;" 
d="M241 -152v-38q0 -12 -12 -12h-197q-12 0 -12 12v38q0 12 12 12h56v795h-56q-12 0 -12 12v38q0 12 12 12h112q9 0 14 -3t5.5 -6t0.5 -8v-2v-250l11 7q63 39 119 39q92 0 129 -82q27 -58 27 -162q0 -114 -37 -181q-45 -83 -130 -83q-52 0 -107 36l-12 8v-170h65
q12 0 12 -12zM164 378v-282q60 -43 107 -43q57 0 78 52q19 44 19 143q0 86 -17 128q-21 51 -72 51q-46 0 -104 -41z" />
    <glyph glyph-name="ydieresis" unicode="&#xff;" 
d="M446 418l-103 -356q-33 -113 -52 -162t-41 -71q-37 -39 -96 -39q-47 0 -101 29q-18 10 -21.5 16.5t0.5 10.5l20 40q2 5 7 5q3 0 17 -10q44 -29 78 -29q27 0 46 22q16 18 31 63l21 63h-36q-9 0 -13 9l-144 409h-40q-12 0 -12 12v38q0 12 12 12h183q12 0 12 -12v-35v-4.5
t-1 -3t-4 -2.5t-7 -1h-64l109 -321q10 -30 19 -68l1 -4h2q3 22 15 70l84 323h-59q-12 0 -12 12v34q0 12 12 12h174q12 0 12 -12v-38q0 -12 -12 -12h-37zM213 629q0 -21 -15.5 -37t-37.5 -16t-37.5 15.5t-15.5 37.5t15.5 37.5t37.5 15.5t37.5 -16t15.5 -37zM304 629
q0 22 15.5 37.5t37.5 15.5t37.5 -15.5t15.5 -37.5t-15.5 -37.5t-37.5 -15.5t-37.5 15.5t-15.5 37.5z" />
    <glyph glyph-name="Amacron" unicode="&#x100;" horiz-adv-x="603" 
d="M593 53v-41q0 -12 -12 -12h-202q-12 0 -12 12v41q0 12 12 12h62l-39 139h-205l-38 -139h64q12 0 12 -12v-41q0 -12 -12 -12h-201q-12 0 -12 12v41q0 12 12 12h49l186 609q4 11 15 11h59q11 0 15 -11l185 -609h50q12 0 12 -12zM383 274l-60 221q-19 69 -23 95h-2
q-15 -74 -21 -95l-61 -221h167zM174 783v37q0 13 13 13h226h4t4 -1t4 -4t1 -8v-37q0 -6 -2.5 -9.5t-4.5 -3.5h-6h-226h-4t-4 1t-4 4t-1 8z" />
    <glyph glyph-name="amacron" unicode="&#x101;" horiz-adv-x="463" 
d="M90 465l14 6q52 23 116 23q73 0 108 -25q50 -35 50 -115v-192q0 -68 12 -100h47q12 0 12 -12v-38q0 -12 -12 -12h-85q-14 0 -21 11t-14 33l-3 9l-4 -4q-63 -63 -140 -63q-58 0 -94 38t-36 103q0 62 38 105q54 60 203 68l21 1v36q0 19 -2.5 32.5t-10.5 28t-26.5 22
t-45.5 7.5q-56 0 -111 -26l-14 -6q-6 0 -8 5l-15 40q-1 2 -1 8q0 8 22 17zM302 110v129h-4q-93 0 -137 -27q-45 -27 -45 -79q0 -44 22 -64.5t50 -20.5q52 0 108 56zM108 610v38q0 12 12 12h221q12 0 12 -12v-38q0 -12 -12 -12h-221q-12 0 -12 12z" />
    <glyph glyph-name="Abreve" unicode="&#x102;" horiz-adv-x="603" 
d="M593 53v-41q0 -12 -12 -12h-202q-12 0 -12 12v41q0 12 12 12h62l-39 139h-205l-38 -139h64q12 0 12 -12v-41q0 -12 -12 -12h-201q-12 0 -12 12v41q0 12 12 12h49l186 609q4 11 15 11h59q11 0 15 -11l185 -609h50q12 0 12 -12zM383 274l-60 221q-19 69 -23 95h-2
q-15 -74 -21 -95l-61 -221h167zM383 866l40 -7q7 -2 9 -6q2 -5 0 -9q-9 -55 -52 -82q-32 -21 -79 -21t-79 21q-43 27 -52 82q-2 4 0 9q2 4 9 6l40 7q1 0 3 0.5t3 0.5q9 0 11 -13q12 -60 65 -60t65 60q3 14 17 12z" />
    <glyph glyph-name="abreve" unicode="&#x103;" horiz-adv-x="463" 
d="M90 465l14 6q52 23 116 23q73 0 108 -25q50 -35 50 -115v-192q0 -68 12 -100h47q12 0 12 -12v-38q0 -12 -12 -12h-85q-14 0 -21 11t-14 33l-3 9l-4 -4q-63 -63 -140 -63q-58 0 -94 38t-36 103q0 62 38 105q54 60 203 68l21 1v36q0 19 -2.5 32.5t-10.5 28t-26.5 22
t-45.5 7.5q-56 0 -111 -26l-14 -6q-6 0 -8 5l-15 40q-1 2 -1 8q0 8 22 17zM302 110v129h-4q-93 0 -137 -27q-45 -27 -45 -79q0 -44 22 -64.5t50 -20.5q52 0 108 56zM308 682l41 -7q11 -2 11 -15q0 -1 -0.5 -3t-0.5 -3q-9 -43 -36 -70q-34 -34 -92 -34t-92 34q-27 27 -36 70
q0 1 -0.5 3t-0.5 3q0 13 11 15l41 7q10 2 11 -5l3 -12q16 -62 63 -62t63 62l3 12q2 5 6 5h5z" />
    <glyph glyph-name="Aogonek" unicode="&#x104;" horiz-adv-x="603" 
d="M593 53v-41q0 -5 -5 -12l-8 -10q-44 -54 -44 -89q0 -32 32 -32q23 0 49 14l15 9q3 0 6 -6l10 -32q3 -11 -11 -19q-43 -19 -71 -19q-46 0 -68.5 23.5t-22.5 57.5q0 39 47 103h-143q-12 0 -12 12v41q0 12 12 12h62l-39 139h-205l-38 -139h64q12 0 12 -12v-41q0 -12 -12 -12
h-201q-12 0 -12 12v41q0 12 12 12h49l186 609q4 11 15 11h59q11 0 15 -11l185 -609h50q12 0 12 -12zM383 274l-60 221q-19 69 -23 95h-2q-15 -74 -21 -95l-61 -221h167z" />
    <glyph glyph-name="aogonek" unicode="&#x105;" horiz-adv-x="463" 
d="M90 465l14 6q55 23 116 23q43 0 74 -10.5t47 -25t25 -36t10.5 -36t1.5 -32.5v-192q0 -68 12 -100h47q12 0 12 -12v-38q0 -5 -2.5 -8.5t-8.5 -10t-9 -9.5q-40 -50 -40 -77q0 -34 36 -34q23 0 49 17l10 5q4 0 5 -6l10 -28q4 -11 -8 -19q-32 -20 -72 -20q-45 0 -67 23
t-22 58q0 10 2 19.5t4 16t8.5 17t8.5 14t11 16t11 14.5h-23q-14 0 -21 11t-14 33l-3 9l-4 -4q-63 -63 -140 -63q-58 0 -94 37.5t-36 103.5q0 163 238 173l24 1v36q0 19 -2.5 32.5t-10.5 28t-26.5 22t-45.5 7.5q-56 0 -111 -26l-14 -6q-6 0 -8 5l-15 40q-1 2 -1 8q0 8 22 17z
M302 110v129h-4q-182 0 -182 -106q0 -44 22 -64.5t50 -20.5q52 0 108 56z" />
    <glyph glyph-name="Cacute" unicode="&#x106;" horiz-adv-x="481" 
d="M441 167v-104q0 -10 -0.5 -13.5t-4.5 -8t-14 -11.5q-67 -44 -145 -44q-111 0 -169 95q-56 91 -56 268q0 179 60 266q58 84 167 84q63 0 123 -34q34 -19 34 -35v-111q0 -12 -12 -12h-44q-12 0 -12 12v85l-6 4q-35 24 -87 24q-64 0 -97 -56q-36 -61 -36 -198
q0 -176 37 -254q18 -38 48.5 -54.5t59.5 -16.5q33 0 77 23l9 5v86q0 12 12 12h44q12 0 12 -12zM225 776l164 102q6 3 8 3q4 0 7 -4l29 -50q3 -5 3 -9q0 -6 -11 -10l-172 -69q-1 0 -5 -1.5t-6 -1.5q-4 0 -7 4l-13 24q-2 3 -2 6q0 4 5 6z" />
    <glyph glyph-name="cacute" unicode="&#x107;" horiz-adv-x="432" 
d="M375 90l19 -47q3 -8 -12 -18q-22 -14 -63.5 -26.5t-82.5 -12.5q-90 0 -140 70q-46 65 -46 169q0 126 59 201q55 68 140 68q27 0 64.5 -9t60.5 -24l8 -5q10 -6 10 -16v-90q0 -12 -12 -12h-41q-12 0 -12 12v58q-36 19 -73 19q-29 0 -51 -9.5t-35 -28t-21 -36t-11 -42.5
t-3.5 -38t-0.5 -33q0 -28 1.5 -49.5t8.5 -49t18.5 -45.5t34 -30.5t52.5 -12.5q53 0 112 36q10 5 11 5q3 0 5 -4zM356 700l29 -43q4 -8 4 -9q0 -4 -9 -10l-166 -86q-4 -2 -7 -2t-7 4l-13 19q-4 5 -4 8q0 5 4 7l149 115q8 5 10 5q5 0 10 -8z" />
    <glyph glyph-name="Ccircumflex" unicode="&#x108;" horiz-adv-x="481" 
d="M441 167v-104q0 -10 -0.5 -13.5t-4.5 -8t-14 -11.5q-67 -44 -145 -44q-111 0 -169 95q-56 91 -56 268q0 179 60 266q58 84 167 84q63 0 123 -34q34 -19 34 -35v-111q0 -12 -12 -12h-44q-12 0 -12 12v85l-6 4q-35 24 -87 24q-64 0 -97 -56q-36 -61 -36 -198
q0 -176 37 -254q18 -38 48.5 -54.5t59.5 -16.5q33 0 77 23l9 5v86q0 12 12 12h44q12 0 12 -12zM265 799l-98 -52q-7 -4 -10 -4q-2 0 -6 4l-16 20q0 1 -1.5 2t-2 2.5t-0.5 3.5q0 6 8 10l111 77q9 6 15 6t15 -6l111 -77q8 -4 8 -10l-4 -8l-16 -20q-4 -4 -6 -4q-3 0 -10 4z" />
    <glyph glyph-name="ccircumflex" unicode="&#x109;" horiz-adv-x="432" 
d="M375 90l19 -47q3 -8 -12 -18q-22 -14 -63.5 -26.5t-82.5 -12.5q-90 0 -140 70q-46 65 -46 169q0 126 59 201q55 68 140 68q27 0 64.5 -9t60.5 -24l8 -5q10 -6 10 -16v-90q0 -12 -12 -12h-41q-12 0 -12 12v58q-36 19 -73 19q-29 0 -51 -9.5t-35 -28t-21 -36t-11 -42.5
t-3.5 -38t-0.5 -33q0 -28 1.5 -49.5t8.5 -49t18.5 -45.5t34 -30.5t52.5 -12.5q53 0 112 36q10 5 11 5q3 0 5 -4zM249 625l-91 -60q-6 -4 -9 -4q-5 0 -9 6l-15 20q-3 6 -3 7q0 4 8 10l110 88q8 5 9 5t9 -5l110 -88q8 -6 8 -10q0 -1 -3 -7l-15 -20q-4 -6 -9 -6q-3 0 -9 4z" />
    <glyph glyph-name="Ccaron" unicode="&#x10c;" horiz-adv-x="481" 
d="M441 167v-104q0 -10 -0.5 -13.5t-4.5 -8t-14 -11.5q-67 -44 -145 -44q-111 0 -169 95q-56 91 -56 268q0 179 60 266q58 84 167 84q63 0 123 -34q34 -19 34 -35v-111q0 -12 -12 -12h-44q-12 0 -12 12v85l-6 4q-35 24 -87 24q-64 0 -97 -56q-36 -61 -36 -198
q0 -176 37 -254q18 -38 48.5 -54.5t59.5 -16.5q33 0 77 23l9 5v86q0 12 12 12h44q12 0 12 -12zM278 814l98 52q7 4 10 4q2 0 6 -4l16 -20q0 -1 1.5 -2t2 -2.5t0.5 -3.5q0 -6 -8 -10l-111 -77q-9 -6 -15 -6t-15 6l-111 77q-8 4 -8 10l4 8l16 20q4 4 6 4q3 0 10 -4z" />
    <glyph glyph-name="ccaron" unicode="&#x10d;" horiz-adv-x="432" 
d="M375 90l19 -47q3 -8 -12 -18q-22 -14 -63.5 -26.5t-82.5 -12.5q-90 0 -140 70q-46 65 -46 169q0 126 59 201q55 68 140 68q27 0 64.5 -9t60.5 -24l8 -5q10 -6 10 -16v-90q0 -12 -12 -12h-41q-12 0 -12 12v58q-36 19 -73 19q-29 0 -51 -9.5t-35 -28t-21 -36t-11 -42.5
t-3.5 -38t-0.5 -33q0 -28 1.5 -49.5t8.5 -49t18.5 -45.5t34 -30.5t52.5 -12.5q53 0 112 36q10 5 11 5q3 0 5 -4zM373 653l-110 -88q-7 -5 -9 -5q-1 0 -9 5l-110 88q-8 6 -8 10q0 1 3 7l15 20q4 6 9 6q3 0 9 -4l91 -60l91 60q6 4 9 4q5 0 9 -6l15 -20q3 -6 3 -7q0 -4 -8 -10z
" />
    <glyph glyph-name="Dcaron" unicode="&#x10e;" horiz-adv-x="574" 
d="M52 685h227q90 0 145 -42q98 -75 98 -294q0 -207 -85 -288q-64 -61 -195 -61h-190q-12 0 -12 12v41q0 12 12 12h63v555h-63q-12 0 -12 12v41q0 12 12 12zM197 70h62q58 0 95.5 25.5t57.5 84.5q20 61 20 162q0 132 -27 192q-23 50 -62.5 65.5t-90.5 15.5h-55v-545z
M247 812l98 52q7 4 10 4q2 0 6 -4l16 -20q0 -1 1.5 -2t2 -2.5t0.5 -3.5q0 -6 -8 -10l-111 -77q-9 -6 -15 -6t-15 6l-111 77q-8 4 -8 10l4 8l16 20q4 4 6 4q3 0 10 -4z" />
    <glyph glyph-name="dcaron" unicode="&#x10f;" horiz-adv-x="620" 
d="M495 50v-38q0 -12 -12 -12h-90q-5 0 -9.5 2t-7.5 4.5t-5.5 7t-3.5 7t-3 8t-2 6.5l-4 10q-68 -59 -141 -59q-84 0 -126 67q-41 65 -41 177q0 145 59 213q44 51 121 51q67 0 114 -34v195h-64q-12 0 -12 12v38q0 12 12 12h128q12 0 12 -12v-580q0 -34 4 -54l2 -9h57
q12 0 12 -12zM344 112v282q-51 33 -109 33q-55 0 -80 -40q-23 -38 -23 -155q0 -103 18 -136q23 -43 73 -43q60 0 121 59zM533 717h69q6 0 6 -5l-3 -9l-90 -170q-3 -7 -8 -7q-1 0 -7 2l-21 7q-5 2 -5 5q0 5 1 8l46 160q3 9 12 9z" />
    <glyph glyph-name="Dcroat" unicode="&#x110;" horiz-adv-x="574" 
d="M115 620h-63q-12 0 -12 12v41q0 12 12 12h201q36 0 62 -3t58.5 -13t58.5 -33t46 -59q44 -81 44 -239q0 -76 -14 -140q-14 -63 -44 -105.5t-70.5 -61t-74.5 -25t-77 -6.5h-190q-12 0 -12 12v41q0 12 12 12h63v259h-62h-2q-4 0 -6 0.5t-3.5 3.5t-1.5 10v38q6 12 13 13h62
v231zM197 70h62q59 0 96 25.5t57 84.5q20 57 20 169q0 130 -31 192q-18 36 -51 55t-98 19h-55v-226h120q7 0 10 -1.5t3.5 -3t0.5 -5.5v-3v-38v-2q0 -4 -0.5 -6t-3.5 -4t-10 -2h-120v-254z" />
    <glyph glyph-name="dcroat" unicode="&#x111;" horiz-adv-x="518" 
d="M495 50v-38q0 -12 -12 -12h-90q-5 0 -9.5 2t-7.5 4.5t-5.5 7t-3.5 7t-3 8t-2 6.5l-4 10q-68 -59 -141 -59q-84 0 -126 67q-41 65 -41 177q0 145 59 213q44 51 121 51q67 0 114 -34v89h-125q-12 0 -12 12v29q0 12 12 12h125v53h-64q-12 0 -12 12v38q0 12 12 12h128
q12 0 12 -12v-103h56q13 0 13 -15v-26q0 -12 -12 -12h-57v-424q0 -34 4 -54l2 -9h57q12 0 12 -12zM344 112v282q-51 33 -109 33q-55 0 -80 -40q-23 -38 -23 -155q0 -103 18 -136q23 -43 73 -43q60 0 121 59z" />
    <glyph glyph-name="Emacron" unicode="&#x112;" horiz-adv-x="481" 
d="M449 159v-147q0 -12 -12 -12h-385q-12 0 -12 12v41q0 12 12 12h63v555h-63q-12 0 -12 12v41q0 12 12 12h378q12 0 12 -12v-138q0 -12 -12 -12h-44q-12 0 -12 12v80h-177v-222h197q12 0 12 -12v-46q0 -12 -12 -12h-197v-253h184v89q0 12 12 12h44q12 0 12 -12zM134 783v37
q0 13 13 13h226h4t4 -1t4 -4t1 -8v-37q0 -6 -2.5 -9.5t-4.5 -3.5h-6h-226h-4t-4 1t-4 4t-1 8z" />
    <glyph glyph-name="emacron" unicode="&#x113;" horiz-adv-x="469" 
d="M396 88l18 -45q1 -2 1 -6q0 -7 -37 -25q-58 -26 -113 -26q-107 0 -166 76q-52 68 -52 178q0 122 62 193q54 61 137 61q79 0 124 -49q57 -60 57 -199v-5q0 -17 -11 -17h-287v-5q0 -58 25 -102q19 -33 50.5 -48.5t62.5 -15.5q49 0 110 35q8 4 12 5h2q4 0 5 -5zM129 286h216
q0 47 -16 85q-25 61 -89 61q-63 0 -92 -59q-19 -40 -19 -87zM128 610v38q0 12 12 12h221q12 0 12 -12v-38q0 -12 -12 -12h-221q-12 0 -12 12z" />
    <glyph glyph-name="Edotaccent" unicode="&#x116;" horiz-adv-x="481" 
d="M449 159v-147q0 -12 -12 -12h-385q-12 0 -12 12v41q0 12 12 12h63v555h-63q-12 0 -12 12v41q0 12 12 12h378q12 0 12 -12v-138q0 -12 -12 -12h-44q-12 0 -12 12v80h-177v-222h197q12 0 12 -12v-46q0 -12 -12 -12h-197v-253h184v89q0 12 12 12h44q12 0 12 -12zM195 805
q0 25 19.5 44.5t44.5 19.5t44.5 -19.5t19.5 -44.5t-19.5 -44.5t-44.5 -19.5t-44.5 19.5t-19.5 44.5z" />
    <glyph glyph-name="edotaccent" unicode="&#x117;" horiz-adv-x="469" 
d="M396 88l18 -45q1 -2 1 -6q0 -7 -37 -25q-58 -26 -113 -26q-107 0 -166 76q-52 68 -52 178q0 122 62 193q54 61 137 61q79 0 124 -49q57 -60 57 -199v-5q0 -17 -11 -17h-287v-5q0 -58 25 -102q19 -33 50.5 -48.5t62.5 -15.5q49 0 110 35q8 4 12 5h2q4 0 5 -5zM129 286h216
q0 47 -16 85q-25 61 -89 61q-63 0 -92 -59q-19 -40 -19 -87zM304 627q0 -24 -17.5 -41.5t-41.5 -17.5t-41.5 17.5t-17.5 41.5t17.5 41.5t41.5 17.5t41.5 -17.5t17.5 -41.5z" />
    <glyph glyph-name="Eogonek" unicode="&#x118;" horiz-adv-x="481" 
d="M449 159v-147q0 -4 -1 -6q-2 -4 -4 -6l-7 -9q-44 -55 -44 -90q0 -32 32 -32q23 0 49 14l6 4t4 3t2.5 1.5t2.5 0.5q3 0 6 -6l10 -32q3 -11 -11 -19q-43 -19 -71 -19q-46 0 -68.5 23.5t-22.5 57.5q0 39 47 103h-327q-12 0 -12 12v41q0 12 12 12h63v555h-63q-12 0 -12 12v41
q0 12 12 12h378q12 0 12 -12v-138q0 -12 -12 -12h-44q-12 0 -12 12v80h-177v-222h197q12 0 12 -12v-46q0 -12 -12 -12h-197v-253h184v89q0 12 12 12h44q12 0 12 -12z" />
    <glyph glyph-name="eogonek" unicode="&#x119;" horiz-adv-x="469" 
d="M396 88l18 -45q2 -7 0 -10t-17 -19q-18 -18 -41.5 -52.5t-23.5 -57.5q0 -16 10 -25t24 -9q17 0 51 17l10 5q3 0 5 -6l10 -28q4 -11 -8 -19q-32 -20 -72 -20q-45 0 -67 23t-22 58q0 37 41 91q-25 -5 -49 -5q-106 0 -164 73q-54 67 -54 181t56 185q55 69 142 69
q80 0 125 -49q26 -28 41.5 -78.5t15.5 -97.5v-28q0 -17 -11 -17h-287v-19q3 -52 32 -95q39 -57 106 -57q47 0 110 35q8 4 12 5h2q4 0 5 -5zM129 286h216q0 47 -16 85q-25 61 -89 61q-45 0 -77.5 -36t-33.5 -110z" />
    <glyph glyph-name="Ecaron" unicode="&#x11a;" horiz-adv-x="481" 
d="M449 159v-147q0 -12 -12 -12h-385q-12 0 -12 12v41q0 12 12 12h63v555h-63q-12 0 -12 12v41q0 12 12 12h378q12 0 12 -12v-138q0 -12 -12 -12h-44q-12 0 -12 12v80h-177v-222h197q12 0 12 -12v-46q0 -12 -12 -12h-197v-253h184v89q0 12 12 12h44q12 0 12 -12zM276 812
l98 52q7 4 10 4q2 0 6 -4l16 -20q0 -1 1.5 -2t2 -2.5t0.5 -3.5q0 -6 -8 -10l-111 -77q-9 -6 -15 -6t-15 6l-111 77q-8 4 -8 10l4 8l16 20q4 4 6 4q3 0 10 -4z" />
    <glyph glyph-name="ecaron" unicode="&#x11b;" horiz-adv-x="469" 
d="M396 88l18 -45q1 -2 1 -6q0 -7 -37 -25q-58 -26 -113 -26q-107 0 -166 76q-52 68 -52 178q0 122 62 193q54 61 137 61q79 0 124 -49q57 -60 57 -199v-5q0 -17 -11 -17h-287v-5q0 -58 25 -102q19 -33 50.5 -48.5t62.5 -15.5q49 0 110 35q8 4 12 5h2q4 0 5 -5zM129 286h216
q0 47 -16 85q-25 61 -89 61q-63 0 -92 -59q-19 -40 -19 -87zM369 654l-110 -88q-7 -5 -9 -5t-9 5l-110 88q-8 6 -8 10q0 1 3 7l15 20q4 6 9 6q3 0 9 -4l91 -60l91 60q6 4 9 4q5 0 9 -6l15 -20q3 -6 3 -7q0 -4 -8 -10z" />
    <glyph glyph-name="Gcircumflex" unicode="&#x11c;" horiz-adv-x="554" 
d="M468 282v-217q0 -26 -3.5 -32.5t-25.5 -17.5q-61 -29 -143 -29q-127 0 -188 101q-56 92 -56 262q0 168 60 259t180 91q77 0 151 -50q10 -6 10 -19v-111q0 -12 -12 -12h-44q-12 0 -12 12v85l-6 3q-50 25 -88 25q-66 0 -103 -52q-46 -66 -46 -221q0 -154 39 -232
q38 -74 117 -74q50 0 88 19v210h-80q-12 0 -12 12v41q0 12 12 12h218q12 0 12 -12v-41q0 -12 -12 -12h-56zM284 799l-98 -52q-7 -4 -10 -4q-2 0 -6 4l-16 20q0 1 -1.5 2t-2 2.5t-0.5 3.5q0 6 8 10l111 77q9 6 15 6t15 -6l111 -77q8 -4 8 -10l-4 -8l-16 -20q-4 -4 -6 -4
q-3 0 -10 4z" />
    <glyph glyph-name="gcircumflex" unicode="&#x11d;" horiz-adv-x="501" 
d="M347 -35l-4 107q-65 -59 -129 -59q-75 0 -121 72q-43 68 -43 168q0 117 67 188q50 53 117 53q74 0 129 -48l2 6q6 20 21 37q6 7 15 2l37 -21q8 -5 8 -9q0 -1 -5 -13q-22 -50 -22 -90v-181l4 -211q2 -81 -44 -128.5t-131 -47.5q-80 0 -144 33l-10 5q-15 8 -15 18q0 1 3 7
l17 37q3 6 7 6q1 0 19 -8q64 -31 123 -31q42 0 71.5 27t27.5 81zM343 138v250l-5 3q-60 36 -96 36q-47 0 -78 -41q-32 -41 -32 -124q0 -88 23 -131q12 -23 33 -37t44 -14q24 0 55.5 17t55.5 41zM261 625l-91 -60q-6 -4 -9 -4q-5 0 -9 6l-15 20q-3 6 -3 7q0 4 8 10l110 88
q8 5 9 5t9 -5l110 -88q8 -6 8 -10q0 -1 -3 -7l-15 -20q-4 -6 -9 -6q-3 0 -9 4z" />
    <glyph glyph-name="Gbreve" unicode="&#x11e;" horiz-adv-x="554" 
d="M468 282v-217q0 -26 -3.5 -32.5t-25.5 -17.5q-61 -29 -143 -29q-127 0 -188 101q-56 92 -56 262q0 168 60 259t180 91q77 0 151 -50q10 -6 10 -19v-111q0 -12 -12 -12h-44q-12 0 -12 12v85l-6 3q-50 25 -88 25q-66 0 -103 -52q-46 -66 -46 -221q0 -154 39 -232
q38 -74 117 -74q50 0 88 19v210h-80q-12 0 -12 12v41q0 12 12 12h218q12 0 12 -12v-41q0 -12 -12 -12h-56zM361 866l40 -7q7 -2 9 -6q2 -5 0 -9q-9 -55 -52 -82q-32 -21 -79 -21t-79 21q-43 27 -52 82q-2 4 0 9q2 4 9 6l40 7q1 0 3 0.5t3 0.5q9 0 11 -13q12 -60 65 -60
t65 60q3 14 17 12z" />
    <glyph glyph-name="gbreve" unicode="&#x11f;" horiz-adv-x="501" 
d="M347 -35l-4 107q-65 -59 -129 -59q-75 0 -121 72q-43 68 -43 168q0 117 67 188q50 53 117 53q74 0 129 -48l2 6q6 20 21 37q6 7 15 2l37 -21q8 -5 8 -9q0 -1 -5 -13q-22 -50 -22 -90v-181l4 -211q2 -81 -44 -128.5t-131 -47.5q-80 0 -144 33l-10 5q-15 8 -15 18q0 1 3 7
l17 37q3 6 7 6q1 0 19 -8q64 -31 123 -31q42 0 71.5 27t27.5 81zM343 138v250l-5 3q-60 36 -96 36q-47 0 -78 -41q-32 -41 -32 -124q0 -88 23 -131q12 -23 33 -37t44 -14q24 0 55.5 17t55.5 41zM338 682l41 -7q11 -2 11 -15q0 -1 -0.5 -3t-0.5 -3q-9 -43 -36 -70
q-34 -34 -92 -34t-92 34q-27 27 -36 70q0 1 -0.5 3t-0.5 3q0 13 11 15l41 7q10 2 11 -5l3 -12q16 -62 63 -62t63 62l3 12q2 5 6 5h5z" />
    <glyph glyph-name="Gcommaaccent" unicode="&#x122;" horiz-adv-x="554" 
d="M468 282v-217q0 -26 -3.5 -32.5t-25.5 -17.5q-61 -29 -143 -29q-127 0 -188 101q-56 92 -56 262q0 168 60 259t180 91q77 0 151 -50q10 -6 10 -19v-111q0 -12 -12 -12h-44q-12 0 -12 12v85l-6 3q-50 25 -88 25q-66 0 -103 -52q-46 -66 -46 -221q0 -154 39 -232
q38 -74 117 -74q50 0 88 19v210h-80q-12 0 -12 12v41q0 12 12 12h218q12 0 12 -12v-41q0 -12 -12 -12h-56zM289 -57h69q6 0 6 -5q0 -2 -2 -6q-1 -2 -1 -3l-90 -170q-3 -7 -8 -7q-1 0 -7 2l-21 7q-5 2 -5 5q0 5 1 8l46 160q3 9 12 9z" />
    <glyph glyph-name="gcommaaccent" unicode="&#x123;" horiz-adv-x="501" 
d="M347 -35l-4 107q-65 -59 -129 -59q-75 0 -121 72q-43 68 -43 168q0 117 67 188q50 53 117 53q74 0 129 -48l2 6q6 20 21 37q6 7 15 2l37 -21q8 -5 8 -9q0 -1 -5 -13q-22 -50 -22 -90v-181l4 -211q2 -81 -44 -128.5t-131 -47.5q-80 0 -144 33l-10 5q-15 8 -15 18q0 1 3 7
l17 37q3 6 7 6q1 0 19 -8q64 -31 123 -31q42 0 71.5 27t27.5 81zM343 138v250l-5 3q-60 36 -96 36q-47 0 -78 -41q-32 -41 -32 -124q0 -88 23 -131q12 -23 33 -37t44 -14q24 0 55.5 17t55.5 41zM272 554h-69q-6 0 -6 5l3 9l90 170q5 9 15 5l21 -7q7 -2 4 -13l-46 -160
q-3 -9 -12 -9z" />
    <glyph glyph-name="Hcircumflex" unicode="&#x124;" horiz-adv-x="648" 
d="M609 53v-41q0 -12 -12 -12h-208q-12 0 -12 12v41q0 12 12 12h63v256h-256v-256h63q12 0 12 -12v-41q0 -12 -12 -12h-208q-12 0 -12 12v41q0 12 12 12h63v555h-63q-12 0 -12 12v41q0 12 12 12h208q12 0 12 -12v-41q0 -12 -12 -12h-63v-229h256v229h-63q-12 0 -12 12v41
q0 12 12 12h208q12 0 12 -12v-41q0 -12 -12 -12h-63v-555h63q12 0 12 -12zM320 799l-98 -52q-7 -4 -10 -4q-2 0 -6 4l-16 20q0 1 -1.5 2t-2 2.5t-0.5 3.5q0 6 8 10l111 77q9 6 15 6t15 -6l111 -77q8 -4 8 -10l-4 -8l-16 -20q-4 -4 -6 -4q-3 0 -10 4z" />
    <glyph glyph-name="hcircumflex" unicode="&#x125;" horiz-adv-x="553" 
d="M526 50v-38q0 -12 -12 -12h-120q-12 0 -12 12v334q0 39 -13 57q-17 24 -54 24q-30 0 -68.5 -18t-63.5 -43v-304h56q12 0 12 -12v-38q0 -12 -12 -12h-189q-12 0 -12 12v38q0 12 12 12h57v593h-60q-12 0 -12 12v38q0 12 12 12h124q12 0 12 -12v-276q74 65 158 65
q64 0 92 -38q25 -33 25 -112v-282h56q12 0 12 -12zM132 820l-91 -60q-6 -4 -9 -4q-5 0 -9 6l-15 20q-3 6 -3 7q0 4 8 10l110 88q7 5 9 5t9 -5l110 -88q8 -6 8 -10q0 -1 -3 -7l-15 -20q-4 -6 -9 -6q-3 0 -9 4z" />
    <glyph glyph-name="Imacron" unicode="&#x12a;" horiz-adv-x="333" 
d="M208 65h91q12 0 12 -12v-41q0 -12 -12 -12h-264q-12 0 -12 12v41q0 12 12 12h91v555h-91q-12 0 -12 12v41q0 12 12 12h264q12 0 12 -12v-41q0 -12 -12 -12h-91v-555zM41 783v37q0 13 13 13h226h4t4 -1t4 -4t1 -8v-37q0 -6 -2.5 -9.5t-4.5 -3.5h-6h-226h-4t-4 1t-4 4t-1 8
z" />
    <glyph glyph-name="imacron" unicode="&#x12b;" horiz-adv-x="278" 
d="M265 50v-38q0 -12 -12 -12h-219q-12 0 -12 12v38q0 12 12 12h72v356h-79q-12 0 -12 12v38q0 12 12 12h143q12 0 12 -12v-406h71q12 0 12 -12zM6 610v38q0 12 12 12h221q12 0 12 -12v-38q0 -12 -12 -12h-221q-12 0 -12 12z" />
    <glyph glyph-name="Iogonek" unicode="&#x12e;" horiz-adv-x="333" 
d="M208 65h91q12 0 12 -12v-41q0 -7 -5 -12l-7 -9q-44 -55 -44 -90q0 -32 32 -32q23 0 49 14l15 9q3 0 6 -6l10 -32q3 -11 -11 -19q-43 -19 -71 -19q-46 0 -68.5 23.5t-22.5 57.5q0 39 47 103h-206q-12 0 -12 12v41q0 12 12 12h91v555h-91q-12 0 -12 12v41q0 12 12 12h264
q12 0 12 -12v-41q0 -12 -12 -12h-91v-555z" />
    <glyph glyph-name="iogonek" unicode="&#x12f;" horiz-adv-x="278" 
d="M265 50v-38q0 -4 -5 -11l-12 -16l-25 -35q-15 -24 -15 -43q0 -16 9 -25t25 -9q23 0 51 17l10 5q3 0 5 -6l10 -28q4 -11 -8 -19q-29 -20 -72 -20q-42 0 -65 21q-24 21 -24 57q0 8 1 16t4 15.5t4.5 12.5t7 13.5l7.5 11.5l9 13t8 12l4 6h-160q-12 0 -12 12v38q0 12 12 12h72
v356h-79q-12 0 -12 12v38q0 12 12 12h142q13 0 13 -15v-403h71q12 0 12 -12zM199 656q0 -25 -18 -43t-43 -18t-43 18t-18 43t18 43t43 18t43 -18t18 -43z" />
    <glyph glyph-name="Idotaccent" unicode="&#x130;" horiz-adv-x="333" 
d="M208 65h91q12 0 12 -12v-41q0 -12 -12 -12h-264q-12 0 -12 12v41q0 12 12 12h91v555h-91q-12 0 -12 12v41q0 12 12 12h264q12 0 12 -12v-41q0 -12 -12 -12h-91v-555zM100 805q0 25 19 44.5t45 19.5t45 -19.5t19 -44.5t-19 -44.5t-45 -19.5t-45 19.5t-19 44.5z" />
    <glyph glyph-name="dotlessi" unicode="&#x131;" horiz-adv-x="278" 
d="M265 50v-38q0 -12 -12 -12h-219q-12 0 -12 12v38q0 12 12 12h72v356h-79q-12 0 -12 12v38q0 12 12 12h143q12 0 12 -12v-406h71q12 0 12 -12z" />
    <glyph glyph-name="Jcircumflex" unicode="&#x134;" horiz-adv-x="444" 
d="M366 673v-504q0 -82 -43 -130q-48 -53 -141 -53q-91 0 -136 57q-40 50 -40 123v18q0 12 12 12h52q12 0 12 -12v-6q0 -61 24 -92q26 -33 77 -33t76 29q25 28 25 87v446h-175q-12 0 -12 12v46q0 12 12 12h245q12 0 12 -12zM230 799l-98 -52q-7 -4 -10 -4q-2 0 -6 4l-16 20
q0 1 -1.5 2t-2 2.5t-0.5 3.5q0 6 8 10l111 77q9 6 15 6t15 -6l111 -77q8 -4 8 -10l-4 -8l-16 -20q-4 -4 -6 -4q-3 0 -10 4z" />
    <glyph glyph-name="jcircumflex" unicode="&#x135;" horiz-adv-x="273" 
d="M193 468v-521q0 -17 -1.5 -32.5t-10 -40t-22.5 -41.5t-43 -30t-69 -13q-54 0 -107 25q-20 10 -14 22l19 42q3 5 7 5h1q4 0 11 -4q46 -23 83 -23q13 0 23 2t17 7t12.5 8.5t8.5 13.5t5 13.5t3 16.5t1 15.5v16.5v15v453h-79q-12 0 -12 12v38q0 12 12 12h143q12 0 12 -12z
M142 625l-91 -60q-6 -4 -9 -4q-5 0 -9 6l-15 20q-3 6 -3 7q0 4 8 10l110 88q8 5 9 5q2 0 9 -5l110 -88q8 -6 8 -10q0 -1 -3 -7l-15 -20q-4 -6 -9 -6q-3 0 -9 4z" />
    <glyph glyph-name="Kcommaaccent" unicode="&#x136;" horiz-adv-x="574" 
d="M560 53v-41q0 -12 -12 -12h-191q-12 0 -12 12v41q0 12 12 12h48l-207 264h-2v-264h63q12 0 12 -12v-41q0 -12 -12 -12h-208q-12 0 -12 12v41q0 12 12 12h63v555h-63q-12 0 -12 12v41q0 12 12 12h208q12 0 12 -12v-41q0 -12 -12 -12h-63v-279h2l210 279h-49q-12 0 -12 12
v41q0 12 12 12h183q12 0 12 -12v-41q0 -12 -12 -12h-45l-218 -280l220 -275h49q12 0 12 -12zM276 -57h69q6 0 6 -5q0 -2 -2 -6q-1 -2 -1 -3l-90 -170q-4 -7 -8 -7q-1 0 -7 2l-21 7q-5 2 -5 5q0 5 1 8l46 160q3 9 12 9z" />
    <glyph glyph-name="kcommaaccent" unicode="&#x137;" horiz-adv-x="526" 
d="M506 50v-38q0 -8 -2.5 -10t-8.5 -2h-93q-10 0 -17 8l-202 238v-184h56q12 0 12 -12v-38q0 -12 -12 -12h-189q-12 0 -12 12v38q0 12 12 12h57v593h-60q-12 0 -12 12v38q0 12 12 12h122q14 0 14 -13v-444l154 158h-45q-12 0 -12 12v38q0 12 12 12h190q12 0 12 -12v-38
q0 -12 -12 -12h-51l-162 -158l174 -198h52h4.5t3 -1t2.5 -4t1 -7zM254 -57h69q6 0 6 -5q0 -2 -2 -6q-1 -2 -1 -3l-90 -170q-4 -7 -8 -7q-1 0 -7 2l-21 7q-5 2 -5 5q0 5 1 8l46 160q3 9 12 9z" />
    <glyph glyph-name="Lacute" unicode="&#x139;" horiz-adv-x="481" 
d="M377 70l35 98q4 11 16 7l46 -17q10 -4 6 -17l-47 -130q-4 -11 -15 -11h-366q-12 0 -12 12v41q0 12 12 12h63v555h-63q-12 0 -12 12v41q0 12 12 12h208q12 0 12 -12v-41q0 -12 -12 -12h-63v-550h180zM145 776l164 102q6 3 8 3q4 0 7 -4l29 -50q3 -5 3 -9q0 -6 -11 -10
l-172 -69q-1 0 -5 -1.5t-6 -1.5q-4 0 -7 4l-13 24q-2 3 -2 6q0 4 5 6z" />
    <glyph glyph-name="lacute" unicode="&#x13a;" horiz-adv-x="278" 
d="M260 60l13 -42q4 -12 -9 -17q-32 -15 -75 -15q-70 0 -93 48q-14 29 -14 86v535h-60q-12 0 -12 12v38q0 12 12 12h124q12 0 12 -12v-563q0 -64 10 -76q10 -13 33 -13q13 0 40 9q10 4 12 4q4 0 7 -6zM204 900l29 -43q4 -8 4 -9q0 -4 -9 -10l-166 -86q-4 -2 -7 -2t-7 4
l-13 19q-4 5 -4 8q0 5 4 7l149 115q8 5 10 5q5 0 10 -8z" />
    <glyph glyph-name="Lcommaaccent" unicode="&#x13b;" horiz-adv-x="481" 
d="M377 70l35 98q4 11 16 7l46 -17q10 -4 6 -17l-47 -130q-4 -11 -15 -11h-366q-12 0 -12 12v41q0 12 12 12h63v555h-63q-12 0 -12 12v41q0 12 12 12h208q12 0 12 -12v-41q0 -12 -12 -12h-63v-550h180zM228 -57h69q6 0 6 -5q0 -2 -2 -6q-1 -2 -1 -3l-90 -170q-4 -7 -8 -7
q-1 0 -7 2l-21 7q-5 2 -5 5q0 5 1 8l46 160q3 9 12 9z" />
    <glyph glyph-name="lcommaaccent" unicode="&#x13c;" horiz-adv-x="278" 
d="M260 60l13 -42q4 -12 -9 -17q-32 -15 -75 -15q-70 0 -93 48q-14 29 -14 86v535h-60q-12 0 -12 12v38q0 12 12 12h124q12 0 12 -12v-563q0 -64 10 -76q10 -13 33 -13q13 0 40 9q10 4 12 4q4 0 7 -6zM156 -57h69q6 0 6 -5l-3 -9l-90 -170q-4 -7 -8 -7q-1 0 -7 2l-21 7
q-5 2 -5 5q0 5 1 8l46 160q3 9 12 9z" />
    <glyph glyph-name="Lcaron" unicode="&#x13d;" horiz-adv-x="481" 
d="M377 70l35 98q4 11 16 7l46 -17q10 -4 6 -17l-47 -130q-4 -11 -15 -11h-366q-12 0 -12 12v41q0 12 12 12h63v555h-63q-12 0 -12 12v41q0 12 12 12h208q12 0 12 -12v-41q0 -12 -12 -12h-63v-550h180zM382 717h69q6 0 6 -5l-3 -9l-90 -170q-4 -7 -8 -7q-1 0 -7 2l-21 7
q-5 2 -5 5q0 5 1 8l46 160q3 9 12 9z" />
    <glyph glyph-name="lcaron" unicode="&#x13e;" horiz-adv-x="350" 
d="M260 60l13 -42q4 -12 -9 -17q-32 -15 -75 -15q-70 0 -93 48q-14 29 -14 86v535h-60q-12 0 -12 12v38q0 12 12 12h124q12 0 12 -12v-563q0 -64 10 -76q10 -13 33 -13q13 0 40 9q10 4 12 4q4 0 7 -6zM263 717h69q6 0 6 -5l-3 -9l-90 -170q-3 -7 -8 -7q-1 0 -7 2l-21 7
q-5 2 -5 5q0 5 1 8l46 160q3 9 12 9z" />
    <glyph glyph-name="Lslash" unicode="&#x141;" horiz-adv-x="481" 
d="M377 70l35 98q4 11 16 7l46 -17q10 -4 6 -17l-47 -130q-4 -11 -15 -11h-366q-12 0 -12 12v41q0 12 12 12h63v215l-66 -43q-10 -7 -10 4v48q0 10 9 16l67 44v271h-63q-12 0 -12 12v41q0 12 12 12h208q12 0 12 -12v-41q0 -12 -12 -12h-63v-230l142 93l6 3q4 0 4 -8v-46
q0 -12 -8 -18l-144 -94v-250h180z" />
    <glyph glyph-name="lslash" unicode="&#x142;" horiz-adv-x="278" 
d="M260 60l14 -44q3 -8 -4 -12q-34 -18 -80 -18q-49 0 -77 25q-15 13 -22 36.5t-8 39.5t-1 49v115l-74 -67q-4 -4 -7 -4q-5 0 -5 7v54q0 7 5 9l81 74v331h-60q-12 0 -12 12v38q0 12 12 12h122q14 0 14 -15v-309l90 83q4 4 7 4q5 0 5 -7v-54q0 -7 -5 -9l-97 -89v-174
q0 -50 3 -64q7 -30 42 -30q18 0 39 9q10 4 14 4q1 0 4 -6z" />
    <glyph glyph-name="Nacute" unicode="&#x143;" horiz-adv-x="611" 
d="M515 620v-608q0 -12 -12 -12h-55q-12 0 -16 10l-230 494q-15 31 -27 87l-2 -2q10 -56 10 -89v-435h65q12 0 12 -12v-41q0 -12 -12 -12h-201q-12 0 -12 12v41q0 12 12 12h63v555h-63q-12 0 -12 12v41q0 12 12 12h140q11 0 15 -9l221 -466q9 -19 17 -51l7 -26l2 2l-7 49
v436h-65q-12 0 -12 12v41q0 12 12 12h202q12 0 12 -12v-41q0 -12 -12 -12h-64zM245 776l164 102q6 3 8 3q4 0 7 -4l29 -50q3 -5 3 -9q0 -6 -11 -10l-172 -69q-1 0 -5 -1.5t-6 -1.5q-4 0 -7 4l-13 24q-2 3 -2 6q0 4 5 6z" />
    <glyph glyph-name="nacute" unicode="&#x144;" horiz-adv-x="551" 
d="M526 50v-38q0 -12 -12 -12h-120q-12 0 -12 12v334q0 40 -15 59q-18 22 -52 22q-60 0 -121 -54l-8 -7v-304h57q12 0 12 -12v-38q0 -12 -12 -12h-190q-12 0 -12 12v38q0 12 12 12h57v293q0 35 -4 54l-2 9h-57q-12 0 -12 12v38q0 12 12 12h100q8 0 14 -9q8 -12 15 -36l2 -9
l9 7q78 61 155 61q61 0 92 -41q24 -32 24 -109v-282h56q12 0 12 -12zM405 700l29 -43q4 -8 4 -9q0 -4 -9 -10l-166 -86q-4 -2 -7 -2t-7 4l-13 19q-4 5 -4 8q0 5 4 7l149 115q8 5 10 5q5 0 10 -8z" />
    <glyph glyph-name="Ncommaaccent" unicode="&#x145;" horiz-adv-x="611" 
d="M515 620v-608q0 -12 -12 -12h-55q-12 0 -16 10l-230 494q-15 31 -27 87l-2 -2q10 -56 10 -89v-435h65q12 0 12 -12v-41q0 -12 -12 -12h-201q-12 0 -12 12v41q0 12 12 12h63v555h-63q-12 0 -12 12v41q0 12 12 12h140q11 0 15 -9l221 -466q9 -19 17 -51l7 -26l2 2l-7 49
v436h-65q-12 0 -12 12v41q0 12 12 12h202q12 0 12 -12v-41q0 -12 -12 -12h-64zM298 -57h69q6 0 6 -5q0 -2 -2 -6q-1 -2 -1 -3l-90 -170q-4 -7 -8 -7q-1 0 -7 2l-21 7q-5 2 -5 5q0 5 1 8l46 160q3 9 12 9z" />
    <glyph glyph-name="ncommaaccent" unicode="&#x146;" horiz-adv-x="551" 
d="M526 50v-38q0 -12 -12 -12h-120q-12 0 -12 12v334q0 40 -15 59q-18 22 -52 22q-60 0 -121 -54l-8 -7v-304h57q12 0 12 -12v-38q0 -12 -12 -12h-190q-12 0 -12 12v38q0 12 12 12h57v293q0 35 -4 54l-2 9h-57q-12 0 -12 12v38q0 12 12 12h100q8 0 14 -9q8 -12 15 -36l2 -9
l9 7q78 61 155 61q61 0 92 -41q24 -32 24 -109v-282h56q12 0 12 -12zM267 -57h69q6 0 6 -5q0 -2 -2 -6q-1 -2 -1 -3l-90 -170q-3 -7 -8 -7q-1 0 -7 2l-21 7q-5 2 -5 5q0 5 1 8l46 160q3 9 12 9z" />
    <glyph glyph-name="Ncaron" unicode="&#x147;" horiz-adv-x="611" 
d="M515 620v-608q0 -12 -12 -12h-55q-12 0 -16 10l-230 494q-15 31 -27 87l-2 -2q10 -56 10 -89v-435h65q12 0 12 -12v-41q0 -12 -12 -12h-201q-12 0 -12 12v41q0 12 12 12h63v555h-63q-12 0 -12 12v41q0 12 12 12h140q11 0 15 -9l221 -466q9 -19 17 -51l7 -26l2 2l-7 49
v436h-65q-12 0 -12 12v41q0 12 12 12h202q12 0 12 -12v-41q0 -12 -12 -12h-64zM312 812l98 52q7 4 10 4q2 0 6 -4l16 -20q0 -1 1.5 -2t2 -2.5t0.5 -3.5q0 -6 -8 -10l-111 -77q-9 -6 -15 -6t-15 6l-111 77q-8 4 -8 10l4 8l16 20q4 4 6 4q3 0 10 -4z" />
    <glyph glyph-name="ncaron" unicode="&#x148;" horiz-adv-x="551" 
d="M526 50v-38q0 -12 -12 -12h-120q-12 0 -12 12v334q0 40 -15 59q-18 22 -52 22q-60 0 -121 -54l-8 -7v-304h57q12 0 12 -12v-38q0 -12 -12 -12h-190q-12 0 -12 12v38q0 12 12 12h57v293q0 35 -4 54l-2 9h-57q-12 0 -12 12v38q0 12 12 12h100q8 0 14 -9q8 -12 15 -36l2 -9
l9 7q78 61 155 61q61 0 92 -41q24 -32 24 -109v-282h56q12 0 12 -12zM421 654l-110 -88q-7 -5 -9 -5t-9 5l-110 88q-8 6 -8 10q0 1 3 7l15 20q4 6 9 6q3 0 9 -4l91 -60l91 60q6 4 9 4q5 0 9 -6l15 -20q3 -6 3 -7q0 -4 -8 -10z" />
    <glyph glyph-name="Omacron" unicode="&#x14c;" horiz-adv-x="556" 
d="M504 343q0 -88 -15 -154.5t-38 -104t-55 -61t-59.5 -30.5t-58.5 -7q-32 0 -60 7.5t-59.5 30.5t-54 60.5t-37.5 104t-15 154.5q0 30 1.5 55t7.5 71.5t21 82.5t38.5 71.5t64 55.5t93.5 20q31 0 59 -7t59.5 -30.5t54.5 -60.5t38 -103.5t15 -154.5zM278 53q28 0 50.5 11
t36.5 26.5t24 42.5t14.5 48t7.5 54.5t3 50v46.5v11q0 49 -2 83t-9.5 76t-21.5 68t-40 44t-63 18q-28 0 -50.5 -11.5t-36.5 -27t-24 -43t-14.5 -49t-7 -54.5t-3 -50t-0.5 -47v-7q0 -133 18 -190q30 -100 118 -100zM152 783v37q0 13 13 13h226h4t4 -1t4 -4t1 -8v-37
q0 -6 -2.5 -9.5t-4.5 -3.5h-6h-226h-4t-4 1t-4 4t-1 8z" />
    <glyph glyph-name="omacron" unicode="&#x14d;" horiz-adv-x="498" 
d="M448 243q0 -132 -58 -194.5t-147 -62.5q-81 0 -137 60t-56 192q0 131 57.5 193.5t145.5 62.5q84 0 139.5 -60t55.5 -191zM250 48q116 0 116 196q0 188 -117 188t-117 -185q0 -199 118 -199zM126 610v38q0 12 12 12h221q12 0 12 -12v-38q0 -12 -12 -12h-221q-12 0 -12 12z
" />
    <glyph glyph-name="Obreve" unicode="&#x14e;" horiz-adv-x="556" 
d="M504 343q0 -88 -15 -154.5t-38 -104t-55 -61t-59.5 -30.5t-58.5 -7q-32 0 -60 7.5t-59.5 30.5t-54 60.5t-37.5 104t-15 154.5q0 30 1.5 55t7.5 71.5t21 82.5t38.5 71.5t64 55.5t93.5 20q31 0 59 -7t59.5 -30.5t54.5 -60.5t38 -103.5t15 -154.5zM278 53q28 0 50.5 11
t36.5 26.5t24 42.5t14.5 48t7.5 54.5t3 50v46.5v11q0 49 -2 83t-9.5 76t-21.5 68t-40 44t-63 18q-28 0 -50.5 -11.5t-36.5 -27t-24 -43t-14.5 -49t-7 -54.5t-3 -50t-0.5 -47v-7q0 -133 18 -190q30 -100 118 -100zM360 866l40 -7q7 -2 9 -6q1 -5 0 -9q-9 -55 -52 -82
q-32 -21 -79 -21t-79 21q-43 27 -52 82q-1 4 0 9q2 4 9 6l40 7q1 0 3 0.5t3 0.5q9 0 11 -13q12 -60 65 -60t65 60q3 14 17 12z" />
    <glyph glyph-name="obreve" unicode="&#x14f;" horiz-adv-x="498" 
d="M448 243q0 -132 -58 -194.5t-147 -62.5q-81 0 -137 60t-56 192q0 131 57.5 193.5t145.5 62.5q84 0 139.5 -60t55.5 -191zM250 48q116 0 116 196q0 188 -117 188t-117 -185q0 -199 118 -199zM326 682l41 -7q11 -2 11 -15q0 -1 -0.5 -3t-0.5 -3q-9 -43 -36 -70
q-34 -34 -92 -34t-92 34q-27 27 -36 70q0 1 -0.5 3t-0.5 3q0 13 11 15l41 7q10 2 11 -5l3 -12q16 -62 63 -62t63 62l3 12q2 5 6 5h5z" />
    <glyph glyph-name="Ohungarumlaut" unicode="&#x150;" horiz-adv-x="556" 
d="M504 343q0 -88 -15 -154.5t-38 -104t-55 -61t-59.5 -30.5t-58.5 -7q-32 0 -60 7.5t-59.5 30.5t-54 60.5t-37.5 104t-15 154.5q0 30 1.5 55t7.5 71.5t21 82.5t38.5 71.5t64 55.5t93.5 20q31 0 59 -7t59.5 -30.5t54.5 -60.5t38 -103.5t15 -154.5zM278 53q28 0 50.5 11
t36.5 26.5t24 42.5t14.5 48t7.5 54.5t3 50v46.5v11q0 49 -2 83t-9.5 76t-21.5 68t-40 44t-63 18q-28 0 -50.5 -11.5t-36.5 -27t-24 -43t-14.5 -49t-7 -54.5t-3 -50t-0.5 -47v-7q0 -133 18 -190q30 -100 118 -100zM333 898l33 -34q6 -6 6 -10q0 -5 -4 -7l-142 -103
q-5 -4 -9 -4t-7 3l-17 17q-3 3 -3 6q0 4 4 8l121 122q7 7 10 7t8 -5zM480 898l33 -34q6 -6 6 -10q0 -5 -4 -7l-142 -103q-5 -4 -9 -4t-7 3l-17 17q-3 3 -3 6q0 4 4 8l121 122q7 7 10 7t8 -5z" />
    <glyph glyph-name="ohungarumlaut" unicode="&#x151;" horiz-adv-x="498" 
d="M448 243q0 -132 -58 -194.5t-147 -62.5q-81 0 -137 60t-56 192q0 131 57.5 193.5t145.5 62.5q84 0 139.5 -60t55.5 -191zM250 48q116 0 116 196q0 188 -117 188t-117 -185q0 -199 118 -199zM320 664l-127 -113q-7 -5 -10 -5q-4 0 -9 5l-11 10q-7 7 -7 10q0 1 5 9l105 131
q8 8 10 8l9 -6l34 -31q7 -7 7 -10q0 -2 -6 -8zM456 664l-127 -113q-7 -5 -10 -5q-4 0 -9 5l-11 10q-7 7 -7 10q0 1 5 9l105 131q8 8 10 8l9 -6l34 -31q7 -7 7 -10q0 -2 -6 -8z" />
    <glyph glyph-name="OE" unicode="&#x152;" horiz-adv-x="778" 
d="M475 323v-253h184v89q0 12 12 12h44q12 0 12 -12v-147q0 -12 -12 -12h-310q-12 0 -12 12v30q-50 -56 -127 -56q-97 0 -153 83q-61 91 -61 268q0 209 80 300q55 62 143 62q70 0 118 -47v21q0 12 12 12h303q12 0 12 -12v-138q0 -12 -12 -12h-44q-12 0 -12 12v80h-177v-222
h197q12 0 12 -12v-46q0 -12 -12 -12h-197zM393 114v455l-11 12q-47 51 -106 51q-25 0 -51 -14t-43 -43q-40 -69 -40 -232q0 -156 34 -223q17 -34 44.5 -50.5t55.5 -16.5q56 0 117 61z" />
    <glyph glyph-name="oe" unicode="&#x153;" horiz-adv-x="778" 
d="M731 230h-287q0 -60 22 -104q35 -73 116 -73q29 0 62.5 12.5t49.5 22.5q8 5 11 5t6 -5l17 -42q4 -13 -12 -21q-83 -39 -148 -39q-110 0 -163 91q-51 -91 -163 -91q-24 0 -47 5t-51 21.5t-48.5 43t-34.5 73.5t-14 109t14 109t35 74t49.5 44.5t53 23t50.5 5.5q98 0 151 -80
l6 -9q28 49 71 69t83 20q35 0 64.5 -11.5t47 -30t25.5 -30t14 -23.5q31 -62 31 -152q0 -17 -11 -17zM248 48q65 0 89.5 53t24.5 144q0 187 -116 187q-117 0 -117 -184q0 -200 119 -200zM444 292h216q-2 52 -25 92q-28 48 -79 48q-44 0 -78.5 -36t-33.5 -104z" />
    <glyph glyph-name="Racute" unicode="&#x154;" horiz-adv-x="556" 
d="M555 53v-41q0 -12 -12 -12h-98q-12 0 -18 11l-158 301h-72v-247h64q12 0 12 -12v-41q0 -12 -12 -12h-209q-12 0 -12 12v41q0 12 12 12h63v555h-63q-12 0 -12 12v41q0 12 12 12h243q55 0 94 -15t59 -42t28.5 -56t8.5 -63q0 -81 -47 -135q-35 -41 -85 -55l141 -254h49
q12 0 12 -12zM197 377h65q78 0 110 32q31 31 31 85q0 66 -30 94q-30 27 -102 27h-74v-238zM225 776l164 102q6 3 8 3q4 0 7 -4l29 -50q3 -5 3 -9q0 -6 -11 -10l-172 -69q-1 0 -5 -1.5t-6 -1.5q-4 0 -7 4l-13 24q-2 3 -2 6q0 4 5 6z" />
    <glyph glyph-name="racute" unicode="&#x155;" horiz-adv-x="353" 
d="M263 50v-38q0 -12 -12 -12h-195q-12 0 -12 12v38q0 12 12 12h56v293q0 21 -11 63h-54q-12 0 -12 12v38q0 12 12 12h90q11 0 22 -18t17 -47l1 -5l14 16q29 34 49 48q30 20 61 20q17 0 36 -8q10 -5 7 -14l-24 -55q-2 -6 -6 -6l-2 1q-1 0 -3 1q-16 7 -24 7q-32 0 -81 -59
l-16 -19v-280h63q12 0 12 -12zM303 701l29 -43q4 -8 4 -9q0 -4 -9 -10l-166 -86q-4 -2 -7 -2t-7 4l-13 19q-4 5 -4 8q0 5 4 7l149 115q8 5 10 5q5 0 10 -8z" />
    <glyph glyph-name="Rcommaaccent" unicode="&#x156;" horiz-adv-x="556" 
d="M555 53v-41q0 -12 -12 -12h-98q-12 0 -18 11l-158 301h-72v-247h64q12 0 12 -12v-41q0 -12 -12 -12h-209q-12 0 -12 12v41q0 12 12 12h63v555h-63q-12 0 -12 12v41q0 12 12 12h243q55 0 94 -15t59 -42t28.5 -56t8.5 -63q0 -81 -47 -135q-35 -41 -85 -55l141 -254h49
q12 0 12 -12zM197 377h65q78 0 110 32q31 31 31 85q0 66 -30 94q-30 27 -102 27h-74v-238zM300 -57h69q6 0 6 -5q0 -2 -2 -6q-1 -2 -1 -3l-90 -170q-4 -7 -8 -7q-1 0 -7 2l-21 7q-5 2 -5 5q0 5 1 8l46 160q3 9 12 9z" />
    <glyph glyph-name="rcommaaccent" unicode="&#x157;" horiz-adv-x="353" 
d="M263 50v-38q0 -12 -12 -12h-195q-12 0 -12 12v38q0 12 12 12h56v293q0 21 -11 63h-54q-12 0 -12 12v38q0 12 12 12h90q11 0 22 -18t17 -47l1 -5l14 16q29 34 49 48q30 20 61 20q17 0 36 -8q10 -5 7 -14l-24 -55q-2 -6 -6 -6l-2 1q-1 0 -3 1q-16 7 -24 7q-32 0 -81 -59
l-16 -19v-280h63q12 0 12 -12zM149 -57h69q6 0 6 -5l-3 -9l-90 -170q-3 -7 -8 -7q-1 0 -7 2l-21 7q-5 2 -5 5q0 5 1 8l46 160q3 9 12 9z" />
    <glyph glyph-name="Rcaron" unicode="&#x158;" horiz-adv-x="556" 
d="M555 53v-41q0 -12 -12 -12h-98q-12 0 -18 11l-158 301h-72v-247h64q12 0 12 -12v-41q0 -12 -12 -12h-209q-12 0 -12 12v41q0 12 12 12h63v555h-63q-12 0 -12 12v41q0 12 12 12h243q55 0 94 -15t59 -42t28.5 -56t8.5 -63q0 -81 -47 -135q-35 -41 -85 -55l141 -254h49
q12 0 12 -12zM197 377h65q78 0 110 32q31 31 31 85q0 66 -30 94q-30 27 -102 27h-74v-238zM253 812l98 52q7 4 10 4q2 0 6 -4l16 -20q0 -1 1.5 -2t2 -2.5t0.5 -3.5q0 -6 -8 -10l-111 -77q-9 -6 -15 -6t-15 6l-111 77q-8 4 -8 10l4 8l16 20q4 4 6 4q3 0 10 -4z" />
    <glyph glyph-name="rcaron" unicode="&#x159;" horiz-adv-x="353" 
d="M263 50v-38q0 -12 -12 -12h-195q-12 0 -12 12v38q0 12 12 12h56v293q0 21 -11 63h-54q-12 0 -12 12v38q0 12 12 12h90q11 0 22 -18t17 -47l1 -5l14 16q29 34 49 48q30 20 61 20q17 0 36 -8q10 -5 7 -14l-24 -55q-2 -6 -6 -6l-2 1q-1 0 -3 1q-16 7 -24 7q-32 0 -81 -59
l-16 -19v-280h63q12 0 12 -12zM309 654l-110 -88q-7 -5 -9 -5t-9 5l-110 88q-8 6 -8 10q0 1 3 7l15 20q4 6 9 6q3 0 9 -4l91 -60l91 60q6 4 9 4q5 0 9 -6l15 -20q3 -6 3 -7q0 -4 -8 -10z" />
    <glyph glyph-name="Sacute" unicode="&#x15a;" horiz-adv-x="480" 
d="M353 525v81l-7 3q-22 10 -31.5 13.5t-25 6.5t-35.5 3q-49 0 -77.5 -28.5t-28.5 -74.5q0 -60 60 -100q19 -12 54.5 -31t41.5 -22q136 -77 136 -194q0 -80 -55 -138t-157 -58q-46 0 -98.5 14.5t-77.5 29.5q-10 6 -10 23v116q0 12 12 12h44q12 0 12 -12v-82l5 -2l21 -9
l29 -11.5t29 -7.5t37 -4q60 0 89.5 35.5t29.5 83.5q0 27 -7.5 47.5t-25 37t-32 26.5t-41.5 25q-87 50 -106 64q-80 59 -80 148q0 84 64 135q57 44 135 44q84 0 144 -34q13 -7 16.5 -12t3.5 -18v-110q0 -12 -12 -12h-44q-12 0 -12 12zM185 776l164 102q6 3 8 3q4 0 7 -4
l29 -50q3 -5 3 -9q0 -6 -11 -10l-172 -69q-1 0 -5 -1.5t-6 -1.5q-4 0 -7 4l-13 24q-2 3 -2 6q0 4 5 6z" />
    <glyph glyph-name="sacute" unicode="&#x15b;" horiz-adv-x="389" 
d="M271 361v55l-6 2q-38 11 -62 11q-36 0 -53.5 -19t-17.5 -47q0 -25 10 -38q13 -21 87 -56q81 -36 104 -70q21 -31 21 -71q0 -62 -44 -102t-116 -40q-63 0 -124 27q-28 12 -28 23v92q0 12 12 12h41q12 0 12 -12v-58l8 -3l6 -2q6 -2 14 -4l18 -4.5t22 -4t22 -1.5
q42 0 61.5 21t19.5 51q0 32 -28 54q-15 11 -43 25l-57 27q-48 24 -71 53t-23 73q0 59 42 100q41 39 107 39q60 0 120 -30q11 -6 11 -16v-87q0 -12 -12 -12h-41q-12 0 -12 12zM314 700l29 -43q4 -8 4 -9q0 -4 -9 -10l-166 -86q-4 -2 -7 -2t-7 4l-13 19q-4 5 -4 8q0 5 4 7
l149 115q8 5 10 5q5 0 10 -8z" />
    <glyph glyph-name="Scircumflex" unicode="&#x15c;" horiz-adv-x="480" 
d="M353 525v81l-7 3q-22 10 -31.5 13.5t-25 6.5t-35.5 3q-49 0 -77.5 -28.5t-28.5 -74.5q0 -60 60 -100q19 -12 54.5 -31t41.5 -22q136 -77 136 -194q0 -80 -55 -138t-157 -58q-46 0 -98.5 14.5t-77.5 29.5q-10 6 -10 23v116q0 12 12 12h44q12 0 12 -12v-82l5 -2l21 -9
l29 -11.5t29 -7.5t37 -4q60 0 89.5 35.5t29.5 83.5q0 27 -7.5 47.5t-25 37t-32 26.5t-41.5 25q-87 50 -106 64q-80 59 -80 148q0 84 64 135q57 44 135 44q84 0 144 -34q13 -7 16.5 -12t3.5 -18v-110q0 -12 -12 -12h-44q-12 0 -12 12zM262 799l-98 -52q-7 -4 -10 -4
q-2 0 -6 4l-16 20q0 1 -1.5 2t-2 2.5t-0.5 3.5q0 6 8 10l111 77q9 6 15 6t15 -6l111 -77q8 -4 8 -10l-4 -8l-16 -20q-4 -4 -6 -4q-3 0 -10 4z" />
    <glyph glyph-name="scircumflex" unicode="&#x15d;" horiz-adv-x="389" 
d="M271 361v55l-6 2q-38 11 -62 11q-36 0 -53.5 -19t-17.5 -47q0 -25 10 -38q13 -21 87 -56q81 -36 104 -70q21 -31 21 -71q0 -62 -44 -102t-116 -40q-63 0 -124 27q-28 12 -28 23v92q0 12 12 12h41q12 0 12 -12v-58l8 -3l6 -2q6 -2 14 -4l18 -4.5t22 -4t22 -1.5
q42 0 61.5 21t19.5 51q0 32 -28 54q-15 11 -43 25l-57 27q-48 24 -71 53t-23 73q0 59 42 100q41 39 107 39q60 0 120 -30q11 -6 11 -16v-87q0 -12 -12 -12h-41q-12 0 -12 12zM211 625l-91 -60q-6 -4 -9 -4q-5 0 -9 6l-15 20q-3 6 -3 7q0 4 8 10l110 88q8 5 9 5t9 -5l110 -88
q8 -6 8 -10q0 -1 -3 -7l-15 -20q-4 -6 -9 -6q-3 0 -9 4z" />
    <glyph glyph-name="Scedilla" unicode="&#x15e;" horiz-adv-x="480" 
d="M353 525v81l-7 3q-36 18 -92 18q-49 0 -77.5 -27t-28.5 -71q0 -59 60 -100q18 -12 51.5 -29.5l44.5 -23.5q70 -40 103 -86t33 -108q0 -82 -56 -138q-54 -54 -131 -57l-4 -43q77 -4 77 -67q0 -37 -29.5 -58t-76.5 -21q-26 0 -44 6q-14 4 -16.5 8t0.5 12l5 31q0 7 6 7
q2 0 4 -0.5t5 -1.5l6 -2q19 -6 39 -6q39 0 39 25q0 20 -38 22l-19 1h-7q-13 1 -14.5 12t1.5 21l6 55q-95 12 -141 42q-10 6 -10 23v116q0 12 12 12h44q12 0 12 -12v-82l5 -2q66 -27 116 -27q60 0 89.5 34t29.5 80q0 35 -17 62t-35.5 40.5t-53.5 33.5q-87 50 -106 64
q-80 59 -80 148q0 84 64 135q57 44 135 44q84 0 144 -34q13 -7 16.5 -12t3.5 -18v-110q0 -12 -12 -12h-44q-12 0 -12 12z" />
    <glyph glyph-name="Scedilla" unicode="&#xf6c1;" horiz-adv-x="480" 
d="M353 525v81l-7 3q-36 18 -92 18q-49 0 -77.5 -27t-28.5 -71q0 -59 60 -100q18 -12 51.5 -29.5l44.5 -23.5q70 -40 103 -86t33 -108q0 -82 -56 -138q-54 -54 -131 -57l-4 -43q77 -4 77 -67q0 -37 -29.5 -58t-76.5 -21q-26 0 -44 6q-14 4 -16.5 8t0.5 12l5 31q0 7 6 7
q2 0 4 -0.5t5 -1.5l6 -2q19 -6 39 -6q39 0 39 25q0 20 -38 22l-19 1h-7q-13 1 -14.5 12t1.5 21l6 55q-95 12 -141 42q-10 6 -10 23v116q0 12 12 12h44q12 0 12 -12v-82l5 -2q66 -27 116 -27q60 0 89.5 34t29.5 80q0 35 -17 62t-35.5 40.5t-53.5 33.5q-87 50 -106 64
q-80 59 -80 148q0 84 64 135q57 44 135 44q84 0 144 -34q13 -7 16.5 -12t3.5 -18v-110q0 -12 -12 -12h-44q-12 0 -12 12z" />
    <glyph glyph-name="scedilla" unicode="&#x15f;" horiz-adv-x="389" 
d="M271 361v55l-6 2q-38 11 -62 11q-36 0 -53.5 -19t-17.5 -47q0 -25 10 -38q13 -21 87 -56q81 -36 104 -70q21 -31 21 -71q0 -68 -48 -106q-40 -31 -93 -35l-4 -41q27 -2 43 -9q34 -14 34 -56q0 -36 -28 -57.5t-75 -21.5q-23 0 -46 7q-15 6 -14 12l5 38q0 5 5 5l8 -2
q3 -1 4 -1q18 -5 40 -5q40 0 40 23q0 14 -22 20q-6 1 -16.5 1.5t-23.5 2.5q-15 2 -15 13q0 6 1 18l6 55q-47 6 -85 24q-28 12 -28 23v92q0 12 12 12h41q12 0 12 -12v-58l8 -3l6 -2q6 -2 14 -4l18 -4.5t22 -4t22 -1.5q42 0 61.5 21t19.5 51q0 32 -28 54q-15 11 -43 25l-57 27
q-48 24 -71 53t-23 73q0 59 42 100q41 39 107 39q60 0 120 -30q11 -6 11 -16v-87q0 -12 -12 -12h-41q-12 0 -12 12z" />
    <glyph glyph-name="scedilla" unicode="&#xf6c2;" horiz-adv-x="389" 
d="M271 361v55l-6 2q-38 11 -62 11q-36 0 -53.5 -19t-17.5 -47q0 -25 10 -38q13 -21 87 -56q81 -36 104 -70q21 -31 21 -71q0 -68 -48 -106q-40 -31 -93 -35l-4 -41q27 -2 43 -9q34 -14 34 -56q0 -36 -28 -57.5t-75 -21.5q-23 0 -46 7q-15 6 -14 12l5 38q0 5 5 5l8 -2
q3 -1 4 -1q18 -5 40 -5q40 0 40 23q0 14 -22 20q-6 1 -16.5 1.5t-23.5 2.5q-15 2 -15 13q0 6 1 18l6 55q-47 6 -85 24q-28 12 -28 23v92q0 12 12 12h41q12 0 12 -12v-58l8 -3l6 -2q6 -2 14 -4l18 -4.5t22 -4t22 -1.5q42 0 61.5 21t19.5 51q0 32 -28 54q-15 11 -43 25l-57 27
q-48 24 -71 53t-23 73q0 59 42 100q41 39 107 39q60 0 120 -30q11 -6 11 -16v-87q0 -12 -12 -12h-41q-12 0 -12 12z" />
    <glyph glyph-name="Scaron" unicode="&#x160;" horiz-adv-x="480" 
d="M353 525v81l-7 3q-22 10 -31.5 13.5t-25 6.5t-35.5 3q-49 0 -77.5 -28.5t-28.5 -74.5q0 -60 60 -100q19 -12 54.5 -31t41.5 -22q136 -77 136 -194q0 -80 -55 -138t-157 -58q-46 0 -98.5 14.5t-77.5 29.5q-10 6 -10 23v116q0 12 12 12h44q12 0 12 -12v-82l5 -2l21 -9
l29 -11.5t29 -7.5t37 -4q60 0 89.5 35.5t29.5 83.5q0 27 -7.5 47.5t-25 37t-32 26.5t-41.5 25q-87 50 -106 64q-80 59 -80 148q0 84 64 135q57 44 135 44q84 0 144 -34q13 -7 16.5 -12t3.5 -18v-110q0 -12 -12 -12h-44q-12 0 -12 12zM251 812l98 52q7 4 10 4q2 0 6 -4
l16 -20q0 -1 1.5 -2t2 -2.5t0.5 -3.5q0 -6 -8 -10l-111 -77q-9 -6 -15 -6t-15 6l-111 77q-8 4 -8 10l4 8l16 20q4 4 6 4q3 0 10 -4z" />
    <glyph glyph-name="scaron" unicode="&#x161;" horiz-adv-x="389" 
d="M271 361v55l-6 2q-38 11 -62 11q-36 0 -53.5 -19t-17.5 -47q0 -25 10 -38q13 -21 87 -56q81 -36 104 -70q21 -31 21 -71q0 -62 -44 -102t-116 -40q-63 0 -124 27q-28 12 -28 23v92q0 12 12 12h41q12 0 12 -12v-58l8 -3l6 -2q6 -2 14 -4l18 -4.5t22 -4t22 -1.5
q42 0 61.5 21t19.5 51q0 32 -28 54q-15 11 -43 25l-57 27q-48 24 -71 53t-23 73q0 59 42 100q41 39 107 39q60 0 120 -30q11 -6 11 -16v-87q0 -12 -12 -12h-41q-12 0 -12 12zM333 652l-110 -88q-7 -5 -9 -5t-9 5l-110 88q-8 6 -8 10q0 1 3 7l15 20q4 6 9 6q3 0 9 -4l91 -60
l91 60q6 4 9 4q5 0 9 -6l15 -20q3 -6 3 -7q0 -4 -8 -10z" />
    <glyph glyph-name="Tcedilla" unicode="&#x162;" horiz-adv-x="480" 
d="M364 53v-41q0 -12 -12 -12h-81l-5 -56q77 -4 77 -67q0 -37 -29.5 -58t-76.5 -21q-26 0 -44 6q-14 4 -16.5 8t0.5 12l5 31q0 7 6 7q2 0 4 -0.5t5 -1.5l6 -2q19 -6 39 -6q39 0 39 25q0 20 -38 22l-19 1h-7q-13 1 -14.5 12t1.5 21l7 67h-83q-12 0 -12 12v41q0 12 12 12h71
v550h-106v-113q0 -12 -12 -12h-44q-12 0 -12 12v171q0 12 12 12h406q12 0 12 -12v-171q0 -12 -11 -12h-46h-4.5t-3 1t-2.5 4t-1 7v113h-106v-550h71q12 0 12 -12z" />
    <glyph glyph-name="tcedilla" unicode="&#x163;" horiz-adv-x="370" 
d="M340 74l12 -39q4 -15 -21 -25q-54 -21 -91 -23l-4 -41q27 -2 43 -9q34 -14 34 -56q0 -36 -28 -57.5t-75 -21.5q-23 0 -46 7q-15 6 -14 12l5 38q0 5 5 5l8 -2q3 -1 4 -1q18 -5 40 -5q40 0 40 23q0 14 -22 20q-6 1 -16.5 1.5t-23.5 2.5q-15 2 -15 13q0 6 1 18l6 57
q-32 8 -52 30q-29 32 -29 113v284h-70q-12 0 -12 12v38q0 12 12 12h70v137q0 9 11 12l53 15q9 3 10.5 0t1.5 -10v-154h148q15 0 10 -14l-13 -39q-3 -9 -13 -9h-132v-292q0 -32 10 -50q14 -23 50 -23q32 0 79 21q15 6 17 6q4 0 7 -6z" />
    <glyph glyph-name="Tcaron" unicode="&#x164;" horiz-adv-x="480" 
d="M364 53v-41q0 -12 -12 -12h-224q-12 0 -12 12v41q0 12 12 12h71v550h-106v-113q0 -12 -12 -12h-44q-12 0 -12 12v171q0 12 12 12h406q12 0 12 -12v-171q0 -12 -11 -12h-46h-4.5t-3 1t-2.5 4t-1 7v113h-106v-550h71q12 0 12 -12zM237 812l98 52q7 4 10 4q2 0 6 -4l16 -20
q0 -1 1.5 -2t2 -2.5t0.5 -3.5q0 -6 -8 -10l-111 -77q-9 -6 -15 -6t-15 6l-111 77q-8 4 -8 10l4 8l16 20q4 4 6 4q3 0 10 -4z" />
    <glyph glyph-name="tcaron" unicode="&#x165;" horiz-adv-x="387" 
d="M340 74l12 -39q4 -15 -21 -25q-59 -24 -109 -24q-60 0 -92 35q-29 32 -29 113v284h-70q-12 0 -12 12v38q0 12 12 12h70v137q0 9 11 12l53 15q9 3 10.5 0t1.5 -10v-154h148q15 0 10 -14l-13 -39q-3 -9 -13 -9h-132v-292q0 -32 10 -50q14 -23 50 -23q32 0 79 21q15 6 17 6
q4 0 7 -6zM300 717h69q6 0 6 -5l-3 -9l-90 -170q-4 -7 -8 -7q-1 0 -7 2l-21 7q-5 2 -5 5q0 5 1 8l46 160q3 9 12 9z" />
    <glyph glyph-name="Umacron" unicode="&#x16a;" horiz-adv-x="629" 
d="M528 620v-436q0 -90 -48 -139q-58 -59 -170 -59q-116 0 -167 59q-42 48 -42 139v436h-64q-12 0 -12 12v41q0 12 12 12h210q12 0 12 -12v-41q0 -12 -12 -12h-64v-434q0 -65 25 -97q29 -36 101 -36q70 0 106 37q31 32 31 96v434h-64q-12 0 -12 12v41q0 12 12 12h210
q12 0 12 -12v-41q0 -12 -12 -12h-64zM188 783v37q0 13 13 13h226h4t4 -1t4 -4t1 -8v-37q0 -6 -2.5 -9.5t-4.5 -3.5h-6h-226h-4t-4 1t-4 4t-1 8z" />
    <glyph glyph-name="umacron" unicode="&#x16b;" horiz-adv-x="537" 
d="M517 50v-38q0 -12 -12 -12h-84q-13 0 -20 6.5t-17 27.5l-5 11q-67 -59 -147 -59q-71 0 -106 37q-32 34 -32 113v282h-56q-12 0 -12 12v38q0 12 12 12h120q12 0 12 -12v-334q0 -43 22 -62t55 -19q51 0 108 43l11 8v314h-57q-12 0 -12 12v38q0 12 12 12h121q12 0 12 -12
v-343q0 -36 4 -54l2 -9h57q12 0 12 -12zM138 610v38q0 12 12 12h221q12 0 12 -12v-38q0 -12 -12 -12h-221q-12 0 -12 12z" />
    <glyph glyph-name="Ubreve" unicode="&#x16c;" horiz-adv-x="629" 
d="M528 620v-436q0 -90 -48 -139q-58 -59 -170 -59q-116 0 -167 59q-42 48 -42 139v436h-64q-12 0 -12 12v41q0 12 12 12h210q12 0 12 -12v-41q0 -12 -12 -12h-64v-434q0 -65 25 -97q29 -36 101 -36q70 0 106 37q31 32 31 96v434h-64q-12 0 -12 12v41q0 12 12 12h210
q12 0 12 -12v-41q0 -12 -12 -12h-64zM396 866l40 -7q7 -2 9 -6q1 -5 0 -9q-9 -55 -52 -82q-32 -21 -79 -21t-79 21q-43 27 -52 82q-1 4 0 9q2 4 9 6l40 7q1 0 3 0.5t3 0.5q9 0 11 -13q12 -60 65 -60t65 60q3 14 17 12z" />
    <glyph glyph-name="ubreve" unicode="&#x16d;" horiz-adv-x="537" 
d="M517 50v-38q0 -12 -12 -12h-84q-13 0 -20 6.5t-17 27.5l-5 11q-67 -59 -147 -59q-71 0 -106 37q-32 34 -32 113v282h-56q-12 0 -12 12v38q0 12 12 12h120q12 0 12 -12v-334q0 -43 22 -62t55 -19q51 0 108 43l11 8v314h-57q-12 0 -12 12v38q0 12 12 12h121q12 0 12 -12
v-343q0 -36 4 -54l2 -9h57q12 0 12 -12zM345 682l41 -7q11 -2 11 -15q0 -1 -0.5 -3t-0.5 -3q-9 -43 -36 -70q-34 -34 -92 -34t-92 34q-27 27 -36 70q0 1 -0.5 3t-0.5 3q0 13 11 15l41 7q10 2 11 -5l3 -12q15 -62 63 -62t63 62l3 12q2 5 6 5h5z" />
    <glyph glyph-name="Uring" unicode="&#x16e;" horiz-adv-x="629" 
d="M528 620v-436q0 -90 -48 -139q-58 -59 -170 -59q-116 0 -167 59q-42 48 -42 139v436h-64q-12 0 -12 12v41q0 12 12 12h210q12 0 12 -12v-41q0 -12 -12 -12h-64v-434q0 -65 25 -97q29 -36 101 -36q70 0 106 37q31 32 31 96v434h-64q-12 0 -12 12v41q0 12 12 12h210
q12 0 12 -12v-41q0 -12 -12 -12h-64zM221 822q0 38 26.5 64t63.5 26t63.5 -26t26.5 -64t-26.5 -64t-63.5 -26t-63.5 26t-26.5 64zM267 822q0 -18 13 -31t31 -13t31 13t13 31t-13 31t-31 13t-31 -13t-13 -31z" />
    <glyph glyph-name="uring" unicode="&#x16f;" horiz-adv-x="537" 
d="M517 50v-38q0 -12 -12 -12h-84q-13 0 -20 6.5t-17 27.5l-5 11q-67 -59 -147 -59q-71 0 -106 37q-32 34 -32 113v282h-56q-12 0 -12 12v38q0 12 12 12h120q12 0 12 -12v-334q0 -43 22 -62t55 -19q51 0 108 43l11 8v314h-57q-12 0 -12 12v38q0 12 12 12h121q12 0 12 -12
v-343q0 -36 4 -54l2 -9h57q12 0 12 -12zM178 629q0 37 26 63.5t64 26.5t64 -26.5t26 -63.5t-26 -63.5t-64 -26.5t-64 26.5t-26 63.5zM226 629q0 -17 13 -29.5t29 -12.5t29 12.5t13 29.5t-13 29.5t-29 12.5t-29 -12.5t-13 -29.5z" />
    <glyph glyph-name="Uhungarumlaut" unicode="&#x170;" horiz-adv-x="629" 
d="M528 620v-436q0 -90 -48 -139q-58 -59 -170 -59q-116 0 -167 59q-42 48 -42 139v436h-64q-12 0 -12 12v41q0 12 12 12h210q12 0 12 -12v-41q0 -12 -12 -12h-64v-434q0 -65 25 -97q29 -36 101 -36q70 0 106 37q31 32 31 96v434h-64q-12 0 -12 12v41q0 12 12 12h210
q12 0 12 -12v-41q0 -12 -12 -12h-64zM373 896l33 -34q6 -6 6 -10q0 -5 -4 -7l-142 -103q-5 -4 -9 -4t-7 3l-17 17q-3 3 -3 6q0 4 4 8l121 122q7 7 10 7t8 -5zM520 896l33 -34q6 -6 6 -10q0 -5 -4 -7l-142 -103q-5 -4 -9 -4t-7 3l-17 17q-3 3 -3 6q0 4 4 8l121 122q7 7 10 7
t8 -5z" />
    <glyph glyph-name="uhungarumlaut" unicode="&#x171;" horiz-adv-x="537" 
d="M517 50v-38q0 -12 -12 -12h-84q-13 0 -20 6.5t-17 27.5l-5 11q-67 -59 -147 -59q-71 0 -106 37q-32 34 -32 113v282h-56q-12 0 -12 12v38q0 12 12 12h120q12 0 12 -12v-334q0 -43 22 -62t55 -19q51 0 108 43l11 8v314h-57q-12 0 -12 12v38q0 12 12 12h121q12 0 12 -12
v-343q0 -36 4 -54l2 -9h57q12 0 12 -12zM326 664l-127 -113q-7 -5 -10 -5q-4 0 -9 5l-11 10q-7 7 -7 10q0 1 5 9l105 131q8 8 10 8l9 -6l34 -31q7 -7 7 -10q0 -2 -6 -8zM462 664l-127 -113q-7 -5 -10 -5q-4 0 -9 5l-11 10q-7 7 -7 10q0 1 5 9l105 131q8 8 10 8l9 -6l34 -31
q7 -7 7 -10q0 -2 -6 -8z" />
    <glyph glyph-name="Uogonek" unicode="&#x172;" horiz-adv-x="629" 
d="M528 620v-436q0 -88 -46 -137q-25 -27 -68 -46l-14 -18q-40 -50 -40 -82t32 -32q23 0 49 14l15 9q3 0 6 -6l10 -32q3 -11 -11 -19q-43 -19 -71 -19q-46 0 -68.5 23.5t-22.5 57.5q0 39 38 90q-10 -1 -30 -1q-88 0 -137 35q-69 49 -69 163v436h-64q-12 0 -12 12v41
q0 12 12 12h210q12 0 12 -12v-41q0 -12 -12 -12h-64v-434q0 -75 34 -106q29 -27 92 -27q69 0 104 35q33 33 33 98v434h-64q-12 0 -12 12v41q0 12 12 12h210q12 0 12 -12v-41q0 -12 -12 -12h-64z" />
    <glyph glyph-name="uogonek" unicode="&#x173;" horiz-adv-x="537" 
d="M442 468v-306q0 -68 12 -100h47q12 0 12 -12v-38q0 -6 -7 -13l-13 -15q-40 -44 -40 -77q0 -34 36 -34q23 0 49 17l10 5q4 0 5 -6l10 -28q4 -11 -8 -19q-32 -20 -72 -20q-45 0 -67 23t-22 58q0 43 40 91l5 6h-18q-13 0 -20 6.5t-17 27.5l-5 11q-67 -59 -147 -59
q-71 0 -106 37q-32 34 -32 113v282h-56q-12 0 -12 12v38q0 12 12 12h120q12 0 12 -12v-334q0 -43 22 -62t55 -19q51 0 108 43l11 8v314h-57q-12 0 -12 12v38q0 12 12 12h121q12 0 12 -12z" />
    <glyph glyph-name="Ydieresis" unicode="&#x178;" horiz-adv-x="541" 
d="M394 53v-41q0 -12 -12 -12h-222q-12 0 -12 12v41q0 12 12 12h70v224l-176 331h-37q-12 0 -12 12v41q0 12 12 12h192q12 0 12 -12v-41q0 -12 -12 -12h-59l99 -202q3 -7 11 -21l11 -23l2 -4l2 -4l23 52l95 202h-61q-12 0 -12 12v41q0 12 12 12h192q12 0 12 -12v-41
q0 -12 -12 -12h-42l-170 -329v-226h70q12 0 12 -12zM111 804q0 22 16.5 39t39.5 17t39.5 -17t16.5 -39t-16.5 -39t-39.5 -17t-39.5 17t-16.5 39zM313 804q0 22 16.5 39t39.5 17t39.5 -17t16.5 -39t-16.5 -39t-39.5 -17t-39.5 17t-16.5 39z" />
    <glyph glyph-name="Zacute" unicode="&#x179;" horiz-adv-x="481" 
d="M376 70l29 82q4 11 20 5l42 -15q8 -3 8 -9q0 -4 -3 -11l-40 -110q-4 -12 -16 -12h-362q-12 0 -12 12v54l294 549h-201v-75q0 -12 -12 -12h-44q-12 0 -12 12v133q0 12 12 12h341q12 0 12 -12v-50l-296 -553h240zM191 776l164 102q6 3 8 3q4 0 7 -4l29 -50q3 -5 3 -9
q0 -6 -11 -10l-172 -69q-1 0 -5 -1.5t-6 -1.5q-4 0 -7 4l-13 24q-2 3 -2 6q0 4 5 6z" />
    <glyph glyph-name="zacute" unicode="&#x17a;" horiz-adv-x="446" 
d="M331 65l31 77q4 11 18 6l40 -16q10 -4 5 -18l-42 -105q-4 -9 -13 -9h-311q-12 0 -12 12v40l251 363h-165v-68q0 -12 -12 -12h-42q-12 0 -12 12v121q0 12 12 12h302q6 0 8.5 -1.5t3 -3t0.5 -5.5v-2v-41l-249 -362h187zM338 700l29 -43q4 -8 4 -9q0 -4 -9 -10l-166 -86
q-4 -2 -7 -2t-7 4l-13 19q-4 5 -4 8q0 5 4 7l149 115q8 5 10 5q5 0 10 -8z" />
    <glyph glyph-name="Zdotaccent" unicode="&#x17b;" horiz-adv-x="481" 
d="M376 70l29 82q4 11 20 5l42 -15q8 -3 8 -9q0 -4 -3 -11l-40 -110q-4 -12 -16 -12h-362q-12 0 -12 12v54l294 549h-201v-75q0 -12 -12 -12h-44q-12 0 -12 12v133q0 12 12 12h341q12 0 12 -12v-50l-296 -553h240zM183 805q0 25 19.5 44.5t44.5 19.5t44.5 -19.5t19.5 -44.5
t-19.5 -44.5t-44.5 -19.5t-44.5 19.5t-19.5 44.5z" />
    <glyph glyph-name="zdotaccent" unicode="&#x17c;" horiz-adv-x="446" 
d="M331 65l31 77q4 11 18 6l40 -16q10 -4 5 -18l-42 -105q-4 -9 -13 -9h-311q-12 0 -12 12v40l251 363h-165v-68q0 -12 -12 -12h-42q-12 0 -12 12v121q0 12 12 12h302q6 0 8.5 -1.5t3 -3t0.5 -5.5v-2v-41l-249 -362h187zM296 627q0 -24 -17.5 -41.5t-41.5 -17.5t-41.5 17.5
t-17.5 41.5t17.5 41.5t41.5 17.5t41.5 -17.5t17.5 -41.5z" />
    <glyph glyph-name="Zcaron" unicode="&#x17d;" horiz-adv-x="481" 
d="M376 70l29 82q4 11 20 5l42 -15q8 -3 8 -9q0 -4 -3 -11l-40 -110q-4 -12 -16 -12h-362q-12 0 -12 12v54l294 549h-201v-75q0 -12 -12 -12h-44q-12 0 -12 12v133q0 12 12 12h341q12 0 12 -12v-50l-296 -553h240zM250 812l98 52q7 4 10 4q2 0 6 -4l16 -20q0 -1 1.5 -2
t2 -2.5t0.5 -3.5q0 -6 -8 -10l-111 -77q-9 -6 -15 -6t-15 6l-111 77q-8 4 -8 10l4 8l16 20q4 4 6 4q3 0 10 -4z" />
    <glyph glyph-name="zcaron" unicode="&#x17e;" horiz-adv-x="446" 
d="M331 65l31 77q4 11 18 6l40 -16q10 -4 5 -18l-42 -105q-4 -9 -13 -9h-311q-12 0 -12 12v40l251 363h-165v-68q0 -12 -12 -12h-42q-12 0 -12 12v121q0 12 12 12h302q6 0 8.5 -1.5t3 -3t0.5 -5.5v-2v-41l-249 -362h187zM342 654l-110 -88q-7 -5 -9 -5q-1 0 -9 5l-110 88
q-8 6 -8 10q0 1 3 7l15 20q4 6 9 6q3 0 9 -4l91 -60l91 60q6 4 9 4q5 0 9 -6l15 -20q3 -6 3 -7q0 -4 -8 -10z" />
    <glyph glyph-name="Schwa" unicode="&#x18f;" horiz-adv-x="535" 
d="M65 393h328q2 75 -16 136q-30 103 -117 103q-53 0 -105 -46q-15 -13 -18 -13q-2 0 -7 5l-27 35q-3 3 -3 7q0 11 13 21q61 58 153 58q98 0 157.5 -81.5t59.5 -266.5q0 -147 -35 -230q-58 -135 -194 -135q-127 0 -175 144q-31 95 -27 225l1 26q0 12 12 12zM392 323h-255
q-2 -123 25 -191q32 -79 100 -79q73 0 106 89q26 70 24 181z" />
    <glyph glyph-name="florin" unicode="&#x192;" 
d="M282 422l-99 -448q-8 -37 -18 -63.5t-30 -54.5t-55 -43t-84 -15q-34 0 -56.5 6t-17.5 20l14 41q2 5 7 6q11 -1 21 -4q17 -4 41 -4q61 0 87 56q7 15 18 59l99 444h-69q-8 0 -8 6q0 2 3 16l5 24q2 12 13 12h70l20 96q15 70 48 109t112 39q56 0 94 -19q7 -3 10 -5.5t4 -4
t0 -2.5l-1 -3l-18 -43q-3 -8 -19 -1q-45 20 -74 20q-23 0 -39 -8t-25 -25t-13 -29.5t-9 -36.5l-18 -87h141q8 0 8 -6q0 -2 -1 -6q-2 -2 -2 -4l-11 -30q-4 -12 -13 -12h-135z" />
    <glyph glyph-name="Icaron" unicode="&#x1cf;" horiz-adv-x="333" 
d="M208 65h91q12 0 12 -12v-41q0 -12 -12 -12h-264q-12 0 -12 12v41q0 12 12 12h91v555h-91q-12 0 -12 12v41q0 12 12 12h264q12 0 12 -12v-41q0 -12 -12 -12h-91v-555zM163 812l98 52q7 4 10 4q2 0 6 -4l16 -20q0 -1 1.5 -2t2 -2.5t0.5 -3.5q0 -6 -8 -10l-111 -77
q-9 -6 -15 -6t-15 6l-111 77q-8 4 -8 10l4 8l16 20q4 4 6 4q3 0 10 -4z" />
    <glyph glyph-name="icaron" unicode="&#x1d0;" horiz-adv-x="278" 
d="M265 50v-38q0 -12 -12 -12h-219q-12 0 -12 12v38q0 12 12 12h72v356h-79q-12 0 -12 12v38q0 12 12 12h143q12 0 12 -12v-406h71q12 0 12 -12zM253 654l-110 -88q-7 -5 -9 -5t-9 5l-110 88q-8 6 -8 10q0 1 3 7l15 20q4 6 9 6q3 0 9 -4l91 -60l91 60q6 4 9 4q5 0 9 -6
l15 -20q3 -6 3 -7q0 -4 -8 -10z" />
    <glyph glyph-name="eturn" unicode="&#x1dd;" horiz-adv-x="467" 
d="M73 392l-18 45q-1 2 -1 6q0 7 37 25q54 26 113 26q99 0 156 -63q62 -69 62 -191q0 -118 -56.5 -186t-143.5 -68q-180 0 -180 248v5q0 17 11 17h287v5q0 71 -35 116q-39 50 -103 50q-47 0 -110 -35q-8 -4 -12 -5h-2q-4 0 -5 5zM340 194h-216q0 -47 16 -85q25 -61 89 -61
q45 0 77.5 36t33.5 110z" />
    <glyph glyph-name="Scommaaccent" unicode="&#x218;" horiz-adv-x="480" 
d="M353 525v81l-7 3q-22 10 -31.5 13.5t-25 6.5t-35.5 3q-49 0 -77.5 -28.5t-28.5 -74.5q0 -60 60 -100q19 -12 54.5 -31t41.5 -22q136 -77 136 -194q0 -80 -55 -138t-157 -58q-46 0 -98.5 14.5t-77.5 29.5q-10 6 -10 23v116q0 12 12 12h44q12 0 12 -12v-82l5 -2l21 -9
l29 -11.5t29 -7.5t37 -4q60 0 89.5 35.5t29.5 83.5q0 27 -7.5 47.5t-25 37t-32 26.5t-41.5 25q-87 50 -106 64q-80 59 -80 148q0 84 64 135q57 44 135 44q84 0 144 -34q13 -7 16.5 -12t3.5 -18v-110q0 -12 -12 -12h-44q-12 0 -12 12zM231 -57h69q6 0 6 -5q0 -2 -2 -6
q-1 -2 -1 -3l-90 -170q-3 -7 -8 -7q-1 0 -7 2l-21 7q-5 2 -5 5q0 5 1 8l46 160q3 9 12 9z" />
    <glyph glyph-name="scommaaccent" unicode="&#x219;" horiz-adv-x="389" 
d="M271 361v55l-6 2q-38 11 -62 11q-36 0 -53.5 -19t-17.5 -47q0 -25 10 -38q13 -21 87 -56q81 -36 104 -70q21 -31 21 -71q0 -62 -44 -102t-116 -40q-63 0 -124 27q-28 12 -28 23v92q0 12 12 12h41q12 0 12 -12v-58l8 -3l6 -2q6 -2 14 -4l18 -4.5t22 -4t22 -1.5
q42 0 61.5 21t19.5 51q0 32 -28 54q-15 11 -43 25l-57 27q-48 24 -71 53t-23 73q0 59 42 100q41 39 107 39q60 0 120 -30q11 -6 11 -16v-87q0 -12 -12 -12h-41q-12 0 -12 12zM174 -57h69q6 0 6 -5q0 -2 -2 -6q-1 -2 -1 -3l-90 -170q-4 -7 -8 -7q-1 0 -7 2l-21 7q-5 2 -5 5
q0 5 1 8l46 160q3 9 12 9z" />
    <glyph glyph-name="Tcommaaccent" unicode="&#x21a;" horiz-adv-x="480" 
d="M364 53v-41q0 -12 -12 -12h-224q-12 0 -12 12v41q0 12 12 12h71v550h-106v-113q0 -12 -12 -12h-44q-12 0 -12 12v171q0 12 12 12h406q12 0 12 -12v-171q0 -12 -11 -12h-46h-4.5t-3 1t-2.5 4t-1 7v113h-106v-550h71q12 0 12 -12zM216 -57h69q6 0 6 -5q0 -2 -2 -6
q-1 -2 -1 -3l-90 -170q-4 -7 -8 -7q-1 0 -7 2l-21 7q-5 2 -5 5q0 5 1 8l46 160q3 9 12 9z" />
    <glyph glyph-name="tcommaaccent" unicode="&#x21b;" horiz-adv-x="370" 
d="M340 74l12 -39q4 -15 -21 -25q-59 -24 -109 -24q-60 0 -92 35q-29 32 -29 113v284h-70q-12 0 -12 12v38q0 12 12 12h70v137q0 9 11 12l53 15q9 3 10.5 0t1.5 -10v-154h148q15 0 10 -14l-13 -39q-3 -9 -13 -9h-132v-292q0 -32 10 -50q14 -23 50 -23q32 0 79 21q15 6 17 6
q4 0 7 -6zM176 -57h69q6 0 6 -5q0 -2 -2 -6q-1 -2 -1 -3l-90 -170q-4 -7 -8 -7q-1 0 -7 2l-21 7q-5 2 -5 5q0 5 1 8l46 160q3 9 12 9z" />
    <glyph glyph-name="schwa" unicode="&#x259;" horiz-adv-x="467" 
d="M73 392l-18 45q-1 2 -1 6q0 7 37 25q54 26 113 26q99 0 156 -63q62 -69 62 -191q0 -118 -56.5 -186t-143.5 -68q-180 0 -180 248v5q0 17 11 17h287v5q0 71 -35 116q-39 50 -103 50q-47 0 -110 -35q-8 -4 -12 -5h-2q-4 0 -5 5zM340 194h-216q0 -47 16 -85q25 -61 89 -61
q45 0 77.5 36t33.5 110z" />
    <glyph glyph-name="afii57929" unicode="&#x2bc;" 
d="M241 717h69q6 0 6 -5l-3 -9l-90 -170q-3 -7 -8 -7q-1 0 -7 2l-21 7q-5 2 -5 5q0 5 1 8l46 160q3 9 12 9z" />
    <glyph glyph-name="circumflex" unicode="&#x2c6;" horiz-adv-x="308" 
d="M154 625l-91 -60q-6 -4 -9 -4q-5 0 -9 6l-15 20q-3 6 -3 7q0 4 8 10l110 88q8 5 9 5q2 0 9 -5l110 -88q8 -6 8 -10q0 -1 -3 -7l-15 -20q-4 -6 -9 -6q-3 0 -9 4z" />
    <glyph glyph-name="caron" unicode="&#x2c7;" horiz-adv-x="308" 
d="M273 654l-110 -88q-7 -5 -9 -5t-9 5l-110 88q-8 6 -8 10q0 1 3 7l15 20q4 6 9 6q3 0 9 -4l91 -60l91 60q6 4 9 4q5 0 9 -6l15 -20q3 -6 3 -7q0 -4 -8 -10z" />
    <glyph glyph-name="breve" unicode="&#x2d8;" horiz-adv-x="308" 
d="M231 682l41 -7q11 -2 11 -15q0 -1 -0.5 -3t-0.5 -3q-9 -43 -36 -70q-34 -34 -92 -34t-92 34q-27 27 -36 70q0 1 -0.5 3t-0.5 3q0 13 11 15l41 7q10 2 11 -5l3 -12q15 -62 63 -62t63 62l3 12q2 5 6 5h5z" />
    <glyph glyph-name="dotaccent" unicode="&#x2d9;" horiz-adv-x="308" 
d="M213 627q0 -24 -17.5 -41.5t-41.5 -17.5t-41.5 17.5t-17.5 41.5t17.5 41.5t41.5 17.5t41.5 -17.5t17.5 -41.5z" />
    <glyph glyph-name="ring" unicode="&#x2da;" horiz-adv-x="310" 
d="M65 629q0 37 26.5 63.5t63.5 26.5t63.5 -26.5t26.5 -63.5t-26.5 -63.5t-63.5 -26.5t-63.5 26.5t-26.5 63.5zM113 629q0 -17 12.5 -29.5t29.5 -12.5t29.5 12.5t12.5 29.5t-12.5 29.5t-29.5 12.5t-29.5 -12.5t-12.5 -29.5z" />
    <glyph glyph-name="ogonek" unicode="&#x2db;" horiz-adv-x="308" 
d="M125 0h67l-10 -13q-2 -3 -6.5 -9t-7.5 -9l-14 -20q-26 -38 -26 -52q0 -10 11 -18q10 -6 23 -6q20 0 51 17l10 5q3 0 5 -6l10 -28q2 -6 2 -7q0 -5 -10 -12q-31 -20 -72 -20q-40 0 -64.5 16t-24.5 49q0 6 0.5 11.5t2.5 11.5t3 10.5t4.5 10.5t4.5 9t6 10t6 9t7 10.5t7 9.5z
" />
    <glyph glyph-name="tilde" unicode="&#x2dc;" horiz-adv-x="308" 
d="M39 582l-27 11q-7 3 -7 9q0 4 5 15q30 64 87 64q22 0 61 -21q37 -20 49 -20q24 0 43 28q8 11 11 11q1 0 4 -1l3 -1l27 -11q7 -4 7 -9q0 -4 -5 -15q-32 -64 -87 -64q-26 0 -60 21q-33 20 -51 20q-24 0 -42 -28q-8 -11 -11 -11q-1 0 -4 1z" />
    <glyph glyph-name="hungarumlaut" unicode="&#x2dd;" horiz-adv-x="308" 
d="M165 664l-127 -113q-7 -5 -10 -5q-4 0 -9 5l-11 10q-7 7 -7 10q0 1 5 9l105 131q8 8 10 8l9 -6l34 -31q7 -7 7 -10q0 -2 -6 -8zM301 664l-127 -113q-7 -5 -10 -5q-4 0 -9 5l-11 10q-7 7 -7 10q0 1 5 9l105 131q8 8 10 8l9 -6l34 -31q7 -7 7 -10q0 -2 -6 -8z" />
    <glyph glyph-name="acutecomb" unicode="&#x301;" horiz-adv-x="2" 
d="M-175 700l29 -43q4 -8 4 -9q0 -4 -9 -10l-166 -86q-4 -2 -7 -2t-7 4l-13 19q-4 5 -4 8q0 5 4 7l149 115q7 5 10 5q5 0 10 -8z" />
    <glyph glyph-name="uni0313" unicode="&#x313;" 
d="M241 717h69q6 0 6 -5l-3 -9l-90 -170q-3 -7 -8 -7q-1 0 -7 2l-21 7q-5 2 -5 5q0 5 1 8l46 160q3 9 12 9z" />
    <glyph glyph-name="uni0315" unicode="&#x315;" 
d="M241 717h69q6 0 6 -5l-3 -9l-90 -170q-3 -7 -8 -7q-1 0 -7 2l-21 7q-5 2 -5 5q0 5 1 8l46 160q3 9 12 9z" />
    <glyph glyph-name="uni0326" unicode="&#x326;" 
d="M241 -57h69q6 0 6 -5q0 -2 -2 -6q-1 -2 -1 -3l-90 -170q-3 -7 -8 -7q-1 0 -7 2l-21 7q-5 2 -5 5q0 5 1 8l46 160q3 9 12 9z" />
    <glyph glyph-name="anoteleia" unicode="&#x387;" horiz-adv-x="250" 
d="M187 254q0 -26 -18.5 -44t-43.5 -18q-26 0 -44 18.5t-18 43.5t18 43.5t44 18.5q25 0 43.5 -18t18.5 -44z" />
    <glyph glyph-name="Delta" unicode="&#x394;" horiz-adv-x="554" 
d="M320 674l204 -662q3 -8 -2 -11q-2 -1 -10 -1h-475q-5 0 -6.5 0.5t-3.5 3t1 8.5l203 662q4 11 15 11h59q11 0 15 -11zM414 70l-138 497h-2l-142 -497h282z" />
    <glyph glyph-name="Delta" unicode="&#x2206;" horiz-adv-x="554" 
d="M320 674l204 -662q3 -8 -2 -11q-2 -1 -10 -1h-475q-5 0 -6.5 0.5t-3.5 3t1 8.5l203 662q4 11 15 11h59q11 0 15 -11zM414 70l-138 497h-2l-142 -497h282z" />
    <glyph glyph-name="Omega" unicode="&#x3a9;" horiz-adv-x="578" 
d="M335 20v131q0 8 3 12t5 4.5t9 2.5q8 2 19 7.5t29 25t27 48.5q16 51 16 128q0 133 -39 192q-40 61 -113 61t-113 -61q-39 -59 -39 -192q0 -77 16 -128q9 -29 27 -48.5t29 -25t19 -7.5q14 -3 16 -10q1 -4 1 -9v-131q0 -20 -20 -20h-152h-3q-8 0 -11.5 0.5t-6.5 3t-5 8.5
l-36 97q-3 8 -3 11q0 6 8 9l42 15q16 6 20 -5l25 -69h60v73q-51 21 -81 79q-35 68 -35 178q0 155 71 230q64 69 171 69t171 -69q71 -75 71 -230q0 -110 -35 -178q-30 -58 -81 -79v-73h60l25 69q4 11 20 5l42 -15q8 -3 8 -9q0 -3 -3 -11l-36 -97q-3 -9 -7.5 -10.5t-18.5 -1.5
h-152q-20 0 -20 20z" />
    <glyph glyph-name="Omega" unicode="&#x2126;" horiz-adv-x="578" 
d="M335 20v131q0 8 3 12t5 4.5t9 2.5q8 2 19 7.5t29 25t27 48.5q16 51 16 128q0 133 -39 192q-40 61 -113 61t-113 -61q-39 -59 -39 -192q0 -77 16 -128q9 -29 27 -48.5t29 -25t19 -7.5q14 -3 16 -10q1 -4 1 -9v-131q0 -20 -20 -20h-152h-3q-8 0 -11.5 0.5t-6.5 3t-5 8.5
l-36 97q-3 8 -3 11q0 6 8 9l42 15q16 6 20 -5l25 -69h60v73q-51 21 -81 79q-35 68 -35 178q0 155 71 230q64 69 171 69t171 -69q71 -75 71 -230q0 -110 -35 -178q-30 -58 -81 -79v-73h60l25 69q4 11 20 5l42 -15q8 -3 8 -9q0 -3 -3 -11l-36 -97q-3 -9 -7.5 -10.5t-18.5 -1.5
h-152q-20 0 -20 20z" />
    <glyph glyph-name="pi" unicode="&#x3c0;" horiz-adv-x="561" 
d="M199 418v-356h56q12 0 12 -12v-38q0 -12 -12 -12h-188q-12 0 -12 12v38q0 12 12 12h56v356h-20q-24 0 -39 -8q-16 -8 -24 -16q-5 -5 -9 -5t-8 6l-23 28q-7 8 2 18q12 16 36 25q31 14 79 14h397q12 0 12 -12v-38q0 -12 -12 -12h-56v-356h56q12 0 12 -12v-38q0 -12 -12 -12
h-120q-12 0 -12 12v406h-183z" />
    <glyph glyph-name="afii10023" unicode="&#x401;" horiz-adv-x="481" 
d="M449 159v-147q0 -12 -12 -12h-385q-12 0 -12 12v41q0 12 12 12h63v555h-63q-12 0 -12 12v41q0 12 12 12h378q12 0 12 -12v-138q0 -12 -12 -12h-44q-12 0 -12 12v80h-177v-222h197q12 0 12 -12v-46q0 -12 -12 -12h-197v-253h184v89q0 12 12 12h44q12 0 12 -12zM210 779
q0 -21 -15.5 -37t-37.5 -16t-37.5 15.5t-15.5 37.5t15.5 37.5t37.5 15.5t37.5 -16t15.5 -37zM301 779q0 22 15.5 37.5t37.5 15.5t37.5 -15.5t15.5 -37.5t-15.5 -37.5t-37.5 -15.5t-37.5 15.5t-15.5 37.5z" />
    <glyph glyph-name="afii10051" unicode="&#x402;" horiz-adv-x="637" 
d="M281 335v-323q0 -12 -12 -12h-141q-12 0 -12 12v41q0 12 12 12h71v550h-106v-113q0 -12 -12 -12h-44q-12 0 -12 12v171q0 12 12 12h406q12 0 12 -12v-171q0 -12 -11 -12h-46h-4.5t-3 1t-2.5 4t-1 7v113h-106v-213q70 33 136 33q79 0 128 -49q53 -53 53 -167
q0 -118 -38 -174q-42 -60 -121 -59q-40 0 -81 17q-15 6 -13 15l10 43q4 20 23 9q30 -18 64 -17q32 1 50 27q22 32 22 127q0 85 -22 118q-29 43 -95 43q-43 0 -83 -18z" />
    <glyph glyph-name="afii10052" unicode="&#x403;" horiz-adv-x="463" 
d="M114 620h-63q-12 0 -12 12v41q0 12 12 12h378q12 0 12 -12v-171q0 -12 -12 -12h-44q-12 0 -12 12v113h-177v-550h80q12 0 12 -12v-41q0 -12 -12 -12h-225q-12 0 -12 12v41q0 12 12 12h63v555zM125 776l164 102q6 3 8 3q4 0 7 -4l29 -50q3 -5 3 -9q0 -6 -11 -10l-172 -69
q-1 0 -5 -1.5t-6 -1.5q-4 0 -7 4l-13 24q-2 3 -2 6q0 4 5 6z" />
    <glyph glyph-name="afii10053" unicode="&#x404;" horiz-adv-x="484" 
d="M350 381v-43q0 -12 -12 -12h-196v-14q0 -107 30 -177q36 -82 116 -82q38 0 80 21l8 4v89q0 12 12 12h44q12 0 12 -12v-104v-10.5t-2 -7t-5.5 -7.5t-11.5 -8q-69 -44 -145 -44q-114 0 -173 102q-55 97 -55 261q0 168 56 258q58 92 174 92q61 0 122 -34q24 -15 29.5 -21
t5.5 -14v-111q0 -12 -12 -12h-44q-12 0 -12 12v87l-14 7q-36 19 -81 19q-60 0 -94 -48q-45 -65 -42 -191h198q12 0 12 -12z" />
    <glyph glyph-name="afii10054" unicode="&#x405;" horiz-adv-x="480" 
d="M353 525v81l-7 3q-22 10 -31.5 13.5t-25 6.5t-35.5 3q-49 0 -77.5 -28.5t-28.5 -74.5q0 -60 60 -100q19 -12 54.5 -31t41.5 -22q136 -77 136 -194q0 -80 -55 -138t-157 -58q-46 0 -98.5 14.5t-77.5 29.5q-10 6 -10 23v116q0 12 12 12h44q12 0 12 -12v-82l5 -2l21 -9
l29 -11.5t29 -7.5t37 -4q60 0 89.5 35.5t29.5 83.5q0 27 -7.5 47.5t-25 37t-32 26.5t-41.5 25q-87 50 -106 64q-80 59 -80 148q0 84 64 135q57 44 135 44q84 0 144 -34q13 -7 16.5 -12t3.5 -18v-110q0 -12 -12 -12h-44q-12 0 -12 12z" />
    <glyph glyph-name="afii10055" unicode="&#x406;" horiz-adv-x="333" 
d="M208 65h91q12 0 12 -12v-41q0 -12 -12 -12h-264q-12 0 -12 12v41q0 12 12 12h91v555h-91q-12 0 -12 12v41q0 12 12 12h264q12 0 12 -12v-41q0 -12 -12 -12h-91v-555z" />
    <glyph glyph-name="afii10056" unicode="&#x407;" horiz-adv-x="333" 
d="M208 65h91q12 0 12 -12v-41q0 -12 -12 -12h-264q-12 0 -12 12v41q0 12 12 12h91v555h-91q-12 0 -12 12v41q0 12 12 12h264q12 0 12 -12v-41q0 -12 -12 -12h-91v-555zM14 804q0 22 17 39t39 17t39 -17t17 -39t-17 -39t-39 -17t-39 17t-17 39zM216 804q0 22 17 39t39 17
t39 -17t17 -39t-17 -39t-39 -17t-39 17t-17 39z" />
    <glyph glyph-name="afii10057" unicode="&#x408;" horiz-adv-x="444" 
d="M366 673v-504q0 -82 -43 -130q-48 -53 -141 -53q-91 0 -136 57q-40 50 -40 123v18q0 12 12 12h52q12 0 12 -12v-6q0 -61 24 -92q26 -33 77 -33t76 29q25 28 25 87v446h-175q-12 0 -12 12v46q0 12 12 12h245q12 0 12 -12z" />
    <glyph glyph-name="afii10058" unicode="&#x409;" horiz-adv-x="836" 
d="M494 396h98q88 0 145 -40q74 -53 74 -161q0 -82 -46 -134q-54 -61 -170 -61h-246q-12 0 -12 12v41q0 12 12 12h63v550h-161v-18q0 -190 -14 -327q-14 -131 -49 -195q-41 -72 -126 -87q-33 -5 -36 7l-15 52q-6 18 10 20l11 1q52 5 75.5 31.5t35.5 69.5q33 114 33 366v85
h-63q-12 0 -12 12v41q0 12 12 12h444q12 0 12 -12v-41q0 -12 -12 -12h-63v-224zM494 70h97q67 0 101 38q29 33 29 89q0 61 -37 95q-36 34 -98 34h-92v-256z" />
    <glyph glyph-name="afii10059" unicode="&#x40a;" horiz-adv-x="876" 
d="M114 620h-63q-12 0 -12 12v41q0 12 12 12h208q12 0 12 -12v-41q0 -12 -12 -12h-63v-227h256v227h-63q-12 0 -12 12v41q0 12 12 12h208q12 0 12 -12v-41q0 -12 -12 -12h-63v-227h98q90 0 145 -39q74 -50 74 -160q0 -55 -23.5 -100.5t-70.5 -69.5q-48 -24 -125 -24h-243
q-12 0 -12 12v41q0 12 12 12h63v258h-256v-258h63q12 0 12 -12v-41q0 -12 -12 -12h-208q-12 0 -12 12v41q0 12 12 12h63v555zM534 70h97q61 0 95.5 33.5t34.5 93.5q0 35 -12.5 60.5t-28 37.5t-37.5 19t-33.5 8t-23.5 1h-92v-253z" />
    <glyph glyph-name="afii10060" unicode="&#x40b;" horiz-adv-x="718" 
d="M356 53v-41q0 -12 -12 -12h-216q-12 0 -12 12v41q0 12 12 12h71v550h-106v-113q0 -12 -12 -12h-44q-12 0 -12 12v171q0 12 12 12h406q12 0 12 -12v-171q0 -12 -11 -12h-46h-4.5t-3 1t-2.5 4t-1 7v113h-106v-213q78 33 146 33q80 0 124 -37q53 -45 53 -128v-205h63
q12 0 12 -12v-41q0 -12 -12 -12h-208q-12 0 -12 12v41q0 12 12 12h63v205q0 46 -24 70q-28 28 -82 28q-36 0 -72 -10q-26 -7 -63 -23v-270h63q12 0 12 -12z" />
    <glyph glyph-name="afii10061" unicode="&#x40c;" horiz-adv-x="571" 
d="M114 620h-63q-12 0 -12 12v41q0 12 12 12h208q12 0 12 -12v-41q0 -12 -12 -12h-63v-229h68q20 0 32 4t25.5 24t23.5 58l19 74q20 80 45 107.5t80 37.5l11 2q1 0 3 0.5t3 0.5q10 0 13 -11l14 -45q3 -6 0.5 -10t-14.5 -7l-15 -3q-29 -6 -40 -20t-27 -73l-15 -56
q-6 -24 -10 -35t-12 -29t-21 -30.5t-31 -22.5q60 -24 78 -88l37 -136q10 -36 20.5 -50.5t38.5 -18.5l19 -3q19 -3 14 -16l-15 -48q-3 -11 -12 -11q-6 0 -20 2l-15 2q-57 7 -84 42q-4 5 -7 10t-6 13t-5 12.5t-5 15.5t-4 15l-4.5 18l-4.5 18l-25 101q-13 54 -32 70t-52 16h-68
v-256h63q12 0 12 -12v-41q0 -12 -12 -12h-208q-12 0 -12 12v41q0 12 12 12h63v555zM178 776l164 102q6 3 8 3q4 0 7 -4l29 -50q3 -5 3 -9q0 -6 -11 -10l-172 -69q-1 0 -5 -1.5t-6 -1.5q-4 0 -7 4l-13 24q-2 3 -2 6q0 4 5 6z" />
    <glyph glyph-name="afii10062" unicode="&#x40e;" horiz-adv-x="544" 
d="M485 620l-159 -500q-28 -85 -72 -113q-34 -21 -80 -21q-60 0 -109 35q-16 11 -10 24l21 43q4 7 10 7q5 0 18 -11q37 -31 70 -31q39 0 60 31q14 19 29 73l10 36h-35q-12 0 -17 14l-158 413h-41q-12 0 -12 12v42v4.5t1 3t4 2.5t7 1h190q11 0 11 -11v-42q0 -12 -11 -12h-61
l103 -270q17 -45 34 -109h3q9 45 33 122l80 257h-53q-12 0 -12 12v42v4.5t1.5 3t4 2.5t6.5 1h175q8 0 10 -2.5t2 -8.5v-42q0 -12 -12 -12h-41zM355 860l36 -6q10 0 11 -12v-2q-1 -11 -6.5 -27t-18.5 -36t-40.5 -34t-64.5 -14t-64.5 14t-40.5 34t-18.5 36t-6.5 27v2
q1 12 11 12l36 6q15 3 17 -8l3 -15q11 -55 63 -55t63 55l3 15q2 11 17 8z" />
    <glyph glyph-name="afii10145" unicode="&#x40f;" horiz-adv-x="628" 
d="M589 673v-41q0 -12 -12 -12h-63v-555h63q12 0 12 -12v-41q0 -12 -12 -12h-222v-176q0 -12 -12 -12h-58q-12 0 -12 12v176h-222q-12 0 -12 12v41q0 12 12 12h63v555h-63q-12 0 -12 12v41q0 12 12 12h208q12 0 12 -12v-41q0 -12 -12 -12h-63v-550h236v550h-63q-12 0 -12 12
v41q0 12 12 12h208q12 0 12 -12z" />
    <glyph glyph-name="afii10017" unicode="&#x410;" horiz-adv-x="603" 
d="M593 53v-41q0 -12 -12 -12h-202q-12 0 -12 12v41q0 12 12 12h62l-39 139h-205l-38 -139h64q12 0 12 -12v-41q0 -12 -12 -12h-201q-12 0 -12 12v41q0 12 12 12h49l186 609q4 11 15 11h59q11 0 15 -11l185 -609h50q12 0 12 -12zM383 274l-60 221q-19 69 -23 95h-2
q-15 -74 -21 -95l-61 -221h167z" />
    <glyph glyph-name="afii10018" unicode="&#x411;" horiz-adv-x="574" 
d="M125 620h-63q-12 0 -12 12v41q0 12 12 12h411q12 0 12 -12v-171q0 -12 -11 -12h-46h-4.5t-3 1t-2.5 4t-1 7v113h-210v-219h98q104 0 161.5 -54t57.5 -148q0 -52 -17 -89.5t-40.5 -57t-59.5 -31t-63 -14t-61 -2.5h-221q-12 0 -12 12v41q0 12 12 12h63v555zM207 70h97
q61 0 95.5 33.5t34.5 93.5q0 36 -12.5 62t-28 38.5t-37.5 19.5t-33.5 8t-23.5 1h-92v-256z" />
    <glyph glyph-name="afii10019" unicode="&#x412;" horiz-adv-x="556" 
d="M115 620h-63q-12 0 -12 12v41q0 12 12 12h250q180 0 180 -163q0 -111 -99 -163q56 -13 89.5 -56.5t33.5 -113.5q0 -79 -46 -130q-54 -59 -165 -59h-243q-12 0 -12 12v41q0 12 12 12h63v555zM197 383h63q70 0 102 34q30 32 30 96q0 46 -22 73q-25 29 -89 29h-84v-232z
M197 70h89q69 0 102 38q28 32 28 84q0 62 -42 97q-34 27 -93 27h-84v-246z" />
    <glyph glyph-name="afii10020" unicode="&#x413;" horiz-adv-x="463" 
d="M114 620h-63q-12 0 -12 12v41q0 12 12 12h378q12 0 12 -12v-171q0 -12 -12 -12h-44q-12 0 -12 12v113h-177v-550h80q12 0 12 -12v-41q0 -12 -12 -12h-225q-12 0 -12 12v41q0 12 12 12h63v555z" />
    <glyph glyph-name="afii10021" unicode="&#x414;" horiz-adv-x="611" 
d="M497 620v-550h55q6 0 10 -0.5t6 -1t3 -3t1 -3.5v-5v-5v-228q0 -12 -12 -12h-58q-12 0 -12 12v176h-381v-176q0 -12 -12 -12h-58q-12 0 -12 12v228v5v5t1 3.5t3 3t6 1t10 0.5h34q73 148 92 319q6 55 6 213v18h-63q-12 0 -12 12v41q0 12 12 12h444q12 0 12 -12v-41
q0 -12 -12 -12h-63zM415 615h-161v-55q0 -172 -24 -288q-21 -105 -66 -202h251v545z" />
    <glyph glyph-name="afii10022" unicode="&#x415;" horiz-adv-x="481" 
d="M449 159v-147q0 -12 -12 -12h-385q-12 0 -12 12v41q0 12 12 12h63v555h-63q-12 0 -12 12v41q0 12 12 12h378q12 0 12 -12v-138q0 -12 -12 -12h-44q-12 0 -12 12v80h-177v-222h197q12 0 12 -12v-46q0 -12 -12 -12h-197v-253h184v89q0 12 12 12h44q12 0 12 -12z" />
    <glyph glyph-name="afii10024" unicode="&#x416;" horiz-adv-x="802" 
d="M360 321h-54q-33 0 -52 -16t-32 -70l-25 -101l-4.5 -18l-4.5 -18t-4 -15t-5 -15.5t-5 -12.5t-6 -13t-7 -10q-27 -35 -84 -42l-15 -2q-3 0 -9 -1t-7.5 -1.5t-5 0t-5 1.5t-3 3.5t-2.5 6.5l-15 48q-5 13 14 16l19 3q28 4 38.5 18.5t20.5 50.5l37 136q18 64 78 88
q-18 10 -31 22.5t-21 30.5t-12 29t-10 35l-15 56q-16 59 -27 73t-40 20l-15 3q-12 3 -14.5 7t0.5 10l14 45q4 13 19 10l11 -2q55 -11 80 -38q24 -27 45 -107l19 -74q14 -55 32 -70.5t49 -15.5h54v229h-63q-12 0 -12 12v41q0 12 12 12h208q12 0 12 -12v-41q0 -12 -12 -12h-63
v-229h54q20 0 32 4t25.5 24t23.5 58l19 74q21 80 45 107q25 27 80 38l11 2q15 3 19 -10l14 -45q3 -6 0.5 -10t-14.5 -7l-15 -3q-29 -6 -40 -20t-27 -73l-15 -56q-6 -24 -10 -35t-12 -29t-21 -30.5t-31 -22.5q60 -24 78 -88l37 -136q10 -36 20.5 -50.5t38.5 -18.5l19 -3
q19 -3 14 -16l-15 -48q-3 -11 -10 -11.5t-22 2.5l-15 2q-57 7 -84 42q-4 5 -7 10t-6 13t-5 12.5t-5 15.5t-4 15l-4.5 18l-4.5 18l-25 101q-13 54 -32 70t-52 16h-54v-256h63q12 0 12 -12v-41q0 -12 -12 -12h-208q-12 0 -12 12v41q0 12 12 12h63v256z" />
    <glyph glyph-name="afii10025" unicode="&#x417;" horiz-adv-x="478" 
d="M126 604v-85q0 -12 -12 -12h-44q-12 0 -12 12v111q0 16 34 35q61 34 136 34q85 0 132 -47q49 -49 49 -130q0 -50 -25 -95.5t-76 -64.5q28 -8 52 -22.5t46 -52.5t22 -92q0 -88 -51 -145q-56 -64 -162 -64q-90 0 -152 44q-4 3 -7 5.5t-5 4t-3 3.5t-2 3.5t-1 3.5v3.5v4.5v5
v104q0 12 12 12h44q12 0 12 -12v-86l11 -6q40 -22 86 -22q69 0 103 43q25 32 25 91q0 57 -26 91q-31 41 -94 41h-44q-12 0 -12 12v43q0 12 13 12h18q64 0 99 35q31 31 31 89q0 50 -24 84q-28 38 -81 38q-44 0 -85 -24z" />
    <glyph glyph-name="afii10026" unicode="&#x418;" horiz-adv-x="648" 
d="M114 620h-63q-12 0 -12 12v41q0 12 12 12h208q12 0 12 -12v-41q0 -12 -12 -12h-63v-328q0 -9 -0.5 -38t-1.5 -70h3q16 40 57 106l198 320v10h-63q-12 0 -12 12v41q0 12 12 12h208q12 0 12 -12v-41q0 -12 -12 -12h-63v-555h63q12 0 12 -12v-41q0 -12 -12 -12h-208
q-12 0 -12 12v41q0 12 12 12h63v328q0 9 0.5 37t1.5 71h-3q-16 -42 -54 -105l-201 -321v-10h63q12 0 12 -12v-41q0 -12 -12 -12h-208q-12 0 -12 12v41q0 12 12 12h63v555z" />
    <glyph glyph-name="afii10027" unicode="&#x419;" horiz-adv-x="648" 
d="M114 620h-63q-12 0 -12 12v41q0 12 12 12h208q12 0 12 -12v-41q0 -12 -12 -12h-63v-328q0 -9 -0.5 -38t-1.5 -70h3q16 40 57 106l198 320v10h-63q-12 0 -12 12v41q0 12 12 12h208q12 0 12 -12v-41q0 -12 -12 -12h-63v-555h63q12 0 12 -12v-41q0 -12 -12 -12h-208
q-12 0 -12 12v41q0 12 12 12h63v328q0 9 0.5 37t1.5 71h-3q-16 -42 -54 -105l-201 -321v-10h63q12 0 12 -12v-41q0 -12 -12 -12h-208q-12 0 -12 12v41q0 12 12 12h63v555zM258 852l3 -15q11 -55 63 -55t63 55l3 15q2 11 17 8l36 -6q10 0 11 -12v-2q-1 -11 -6.5 -27
t-18.5 -36t-40.5 -34t-64.5 -14t-64.5 14t-40.5 34t-18.5 36t-6.5 27v2q1 12 11 12l36 6q15 3 17 -8z" />
    <glyph glyph-name="afii10028" unicode="&#x41a;" horiz-adv-x="571" 
d="M114 620h-63q-12 0 -12 12v41q0 12 12 12h208q12 0 12 -12v-41q0 -12 -12 -12h-63v-229h68q20 0 32 4t25.5 24t23.5 58l19 74q20 80 45 107.5t80 37.5l11 2q1 0 3 0.5t3 0.5q10 0 13 -11l14 -45q3 -6 0.5 -10t-14.5 -7l-15 -3q-29 -6 -40 -20t-27 -73l-15 -56
q-6 -24 -10 -35t-12 -29t-21 -30.5t-31 -22.5q60 -24 78 -88l37 -136q10 -36 20.5 -50.5t38.5 -18.5l19 -3q19 -3 14 -16l-15 -48q-3 -11 -12 -11q-6 0 -20 2l-15 2q-57 7 -84 42q-4 5 -7 10t-6 13t-5 12.5t-5 15.5t-4 15l-4.5 18l-4.5 18l-25 101q-13 54 -32 70t-52 16h-68
v-256h63q12 0 12 -12v-41q0 -12 -12 -12h-208q-12 0 -12 12v41q0 12 12 12h63v555z" />
    <glyph glyph-name="afii10029" unicode="&#x41b;" horiz-adv-x="608" 
d="M412 615h-161v-18q0 -190 -14 -327q-17 -179 -83 -240q-35 -33 -92 -42q-33 -5 -36 7l-15 52q-6 18 10 20l11 1q52 5 75.5 31.5t35.5 69.5q18 61 24 167q9 146 9 199v85h-63q-12 0 -12 12v41q0 12 12 12h444q12 0 12 -12v-41q0 -12 -12 -12h-63v-555h63q12 0 12 -12v-41
q0 -12 -12 -12h-208q-12 0 -12 12v41q0 12 12 12h63v550z" />
    <glyph glyph-name="afii10030" unicode="&#x41c;" horiz-adv-x="708" 
d="M531 65l-13 430v95h-2q-4 -46 -12 -71l-120 -348q-3 -11 -15 -11h-30q-12 0 -15 11l-120 348q-8 25 -12 71h-2v-95l-13 -430h70q12 0 12 -12v-41q0 -12 -12 -12h-205q-12 0 -12 12v41q0 12 12 12h56l31 555h-70q-12 0 -12 12v41q0 12 12 12h148q8 0 13 -10l118 -345
q10 -30 15 -62h2q5 32 15 62l118 345q5 10 13 10h148q12 0 12 -12v-41q0 -12 -12 -12h-70l31 -555h56q12 0 12 -12v-41q0 -12 -12 -12h-205q-12 0 -12 12v41q0 12 12 12h70z" />
    <glyph glyph-name="afii10031" unicode="&#x41d;" horiz-adv-x="648" 
d="M609 53v-41q0 -12 -12 -12h-208q-12 0 -12 12v41q0 12 12 12h63v256h-256v-256h63q12 0 12 -12v-41q0 -12 -12 -12h-208q-12 0 -12 12v41q0 12 12 12h63v555h-63q-12 0 -12 12v41q0 12 12 12h208q12 0 12 -12v-41q0 -12 -12 -12h-63v-229h256v229h-63q-12 0 -12 12v41
q0 12 12 12h208q12 0 12 -12v-41q0 -12 -12 -12h-63v-555h63q12 0 12 -12z" />
    <glyph glyph-name="afii10032" unicode="&#x41e;" horiz-adv-x="556" 
d="M504 343q0 -88 -15 -154.5t-38 -104t-55 -61t-59.5 -30.5t-58.5 -7q-32 0 -60 7.5t-59.5 30.5t-54 60.5t-37.5 104t-15 154.5q0 30 1.5 55t7.5 71.5t21 82.5t38.5 71.5t64 55.5t93.5 20q31 0 59 -7t59.5 -30.5t54.5 -60.5t38 -103.5t15 -154.5zM278 53q28 0 50.5 11
t36.5 26.5t24 42.5t14.5 48t7.5 54.5t3 50v46.5v11q0 49 -2 83t-9.5 76t-21.5 68t-40 44t-63 18q-28 0 -50.5 -11.5t-36.5 -27t-24 -43t-14.5 -49t-7 -54.5t-3 -50t-0.5 -47v-7q0 -133 18 -190q30 -100 118 -100z" />
    <glyph glyph-name="afii10033" unicode="&#x41f;" horiz-adv-x="628" 
d="M114 620h-63q-12 0 -12 12v41q0 12 12 12h526q12 0 12 -12v-41q0 -12 -12 -12h-63v-555h63q12 0 12 -12v-41q0 -12 -12 -12h-208q-12 0 -12 12v41q0 12 12 12h63v550h-236v-550h63q12 0 12 -12v-41q0 -12 -12 -12h-208q-12 0 -12 12v41q0 12 12 12h63v555z" />
    <glyph glyph-name="afii10034" unicode="&#x420;" horiz-adv-x="505" 
d="M283 53v-41q0 -12 -12 -12h-219q-12 0 -12 12v41q0 12 12 12h63v555h-63q-12 0 -12 12v41q0 12 12 12h248q89 0 136 -44q49 -45 49 -138q0 -110 -60 -164q-56 -50 -156 -50h-72v-224h74q12 0 12 -12zM197 359h65q25 0 40 1.5t36.5 10.5t35.5 27q29 36 29 101q0 62 -30 90
q-28 26 -99 26h-77v-256z" />
    <glyph glyph-name="afii10035" unicode="&#x421;" horiz-adv-x="481" 
d="M441 167v-104q0 -10 -0.5 -13.5t-4.5 -8t-14 -11.5q-67 -44 -145 -44q-111 0 -169 95q-56 91 -56 268q0 179 60 266q58 84 167 84q63 0 123 -34q34 -19 34 -35v-111q0 -12 -12 -12h-44q-12 0 -12 12v85l-6 4q-35 24 -87 24q-64 0 -97 -56q-36 -61 -36 -198
q0 -176 37 -254q18 -38 48.5 -54.5t59.5 -16.5q33 0 77 23l9 5v86q0 12 12 12h44q12 0 12 -12z" />
    <glyph glyph-name="afii10036" unicode="&#x422;" horiz-adv-x="480" 
d="M364 53v-41q0 -12 -12 -12h-224q-12 0 -12 12v41q0 12 12 12h71v550h-106v-113q0 -12 -12 -12h-44q-12 0 -12 12v171q0 12 12 12h406q12 0 12 -12v-171q0 -12 -11 -12h-46h-4.5t-3 1t-2.5 4t-1 7v113h-106v-550h71q12 0 12 -12z" />
    <glyph glyph-name="afii10037" unicode="&#x423;" horiz-adv-x="544" 
d="M485 620l-159 -500q-28 -85 -72 -113q-34 -21 -80 -21q-60 0 -109 35q-16 11 -10 24l21 43q4 7 10 7q5 0 18 -11q37 -31 70 -31q39 0 60 31q14 19 29 73l10 36h-35q-12 0 -17 14l-158 413h-41q-12 0 -12 12v42v4.5t1 3t4 2.5t7 1h190q11 0 11 -11v-42q0 -12 -11 -12h-61
l103 -270q17 -45 34 -109h3q9 45 33 122l80 257h-53q-12 0 -12 12v42v4.5t1.5 3t4 2.5t6.5 1h175q8 0 10 -2.5t2 -8.5v-42q0 -12 -12 -12h-41z" />
    <glyph glyph-name="afii10038" unicode="&#x424;" horiz-adv-x="636" 
d="M422 0h-208q-12 0 -12 12v41q0 12 12 12h63v58h-15q-123 0 -178 81q-34 49 -34 145q0 95 34 145q56 81 178 81h15v58h-63q-12 0 -12 12v41q0 12 12 12h208q12 0 12 -12v-41q0 -12 -12 -12h-63v-58h15q122 0 178 -81q34 -50 34 -145q0 -96 -34 -145q-55 -81 -178 -81h-15
v-58h63q12 0 12 -12v-41q0 -12 -12 -12zM359 513v-328h9q75 0 108 43q28 36 28 121q0 84 -28 121q-33 43 -108 43h-9zM277 185v328h-9q-75 0 -108 -43q-28 -37 -28 -121q0 -85 28 -121q33 -43 108 -43h9z" />
    <glyph glyph-name="afii10039" unicode="&#x425;" horiz-adv-x="556" 
d="M543 53v-41q0 -12 -12 -12h-192q-12 0 -12 12v41q0 12 12 12h54l-95 179q-5 9 -21 47l-20 -46l-95 -180h53q12 0 12 -12v-41q0 -12 -12 -12h-190q-12 0 -12 12v41q0 12 12 12h47l158 292l-144 263h-46q-12 0 -12 12v41q0 12 12 12h192q12 0 12 -12v-41q0 -12 -12 -12h-56
l78 -143l25 -52q7 19 26 56l74 139h-47q-12 0 -12 12v41q0 12 12 12h181q12 0 12 -12v-41q0 -12 -12 -12h-45l-146 -260l163 -295h46q12 0 12 -12z" />
    <glyph glyph-name="afii10040" unicode="&#x426;" horiz-adv-x="636" 
d="M207 70h233v550h-63q-12 0 -12 12v41q0 12 12 12h208q12 0 12 -12v-41q0 -12 -12 -12h-63v-550h55q6 0 10 -0.5t6 -1t3 -3t1 -3.5v-5v-5v-228q0 -12 -12 -12h-58q-12 0 -12 12v176h-453q-12 0 -12 12v41q0 12 12 12h63v555h-63q-12 0 -12 12v41q0 12 12 12h208
q12 0 12 -12v-41q0 -12 -12 -12h-63v-550z" />
    <glyph glyph-name="afii10041" unicode="&#x427;" horiz-adv-x="614" 
d="M418 372v248h-63q-12 0 -12 12v41q0 12 12 12h208q12 0 12 -12v-41q0 -12 -12 -12h-63v-555h63q12 0 12 -12v-41q0 -12 -12 -12h-208q-12 0 -12 12v41q0 12 12 12h63v240q-78 -33 -145 -33q-76 0 -127 39t-51 126v183h-63q-12 0 -12 12v41q0 12 12 12h208q12 0 12 -12
v-41q0 -12 -12 -12h-63v-183q0 -14 2.5 -26.5t11.5 -31t31.5 -29.5t56.5 -11q64 0 139 33z" />
    <glyph glyph-name="afii10042" unicode="&#x428;" horiz-adv-x="844" 
d="M381 70v603q0 12 12 12h58q12 0 12 -12v-603h185v550h-63q-12 0 -12 12v41q0 12 12 12h208q12 0 12 -12v-41q0 -12 -12 -12h-63v-555h63q12 0 12 -12v-41q0 -12 -12 -12h-742q-12 0 -12 12v41q0 12 12 12h63v555h-63q-12 0 -12 12v41q0 12 12 12h208q12 0 12 -12v-41
q0 -12 -12 -12h-63v-550h185z" />
    <glyph glyph-name="afii10043" unicode="&#x429;" horiz-adv-x="844" 
d="M381 70v603q0 12 12 12h58q12 0 12 -12v-603h185v550h-63q-12 0 -12 12v41q0 12 12 12h208q12 0 12 -12v-41q0 -12 -12 -12h-63v-550h55q6 0 10 -0.5t6 -1t3 -3t1 -3.5v-5v-5v-228q0 -12 -12 -12h-58q-12 0 -12 12v176h-672q-12 0 -12 12v41q0 12 12 12h63v555h-63
q-12 0 -12 12v41q0 12 12 12h208q12 0 12 -12v-41q0 -12 -12 -12h-63v-550h185z" />
    <glyph glyph-name="afii10044" unicode="&#x42a;" horiz-adv-x="631" 
d="M289 396h98q88 0 145 -40q74 -53 74 -162q0 -81 -46 -133q-54 -61 -164 -61h-260q-12 0 -12 12v41q0 12 12 12h71v550h-106v-113q0 -12 -12 -12h-44q-12 0 -12 12v171q0 12 12 12h307q12 0 12 -12v-41q0 -12 -12 -12h-63v-224zM289 70h97q62 0 96 33t34 94q0 63 -38 97
q-36 32 -97 32h-92v-256z" />
    <glyph glyph-name="afii10045" unicode="&#x42b;" horiz-adv-x="796" 
d="M196 396h98q88 0 145 -40q74 -53 74 -162q0 -81 -46 -133q-54 -61 -165 -61h-251q-12 0 -12 12v41q0 12 12 12h63v555h-63q-12 0 -12 12v41q0 12 12 12h208q12 0 12 -12v-41q0 -12 -12 -12h-63v-224zM196 70h97q61 0 95.5 33.5t34.5 93.5q0 36 -12.5 62t-28 38.5
t-37.5 19.5t-33.5 8t-23.5 1h-92v-256zM600 620h-63q-12 0 -12 12v41q0 12 12 12h208q12 0 12 -12v-41q0 -12 -12 -12h-63v-555h63q12 0 12 -12v-41q0 -12 -12 -12h-208q-12 0 -12 12v41q0 12 12 12h63v555z" />
    <glyph glyph-name="afii10046" unicode="&#x42c;" horiz-adv-x="538" 
d="M196 396h98q88 0 145 -40q74 -53 74 -162q0 -81 -46 -133q-53 -61 -167 -61h-249q-12 0 -12 12v41q0 12 12 12h63v555h-63q-12 0 -12 12v41q0 12 12 12h208q12 0 12 -12v-41q0 -12 -12 -12h-63v-224zM196 70h97q64 0 98 36q32 34 32 90q0 63 -38 98q-37 32 -97 32h-92
v-256z" />
    <glyph glyph-name="afii10047" unicode="&#x42d;" horiz-adv-x="487" 
d="M139 338v43q0 12 12 12h198q3 126 -42 191q-34 48 -94 48q-45 0 -81 -19l-14 -7v-87q0 -12 -12 -12h-44q-12 0 -12 12v111q0 6 1.5 9t9 9.5t24.5 16.5q61 34 122 34q116 0 174 -92q56 -90 56 -258q0 -164 -55 -261q-59 -102 -173 -102q-76 0 -145 44q-10 6 -14 11
t-4.5 8.5t-0.5 13.5v104q0 12 12 12h44q12 0 12 -12v-89l8 -4q42 -21 80 -21q80 0 116 82q30 70 30 177v14h-196q-12 0 -12 12z" />
    <glyph glyph-name="afii10048" unicode="&#x42e;" horiz-adv-x="813" 
d="M196 391h119q2 80 23 147q51 161 197 161q30 0 58 -7t60 -30.5t54.5 -60.5t38 -103.5t15.5 -154.5t-15 -154.5t-38 -104t-55 -60.5t-59.5 -30.5t-58.5 -7.5q-144 0 -196 162q-24 77 -24 173h-119v-256h63q12 0 12 -12v-41q0 -12 -12 -12h-208q-12 0 -12 12v41q0 12 12 12
h63v555h-63q-12 0 -12 12v41q0 12 12 12h208q12 0 12 -12v-41q0 -12 -12 -12h-63v-229zM535 53q28 0 50.5 11.5t36.5 27t24 43t14.5 48.5t7.5 54.5t3 49.5v46v10q0 39 -1.5 68t-5.5 65t-13.5 61.5t-24 48.5t-37.5 34.5t-54 11.5q-42 0 -70 -24t-40 -70t-16 -89.5t-4 -105.5
q0 -50 2 -85t9 -77t20.5 -67.5t38.5 -43t60 -17.5z" />
    <glyph glyph-name="afii10049" unicode="&#x42f;" horiz-adv-x="559" 
d="M363 312h-65q-20 0 -35.5 -7.5t-25 -23.5t-13.5 -26t-10 -29l-30 -98q-2 -8 -7.5 -27.5t-8 -27t-9 -22.5t-13.5 -22t-18 -16t-26.5 -14.5t-35.5 -8.5l-13 -2q-3 0 -9 -1t-7.5 -1.5t-5 0t-5 1.5t-3 3.5t-2.5 6.5l-15 48q-5 13 14 16l19 3q24 4 35.5 16.5t22.5 45.5l36 118
q19 62 67 92q-60 12 -92.5 56.5t-32.5 107.5q0 85 54.5 135t148.5 50h230q12 0 12 -12v-41q0 -12 -12 -12h-63v-555h63q12 0 12 -12v-41q0 -12 -12 -12h-208q-12 0 -12 12v41q0 12 12 12h63v247zM363 377v238h-77q-129 0 -129 -114q0 -36 12 -61t26.5 -37t38.5 -18.5t35 -7
t29 -0.5h65z" />
    <glyph glyph-name="afii10065" unicode="&#x430;" horiz-adv-x="463" 
d="M90 465l14 6q52 23 116 23q73 0 108 -25q50 -35 50 -115v-192q0 -68 12 -100h47q12 0 12 -12v-38q0 -12 -12 -12h-85q-14 0 -21 11t-14 33l-3 9l-4 -4q-63 -63 -140 -63q-58 0 -94 38t-36 103q0 62 38 105q54 60 203 68l21 1v36q0 19 -2.5 32.5t-10.5 28t-26.5 22
t-45.5 7.5q-56 0 -111 -26l-14 -6q-6 0 -8 5l-15 40q-1 2 -1 8q0 8 22 17zM302 110v129h-4q-93 0 -137 -27q-45 -27 -45 -79q0 -44 22 -64.5t50 -20.5q52 0 108 56z" />
    <glyph glyph-name="afii10066" unicode="&#x431;" horiz-adv-x="507" 
d="M111 380h6q21 48 62 74q40 26 89 26q88 0 141 -68q48 -62 48 -177q0 -63 -11 -102t-38 -73q-60 -74 -149 -74q-54 0 -102 28t-75 87q-29 63 -29 185q0 144 26 218q38 106 153 159l166 75q19 8 26 -6l17 -35q7 -13 -14 -22l-187 -86q-113 -52 -126 -178zM252 418
q-51 0 -84 -42t-33 -141q0 -187 117 -187q123 0 123 185q0 58 -13 98t-34 57t-39 23.5t-37 6.5z" />
    <glyph glyph-name="afii10067" unicode="&#x432;" horiz-adv-x="477" 
d="M273 0h-163q-12 0 -12 12v406h-56q-12 0 -12 12v38q0 12 12 12h227q55 0 91 -20q53 -30 53 -101q0 -78 -66 -105q37 -9 61 -38.5t24 -79.5q0 -60 -40 -96q-44 -40 -119 -40zM174 418v-137h92q32 0 53.5 17.5t21.5 50.5q0 69 -78 69h-89zM174 219v-157h94q88 0 88 77
q0 35 -18 55q-23 25 -65 25h-99z" />
    <glyph glyph-name="afii10068" unicode="&#x433;" horiz-adv-x="419" 
d="M103 418h-56q-12 0 -12 12v38q0 12 12 12h330q12 0 12 -12v-171q0 -12 -12 -12h-44q-12 0 -12 12v121h-142v-356h71q12 0 12 -12v-38q0 -12 -12 -12h-203q-12 0 -12 12v38q0 12 12 12h56v356z" />
    <glyph glyph-name="afii10069" unicode="&#x434;" horiz-adv-x="485" 
d="M76 480h311q14 0 14 -14v-404h50q5 0 8.5 -1t4.5 -2.5t1 -3.5v-4v-2v-174q0 -12 -12 -12h-48q-12 0 -12 12v125h-301v-125q0 -12 -12 -12h-48q-12 0 -12 12v174v2v5.5t3.5 3.5t10.5 2h37q69 135 61 356h-56q-12 0 -12 12v38q0 12 12 12zM325 418h-126v-66
q0 -171 -53 -290h179v356z" />
    <glyph glyph-name="afii10070" unicode="&#x435;" horiz-adv-x="469" 
d="M396 88l18 -45q1 -2 1 -6q0 -7 -37 -25q-58 -26 -113 -26q-107 0 -166 76q-52 68 -52 178q0 122 62 193q54 61 137 61q79 0 124 -49q57 -60 57 -199v-5q0 -17 -11 -17h-287v-5q0 -58 25 -102q19 -33 50.5 -48.5t62.5 -15.5q49 0 110 35q8 4 12 5h2q4 0 5 -5zM129 286h216
q0 47 -16 85q-25 61 -89 61q-63 0 -92 -59q-19 -40 -19 -87z" />
    <glyph glyph-name="afii10072" unicode="&#x436;" horiz-adv-x="676" 
d="M376 218v-206q0 -12 -12 -12h-52q-12 0 -12 12v206h-38q-25 0 -39 -10t-23 -43l-20 -71q-17 -61 -31 -77q-26 -31 -91 -31q-12 0 -14 8l-13 45q-3 9 0 11t12 3l12 2q21 3 29.5 10t15.5 28l31 96q16 51 66 64q-49 15 -66 79l-11 40q-7 24 -14.5 36t-13.5 14.5t-18 4.5
l-14 2q-13 2 -14 8q0 2 1 4l11 45q2 8 13 8q49 0 79 -29q23 -22 38 -79l13 -52q13 -54 62 -54h37v188q0 12 12 12h52q12 0 12 -12v-188h37q49 0 62 54l13 52q15 57 38 79q30 29 79 29q11 0 13 -8l11 -45q3 -10 -11 -12h-2l-14 -2q-12 -2 -18 -4.5t-13.5 -14.5t-14.5 -36
l-11 -40q-17 -64 -66 -79q50 -13 66 -64l31 -96q7 -21 15.5 -28t29.5 -10l12 -2q6 -1 8 -1.5t5 -3.5t-1 -9l-13 -45q-2 -8 -14 -8q-65 0 -91 31q-14 16 -31 77l-20 71q-9 33 -23 43t-39 10h-38z" />
    <glyph glyph-name="afii10073" unicode="&#x437;" horiz-adv-x="420" 
d="M154 227v35q0 14 13 14h18q50 0 77 26q22 22 22 57t-22 55q-20 18 -53 18q-52 0 -88 -24v-53q0 -12 -12 -12h-32q-12 0 -12 12v85q0 10 10 16q68 38 135 38q69 0 109 -35t40 -96q0 -39 -22.5 -68t-58.5 -41v-3q39 -8 65 -35q32 -33 32 -81q0 -56 -36 -96
q-49 -53 -144 -53q-76 0 -141 38q-14 9 -14 13t1 6l22 40q2 4 5 5h2q4 -1 12 -5q61 -35 118 -35q45 0 69 24.5t24 62.5q0 44 -31 64q-22 15 -78 15h-17q-13 0 -13 13z" />
    <glyph glyph-name="afii10074" unicode="&#x438;" horiz-adv-x="543" 
d="M98 418h-56q-12 0 -12 12v38q0 12 12 12h120q12 0 12 -12v-252l-3 -98h3l48 92l153 265q3 5 11 5h52q12 0 12 -12v-406h56q12 0 12 -12v-38q0 -12 -12 -12h-120q-12 0 -12 12v252l3 97h-3q-24 -43 -31 -58.5t-17 -32.5l-153 -265q-3 -5 -11 -5h-52q-12 0 -12 12v406z" />
    <glyph glyph-name="afii10075" unicode="&#x439;" horiz-adv-x="543" 
d="M98 418h-56q-12 0 -12 12v38q0 12 12 12h120q12 0 12 -12v-252l-3 -98h3l48 92l153 265q3 5 11 5h52q12 0 12 -12v-406h56q12 0 12 -12v-38q0 -12 -12 -12h-120q-12 0 -12 12v252l3 97h-3q-24 -43 -31 -58.5t-17 -32.5l-153 -265q-3 -5 -11 -5h-52q-12 0 -12 12v406z
M366 682l39 -7q12 -3 12 -12q0 -1 -4 -17q-11 -40 -38 -63q-38 -32 -99 -32q-63 0 -99 32q-28 25 -38 63q-3 10 -3 17q0 10 11 12l40 7q1 0 3.5 0.5t3.5 0.5q9 0 11 -9l3 -15q6 -27 25 -40t43 -13q57 0 68 53l3 15q2 11 19 8z" />
    <glyph glyph-name="afii10076" unicode="&#x43a;" horiz-adv-x="483" 
d="M173 218v-206q0 -12 -12 -12h-52q-12 0 -12 12v406h-55q-12 0 -12 12v38q0 12 12 12h119q12 0 12 -12v-188h47q49 0 62 54l13 52q5 21 11.5 37t19 34t34.5 27.5t52 9.5q11 0 13 -8l11 -45q3 -10 -11 -12h-2l-14 -2q-12 -2 -18 -4.5t-13.5 -14.5t-14.5 -36l-11 -40
q-17 -64 -66 -79q50 -13 66 -64l31 -96q7 -21 15.5 -28t29.5 -10l12 -2q6 -1 8 -1.5t5 -3.5t-1 -9l-13 -45q-2 -8 -14 -8q-60 0 -82 21t-40 87l-20 71q-9 33 -23 43t-39 10h-48z" />
    <glyph glyph-name="afii10077" unicode="&#x43b;" horiz-adv-x="503" 
d="M334 62v356h-122v-17q0 -113 -13 -217q-9 -69 -30.5 -116.5t-68.5 -68.5q-35 -13 -61 -13q-21 0 -23 15l-6 35q-3 15 12 17h3l9 1q28 3 46 14.5t28.5 34t15.5 46t9 63.5q11 100 9 206h-56q-12 0 -12 12v38q0 12 12 12h311q13 0 13 -15v-403h56q12 0 12 -12v-38
q0 -12 -12 -12h-188q-12 0 -12 12v38q0 12 12 12h56z" />
    <glyph glyph-name="afii10078" unicode="&#x43c;" horiz-adv-x="590" 
d="M502 62h39q12 0 12 -12v-38q0 -12 -12 -12h-101q-8 0 -8 8l-11 347v37h-2q-3 -19 -8 -37l-84 -243q-4 -10 -12 -10h-40q-8 0 -12 10l-84 243q-5 18 -8 37h-2v-37l-11 -347q0 -8 -8 -8h-101q-12 0 -12 12v38q0 12 12 12h39l20 356h-38q-12 0 -12 12v38q0 12 12 12h120
q7 0 9 -9l77 -219q10 -29 18 -68h2q8 39 18 68l77 219q2 9 9 9h120q12 0 12 -12v-38q0 -12 -12 -12h-38z" />
    <glyph glyph-name="afii10079" unicode="&#x43d;" horiz-adv-x="551" 
d="M179 216v-154h56q12 0 12 -12v-38q0 -12 -12 -12h-188q-12 0 -12 12v38q0 12 12 12h56v356h-56q-12 0 -12 12v38q0 12 12 12h120q12 0 12 -12v-190h193v140h-56q-12 0 -12 12v38q0 12 12 12h188q12 0 12 -12v-38q0 -12 -12 -12h-56v-356h56q12 0 12 -12v-38
q0 -12 -12 -12h-120q-12 0 -12 12v204h-193z" />
    <glyph glyph-name="afii10080" unicode="&#x43e;" horiz-adv-x="498" 
d="M448 243q0 -132 -58 -194.5t-147 -62.5q-81 0 -137 60t-56 192q0 131 57.5 193.5t145.5 62.5q84 0 139.5 -60t55.5 -191zM250 48q116 0 116 196q0 188 -117 188t-117 -185q0 -199 118 -199z" />
    <glyph glyph-name="afii10081" unicode="&#x43f;" horiz-adv-x="541" 
d="M179 418v-356h56q12 0 12 -12v-38q0 -12 -12 -12h-188q-12 0 -12 12v38q0 12 12 12h56v356h-56q-12 0 -12 12v38q0 12 12 12h447q12 0 12 -12v-38q0 -12 -12 -12h-56v-356h56q12 0 12 -12v-38q0 -12 -12 -12h-120q-12 0 -12 12v406h-183z" />
    <glyph glyph-name="afii10082" unicode="&#x440;" horiz-adv-x="514" 
d="M255 -152v-38q0 -12 -12 -12h-197q-12 0 -12 12v38q0 12 12 12h57v495q0 34 -4 54l-2 9h-57q-12 0 -12 12v38q0 12 12 12h90q5 0 9.5 -2t7.5 -4.5t5.5 -7t3.5 -7t3 -8t2 -6.5l4 -10l5 4q68 55 135 55q83 0 123 -66q36 -59 36 -178q0 -77 -16 -132t-43 -82t-53.5 -38.5
t-54.5 -11.5q-58 0 -114 41l-4 3v-170h64q12 0 12 -12zM179 378v-282q60 -43 104 -43q58 0 80 49q19 40 19 146q0 89 -15 126q-22 53 -73 53q-43 0 -109 -45z" />
    <glyph glyph-name="afii10083" unicode="&#x441;" horiz-adv-x="432" 
d="M375 90l19 -47q3 -8 -12 -18q-22 -14 -63.5 -26.5t-82.5 -12.5q-90 0 -140 70q-46 65 -46 169q0 126 59 201q55 68 140 68q27 0 64.5 -9t60.5 -24l8 -5q10 -6 10 -16v-90q0 -12 -12 -12h-41q-12 0 -12 12v58q-36 19 -73 19q-29 0 -51 -9.5t-35 -28t-21 -36t-11 -42.5
t-3.5 -38t-0.5 -33q0 -28 1.5 -49.5t8.5 -49t18.5 -45.5t34 -30.5t52.5 -12.5q53 0 112 36q10 5 11 5q3 0 5 -4z" />
    <glyph glyph-name="afii10084" unicode="&#x442;" horiz-adv-x="440" 
d="M326 50v-38q0 -12 -12 -12h-188q-12 0 -12 12v38q0 12 12 12h56v356h-87v-102q0 -12 -12 -12h-41q-12 0 -12 12v152q0 12 12 12h356q12 0 12 -12v-153q0 -12 -12 -12h-41q-12 0 -12 12v103h-87v-356h56q12 0 12 -12z" />
    <glyph glyph-name="afii10085" unicode="&#x443;" 
d="M446 418l-103 -356q-33 -113 -52 -162t-41 -71q-37 -39 -96 -39q-47 0 -101 29q-18 10 -21.5 16.5t0.5 10.5l20 40q2 5 7 5q3 0 17 -10q44 -29 78 -29q27 0 46 22q16 18 31 63l21 63h-36q-9 0 -13 9l-144 409h-40q-12 0 -12 12v38q0 12 12 12h183q12 0 12 -12v-35v-4.5
t-1 -3t-4 -2.5t-7 -1h-64l109 -321q10 -30 19 -68l1 -4h2q3 22 15 70l84 323h-59q-12 0 -12 12v34q0 12 12 12h174q12 0 12 -12v-38q0 -12 -12 -12h-37z" />
    <glyph glyph-name="afii10086" unicode="&#x444;" horiz-adv-x="646" 
d="M361 689v-234q44 39 90 39q69 0 108 -68q37 -66 37 -183q0 -65 -12 -114t-29 -75.5t-40.5 -42.5t-41.5 -20.5t-36 -4.5q-45 0 -76 31v-157h64q12 0 12 -12v-38q0 -12 -12 -12h-197q-12 0 -12 12v38q0 12 12 12h57v157q-31 -31 -74 -31q-74 0 -117 64q-44 66 -44 193
q0 136 45 193.5t103 57.5q43 0 87 -39v184h-56q-12 0 -12 12v38q0 12 12 12h120q12 0 12 -12zM361 388v-304q34 -36 69 -36q56 0 76 72q14 48 14 125q0 84 -17 131q-11 30 -30 43t-38 13q-42 0 -74 -44zM285 84v304q-13 19 -34 31.5t-40 12.5q-42 0 -63 -44
q-22 -47 -22 -143q0 -78 15 -127q21 -70 79 -70q33 0 65 36z" />
    <glyph glyph-name="afii10087" unicode="&#x445;" 
d="M476 50v-38q0 -12 -12 -12h-160q-12 0 -12 12v34q0 12 12 12h36l-61 93q-19 28 -26 42l-24 -37l-69 -98h46q12 0 12 -12v-34q0 -12 -12 -12h-169q-12 0 -12 12v38q0 12 12 12h37l140 183l-122 173h-45q-12 0 -12 12v38q0 12 12 12h167q12 0 12 -12v-34q0 -12 -12 -12h-38
l66 -102l11 -18l13 20l69 100h-38q-12 0 -12 12v34q0 12 12 12h155q12 0 12 -12v-38q0 -12 -12 -12h-35l-124 -165l134 -191h37q12 0 12 -12z" />
    <glyph glyph-name="afii10088" unicode="&#x446;" horiz-adv-x="519" 
d="M354 62v356h-56q-12 0 -12 12v38q0 12 12 12h120q12 0 12 -12v-406h50q5 0 8.5 -1t4.5 -2.5t1 -3.5v-4v-2v-174q0 -12 -12 -12h-48q-12 0 -12 12v125h-375q-12 0 -12 12v38q0 12 12 12h56v356h-56q-12 0 -12 12v38q0 12 12 12h120q12 0 12 -12v-406h175z" />
    <glyph glyph-name="afii10089" unicode="&#x447;" horiz-adv-x="520" 
d="M341 258v160h-56q-12 0 -12 12v38q0 12 12 12h188q12 0 12 -12v-38q0 -12 -12 -12h-56v-356h56q12 0 12 -12v-38q0 -12 -12 -12h-188q-12 0 -12 12v38q0 12 12 12h56v134q-57 -19 -101 -19q-49 0 -82 15.5t-46.5 41t-17.5 44.5t-4 40v100h-56q-12 0 -12 12v38q0 12 12 12
h120q12 0 12 -12v-158q0 -24 10.5 -40t28 -22t27 -7.5t19.5 -1.5q42 0 90 19z" />
    <glyph glyph-name="afii10090" unicode="&#x448;" horiz-adv-x="720" 
d="M322 62v356h-56q-12 0 -12 12v38q0 12 12 12h120q12 0 12 -12v-406h143v356h-56q-12 0 -12 12v38q0 12 12 12h188q12 0 12 -12v-38q0 -12 -12 -12h-56v-356h56q12 0 12 -12v-38q0 -12 -12 -12h-626q-12 0 -12 12v38q0 12 12 12h56v356h-56q-12 0 -12 12v38q0 12 12 12
h120q12 0 12 -12v-406h143z" />
    <glyph glyph-name="afii10091" unicode="&#x449;" horiz-adv-x="706" 
d="M322 62v356h-56q-12 0 -12 12v38q0 12 12 12h120q12 0 12 -12v-406h143v356h-56q-12 0 -12 12v38q0 12 12 12h120q12 0 12 -12v-406h50q5 0 8.5 -1t4.5 -2.5t1 -3.5v-4v-2v-174q0 -12 -12 -12h-48q-12 0 -12 12v125h-562q-12 0 -12 12v38q0 12 12 12h56v356h-56
q-12 0 -12 12v38q0 12 12 12h120q12 0 12 -12v-406h143z" />
    <glyph glyph-name="afii10092" unicode="&#x44a;" horiz-adv-x="509" 
d="M251 291h78q69 0 113 -34q52 -40 52 -116q0 -68 -53 -109q-43 -32 -120 -32h-202q-12 0 -12 12v38q0 12 12 12h56v356h-88v-103q0 -12 -12 -12h-36q-12 0 -12 12v153q0 12 12 12h200q12 0 12 -12v-177zM251 229v-167h69q51 0 76 25q22 22 22 57q0 46 -35 70
q-23 15 -63 15h-69z" />
    <glyph glyph-name="afii10093" unicode="&#x44b;" horiz-adv-x="648" 
d="M179 291h78q69 0 113 -34q52 -40 52 -116q0 -68 -53 -109q-43 -32 -120 -32h-202q-12 0 -12 12v38q0 12 12 12h56v356h-56q-12 0 -12 12v38q0 12 12 12h120q12 0 12 -12v-177zM179 229v-167h69q53 0 78 27q20 22 20 55q0 48 -36 71q-23 14 -62 14h-69zM401 430v38
q0 12 12 12h188q12 0 12 -12v-38q0 -12 -12 -12h-56v-356h56q12 0 12 -12v-38q0 -12 -12 -12h-119q-13 0 -13 15v403h-56q-12 0 -12 12z" />
    <glyph glyph-name="afii10094" unicode="&#x44c;" horiz-adv-x="437" 
d="M179 291h78q69 0 113 -34q52 -40 52 -113q0 -72 -53 -112q-43 -32 -120 -32h-202q-12 0 -12 12v38q0 12 12 12h56v356h-56q-12 0 -12 12v38q0 12 12 12h120q12 0 12 -12v-177zM179 229v-167h69q51 0 76 25q22 22 22 57q0 47 -34 69q-25 16 -64 16h-69z" />
    <glyph glyph-name="afii10095" unicode="&#x44d;" horiz-adv-x="448" 
d="M127 413v-58q0 -12 -12 -12h-40q-12 0 -12 12v85q0 10 10 16l8 5q53 33 123 33q90 0 141 -61q53 -63 53 -184q0 -111 -42 -181q-49 -82 -163 -82q-68 0 -134 38q-14 8 -14 13t1 6l19 40q2 4 5 5h2q4 -1 12 -5q63 -35 110 -35q74 0 104 65q18 40 18 94v7h-146
q-12 0 -12 12v38q0 12 13 12h145q2 72 -29 113q-31 43 -86 43q-37 0 -74 -19z" />
    <glyph glyph-name="afii10096" unicode="&#x44e;" horiz-adv-x="694" 
d="M179 278h75q5 95 59 158q51 58 136 58q91 0 142 -64q53 -67 53 -187q0 -117 -53 -187t-149 -70q-94 0 -145 75q-44 68 -43 155h-75v-204q0 -12 -12 -12h-52q-12 0 -12 12v406h-56q-12 0 -12 12v38q0 12 12 12h120q12 0 12 -12v-190zM446 48q116 0 116 196q0 188 -117 188
q-114 0 -114 -185q0 -199 115 -199z" />
    <glyph glyph-name="afii10097" unicode="&#x44f;" horiz-adv-x="474" 
d="M381 62h56q12 0 12 -12v-38q0 -12 -12 -12h-120q-12 0 -12 12v193h-54q-18 0 -30 -4t-18.5 -13t-9.5 -15t-7 -20l-21 -70q-14 -48 -29 -66q-27 -31 -93 -31q-12 0 -14 8l-13 45q-3 5 -0.5 8.5t4 4t8.5 1.5l14 2q17 2 27 9t12.5 12.5t7.5 18.5l24 73q15 44 48 59v3
q-55 10 -77 45t-22 70q0 65 47 101q45 34 126 34h134q12 0 12 -12v-406zM305 267v151h-69q-48 0 -71 -17q-27 -19 -27 -56q0 -41 31 -61q27 -17 67 -17h69z" />
    <glyph glyph-name="afii10071" unicode="&#x451;" horiz-adv-x="469" 
d="M396 88l18 -45q1 -2 1 -6q0 -7 -37 -25q-58 -26 -113 -26q-107 0 -166 76q-52 68 -52 178q0 122 62 193q54 61 137 61q79 0 124 -49q57 -60 57 -199v-5q0 -17 -11 -17h-287v-5q0 -58 25 -102q19 -33 50.5 -48.5t62.5 -15.5q49 0 110 35q8 4 12 5h2q4 0 5 -5zM129 286h216
q0 47 -16 85q-25 61 -89 61q-63 0 -92 -59q-19 -40 -19 -87zM207 629q0 -21 -15.5 -37t-37.5 -16t-37.5 15.5t-15.5 37.5t15.5 37.5t37.5 15.5t37.5 -16t15.5 -37zM298 629q0 22 15.5 37.5t37.5 15.5t37.5 -15.5t15.5 -37.5t-15.5 -37.5t-37.5 -15.5t-37.5 15.5t-15.5 37.5z
" />
    <glyph glyph-name="afii10099" unicode="&#x452;" horiz-adv-x="492" 
d="M183 549v-120q84 65 154 65q66 0 97 -51t31 -158q0 -186 -45 -303q-41 -106 -119 -200q-13 -16 -20 -16q-5 0 -9 3l-26 16q-7 5 -7 11q0 4 10 17q65 77 102 195q32 104 32 264q0 104 -22 132q-17 23 -53 23q-28 0 -54 -12q-36 -16 -71 -49v-304h56q12 0 12 -12v-38
q0 -12 -12 -12h-189q-12 0 -12 12v38q0 12 12 12h57v487h-57q-12 0 -12 12v29q0 12 12 12h57v53h-60q-12 0 -12 12v38q0 12 12 12h124q12 0 12 -12v-103h137q13 0 13 -15v-26q0 -12 -12 -12h-138z" />
    <glyph glyph-name="afii10100" unicode="&#x453;" horiz-adv-x="419" 
d="M103 418h-56q-12 0 -12 12v38q0 12 12 12h330q12 0 12 -12v-171q0 -12 -12 -12h-44q-12 0 -12 12v121h-142v-356h71q12 0 12 -12v-38q0 -12 -12 -12h-203q-12 0 -12 12v38q0 12 12 12h56v356zM279 700l29 -43q4 -8 4 -9q0 -4 -9 -10l-166 -86q-4 -2 -7 -2t-7 4l-13 19
q-4 5 -4 8q0 5 4 7l149 115q8 5 10 5q5 0 10 -8z" />
    <glyph glyph-name="afii10101" unicode="&#x454;" horiz-adv-x="440" 
d="M321 355v58q-37 19 -74 19q-55 0 -86 -43q-31 -41 -29 -113h145q13 0 13 -12v-38q0 -12 -12 -12h-146v-7q0 -54 18 -94q30 -65 104 -65q47 0 110 35q8 4 12 5h2q3 -1 5 -5l19 -40q1 -1 1 -6t-14 -13q-66 -38 -134 -38q-114 0 -165 82q-40 65 -40 181q0 120 53 184
q51 61 141 61q70 0 123 -33l8 -5q10 -6 10 -16v-85q0 -12 -12 -12h-40q-12 0 -12 12z" />
    <glyph glyph-name="afii10102" unicode="&#x455;" horiz-adv-x="389" 
d="M271 361v55l-6 2q-38 11 -62 11q-36 0 -53.5 -19t-17.5 -47q0 -25 10 -38q13 -21 87 -56q81 -36 104 -70q21 -31 21 -71q0 -62 -44 -102t-116 -40q-63 0 -124 27q-28 12 -28 23v92q0 12 12 12h41q12 0 12 -12v-58l8 -3l6 -2q6 -2 14 -4l18 -4.5t22 -4t22 -1.5
q42 0 61.5 21t19.5 51q0 32 -28 54q-15 11 -43 25l-57 27q-48 24 -71 53t-23 73q0 59 42 100q41 39 107 39q60 0 120 -30q11 -6 11 -16v-87q0 -12 -12 -12h-41q-12 0 -12 12z" />
    <glyph glyph-name="afii10103" unicode="&#x456;" horiz-adv-x="278" 
d="M265 50v-38q0 -12 -12 -12h-219q-12 0 -12 12v38q0 12 12 12h72v356h-79q-12 0 -12 12v38q0 12 12 12h142q13 0 13 -15v-403h71q12 0 12 -12zM199 656q0 -25 -18 -43t-43 -18t-43 18t-18 43t18 43t43 18t43 -18t18 -43z" />
    <glyph glyph-name="afii10104" unicode="&#x457;" horiz-adv-x="288" 
d="M275 50v-38q0 -12 -12 -12h-219q-12 0 -12 12v38q0 12 12 12h72v356h-79q-12 0 -12 12v38q0 12 12 12h143q12 0 12 -12v-406h71q12 0 12 -12zM121 621q0 -21 -15.5 -37t-37.5 -16t-37.5 15.5t-15.5 37.5t15.5 37.5t37.5 15.5t37.5 -16t15.5 -37zM161 621q0 22 15.5 37.5
t37.5 15.5t37.5 -15.5t15.5 -37.5t-15.5 -37.5t-37.5 -15.5t-37.5 15.5t-15.5 37.5z" />
    <glyph glyph-name="afii10105" unicode="&#x458;" horiz-adv-x="273" 
d="M193 468v-521q0 -17 -1.5 -32.5t-10 -40t-22.5 -41.5t-43 -30t-69 -13q-54 0 -107 25q-16 8 -16 14q0 2 2 8l19 42q3 5 7 5h1q4 0 11 -4q46 -23 83 -23q13 0 23 2t17 7t12.5 8.5t8.5 13.5t5 13.5t3 16.5t1 15.5v16.5v15v453h-79q-12 0 -12 12v38q0 12 12 12h143
q12 0 12 -12zM210 656q0 -25 -18 -43t-43 -18t-43 18t-18 43t18 43t43 18t43 -18t18 -43z" />
    <glyph glyph-name="afii10106" unicode="&#x459;" horiz-adv-x="668" 
d="M410 291h78q83 0 124 -44t41 -106q0 -39 -16 -67.5t-36.5 -42t-49 -21.5t-42.5 -9t-29 -1h-202q-12 0 -12 12v38q0 12 12 12h56v356h-122v-17q0 -113 -13 -217q-5 -39 -13 -68t-24.5 -61.5t-48.5 -50.5t-76 -18q-19 0 -21 15l-6 35q-3 15 12 17h3l9 1q28 3 46 14.5
t28.5 34t15.5 46t9 63.5q11 100 9 206h-56q-12 0 -12 12v38q0 12 12 12h311q13 0 13 -15v-174zM410 229v-167h69q33 0 55 10t30 26.5t10.5 26.5t2.5 19q0 37 -23 61t-75 24h-69z" />
    <glyph glyph-name="afii10107" unicode="&#x45a;" horiz-adv-x="706" 
d="M448 291h78q83 0 124 -44t41 -106q0 -39 -16 -67.5t-36.5 -42t-49 -21.5t-42.5 -9t-29 -1h-134q-12 0 -12 12v204h-193v-154h56q12 0 12 -12v-38q0 -12 -12 -12h-188q-12 0 -12 12v38q0 12 12 12h56v356h-56q-12 0 -12 12v38q0 12 12 12h120q12 0 12 -12v-190h193v140
h-56q-12 0 -12 12v38q0 12 12 12h188q12 0 12 -12v-38q0 -12 -12 -12h-56v-127zM448 229v-167h69q33 0 55 10t30 26.5t10.5 26.5t2.5 19q0 37 -23 61t-75 24h-69z" />
    <glyph glyph-name="afii10108" unicode="&#x45b;" horiz-adv-x="553" 
d="M183 549v-120q74 65 158 65q64 0 92 -38q25 -33 25 -112v-282h56q12 0 12 -12v-38q0 -12 -12 -12h-120q-12 0 -12 12v334q0 39 -13 57q-17 24 -54 24q-30 0 -68.5 -18t-63.5 -43v-304h56q12 0 12 -12v-38q0 -12 -12 -12h-189q-12 0 -12 12v38q0 12 12 12h57v487h-57
q-12 0 -12 12v29q0 12 12 12h57v53h-60q-12 0 -12 12v38q0 12 12 12h124q12 0 12 -12v-103h137q13 0 13 -15v-26q0 -12 -12 -12h-138z" />
    <glyph glyph-name="afii10109" unicode="&#x45c;" horiz-adv-x="483" 
d="M173 218v-206q0 -12 -12 -12h-52q-12 0 -12 12v406h-55q-12 0 -12 12v38q0 12 12 12h119q12 0 12 -12v-188h47q49 0 62 54l13 52q5 21 11.5 37t19 34t34.5 27.5t52 9.5q11 0 13 -8l11 -45q3 -10 -11 -12h-2l-14 -2q-12 -2 -18 -4.5t-13.5 -14.5t-14.5 -36l-11 -40
q-17 -64 -66 -79q50 -13 66 -64l31 -96q7 -21 15.5 -28t29.5 -10l12 -2q6 -1 8 -1.5t5 -3.5t-1 -9l-13 -45q-2 -8 -14 -8q-60 0 -82 21t-40 87l-20 71q-9 33 -23 43t-39 10h-48zM311 700l29 -43q4 -8 4 -9q0 -4 -9 -10l-166 -86q-4 -2 -7 -2t-7 4l-13 19q-4 5 -4 8q0 5 4 7
l149 115q7 5 10 5q5 0 10 -8z" />
    <glyph glyph-name="afii10110" unicode="&#x45e;" 
d="M446 418l-103 -356q-33 -113 -52 -162t-41 -71q-37 -39 -96 -39q-47 0 -101 29q-18 10 -21.5 16.5t0.5 10.5l20 40q2 5 7 5q3 0 17 -10q44 -29 78 -29q27 0 46 22q16 18 31 63l21 63h-36q-9 0 -13 9l-144 409h-40q-12 0 -12 12v38q0 12 12 12h183q12 0 12 -12v-35v-4.5
t-1 -3t-4 -2.5t-7 -1h-64l109 -321q10 -30 19 -68l1 -4h2q3 22 15 70l84 323h-59q-12 0 -12 12v34q0 12 12 12h174q12 0 12 -12v-38q0 -12 -12 -12h-37zM344 682l39 -7q12 -3 12 -12q0 -1 -4 -17q-11 -40 -38 -63q-38 -32 -99 -32q-63 0 -99 32q-28 25 -38 63q-3 10 -3 17
q0 10 11 12l40 7q1 0 3.5 0.5t3.5 0.5q9 0 11 -9l3 -15q6 -27 25 -40t43 -13q57 0 68 53l3 15q2 11 19 8z" />
    <glyph glyph-name="afii10193" unicode="&#x45f;" horiz-adv-x="532" 
d="M353 62v356h-56q-12 0 -12 12v38q0 12 12 12h188q12 0 12 -12v-38q0 -12 -12 -12h-56v-356h56q12 0 12 -12v-38q0 -12 -12 -12h-183v-125q0 -12 -12 -12h-48q-12 0 -12 12v125h-183q-12 0 -12 12v38q0 12 12 12h56v356h-56q-12 0 -12 12v38q0 12 12 12h120q12 0 12 -12
v-406h174z" />
    <glyph glyph-name="afii10146" unicode="&#x462;" horiz-adv-x="607" 
d="M131 685h208q12 0 12 -12v-37q0 -12 -12 -12h-63v-46h175q9 0 11.5 -2.5t2.5 -11.5v-139q0 -12 -12 -12h-45q-12 0 -12 12v90h-120v-147h99q104 0 160 -56q47 -47 47 -126q0 -84 -56 -133q-59 -53 -175 -53h-220q-12 0 -12 12v41q0 12 12 12h63v450h-120v-90
q0 -12 -12 -12h-45q-12 0 -12 12v139q0 9 2.5 11.5t11.5 2.5h175v46h-63q-12 0 -12 12v37q0 12 12 12zM276 70h77q78 0 112 31q33 29 33 87q0 54 -32 82t-103 28h-87v-228z" />
    <glyph glyph-name="afii10194" unicode="&#x463;" horiz-adv-x="478" 
d="M226 336v-90h72q33 0 51 -1t43 -9.5t41 -24.5q30 -30 30 -85q0 -56 -35 -89q-40 -37 -138 -37h-196q-12 0 -12 12v38q0 12 12 12h56v274h-80v-56q0 -11 -12 -11h-39q-14 0 -14 11v96q0 12 13 12h132v34h-56q-12 0 -12 12v34q0 12 12 12h120q12 0 12 -12v-80h132
q13 0 13 -12v-96q0 -11 -14 -11h-39q-12 0 -12 11v56h-80zM226 189v-127h64q57 0 76 14q21 15 21 51q0 27 -15 42q-22 20 -83 20h-63z" />
    </font>
</defs>
</svg>
